G04 #@! TF.FileFunction,Soldermask,Bot*
%FSLAX46Y46*%
G04 Gerber Fmt 4.6, Leading zero omitted, Abs format (unit mm)*
G04 Created by KiCad (PCBNEW 4.0.7) date Friday, 13. April 2018 'u21' 16:21:34*
%MOMM*%
%LPD*%
G01*
G04 APERTURE LIST*
%ADD10C,0.100000*%
%ADD11R,2.127200X2.127200*%
%ADD12O,2.127200X2.127200*%
%ADD13C,6.000000*%
%ADD14R,1.700000X1.400000*%
%ADD15R,1.400000X1.700000*%
%ADD16R,2.432000X2.127200*%
%ADD17O,2.432000X2.127200*%
%ADD18O,5.200000X5.200000*%
%ADD19C,1.924000*%
%ADD20C,3.100020*%
%ADD21C,1.500000*%
%ADD22C,2.000000*%
%ADD23R,5.650000X5.650000*%
%ADD24R,2.432000X2.432000*%
%ADD25O,2.432000X2.432000*%
%ADD26C,1.900000*%
%ADD27R,1.700000X1.700000*%
%ADD28C,1.700000*%
%ADD29R,5.500000X5.500000*%
%ADD30R,6.550000X6.550000*%
%ADD31C,2.398980*%
%ADD32C,4.210000*%
%ADD33R,1.924000X1.924000*%
G04 APERTURE END LIST*
D10*
D11*
X249370000Y-154000000D03*
D12*
X249370000Y-156540000D03*
X246830000Y-154000000D03*
X246830000Y-156540000D03*
X244290000Y-154000000D03*
X244290000Y-156540000D03*
X241750000Y-154000000D03*
X241750000Y-156540000D03*
X239210000Y-154000000D03*
X239210000Y-156540000D03*
X236670000Y-154000000D03*
X236670000Y-156540000D03*
X234130000Y-154000000D03*
X234130000Y-156540000D03*
X231590000Y-154000000D03*
X231590000Y-156540000D03*
X229050000Y-154000000D03*
X229050000Y-156540000D03*
X226510000Y-154000000D03*
X226510000Y-156540000D03*
X223970000Y-154000000D03*
X223970000Y-156540000D03*
X221430000Y-154000000D03*
X221430000Y-156540000D03*
X218890000Y-154000000D03*
X218890000Y-156540000D03*
X216350000Y-154000000D03*
X216350000Y-156540000D03*
X213810000Y-154000000D03*
X213810000Y-156540000D03*
X211270000Y-154000000D03*
X211270000Y-156540000D03*
X208730000Y-154000000D03*
X208730000Y-156540000D03*
X206190000Y-154000000D03*
X206190000Y-156540000D03*
X203650000Y-154000000D03*
X203650000Y-156540000D03*
X201110000Y-154000000D03*
X201110000Y-156540000D03*
X198570000Y-154000000D03*
X198570000Y-156540000D03*
X196030000Y-154000000D03*
X196030000Y-156540000D03*
X193490000Y-154000000D03*
X193490000Y-156540000D03*
X190950000Y-154000000D03*
X190950000Y-156540000D03*
X188410000Y-154000000D03*
X188410000Y-156540000D03*
X185870000Y-154000000D03*
X185870000Y-156540000D03*
X183330000Y-154000000D03*
X183330000Y-156540000D03*
X180790000Y-154000000D03*
X180790000Y-156540000D03*
X178250000Y-154000000D03*
X178250000Y-156540000D03*
X175710000Y-154000000D03*
X175710000Y-156540000D03*
X173170000Y-154000000D03*
X173170000Y-156540000D03*
X170630000Y-154000000D03*
X170630000Y-156540000D03*
D13*
X35000000Y-155000000D03*
X150000000Y-155000000D03*
X265000000Y-155000000D03*
X35000000Y-219000000D03*
X150000000Y-219000000D03*
X265000000Y-219000000D03*
D14*
X144400000Y-190300000D03*
X144400000Y-192100000D03*
X148700000Y-190300000D03*
X148700000Y-192100000D03*
X156400000Y-190300000D03*
X156400000Y-192100000D03*
D15*
X158900000Y-183300000D03*
X160700000Y-183300000D03*
X158900000Y-175500000D03*
X160700000Y-175500000D03*
X158900000Y-173100000D03*
X160700000Y-173100000D03*
D14*
X156400000Y-172500000D03*
X156400000Y-170700000D03*
X151400000Y-172500000D03*
X151400000Y-170700000D03*
X143600000Y-172500000D03*
X143600000Y-170700000D03*
X140900000Y-172500000D03*
X140900000Y-170700000D03*
D15*
X141000000Y-177100000D03*
X139200000Y-177100000D03*
X141000000Y-179700000D03*
X139200000Y-179700000D03*
X140400000Y-186000000D03*
X138600000Y-186000000D03*
X140400000Y-189600000D03*
X138600000Y-189600000D03*
D11*
X128460000Y-181860000D03*
D12*
X131000000Y-181860000D03*
X128460000Y-184400000D03*
X131000000Y-184400000D03*
X128460000Y-186940000D03*
X131000000Y-186940000D03*
X128460000Y-189480000D03*
X131000000Y-189480000D03*
D11*
X129370000Y-154000000D03*
D12*
X129370000Y-156540000D03*
X126830000Y-154000000D03*
X126830000Y-156540000D03*
X124290000Y-154000000D03*
X124290000Y-156540000D03*
X121750000Y-154000000D03*
X121750000Y-156540000D03*
X119210000Y-154000000D03*
X119210000Y-156540000D03*
X116670000Y-154000000D03*
X116670000Y-156540000D03*
X114130000Y-154000000D03*
X114130000Y-156540000D03*
X111590000Y-154000000D03*
X111590000Y-156540000D03*
X109050000Y-154000000D03*
X109050000Y-156540000D03*
X106510000Y-154000000D03*
X106510000Y-156540000D03*
X103970000Y-154000000D03*
X103970000Y-156540000D03*
X101430000Y-154000000D03*
X101430000Y-156540000D03*
X98890000Y-154000000D03*
X98890000Y-156540000D03*
X96350000Y-154000000D03*
X96350000Y-156540000D03*
X93810000Y-154000000D03*
X93810000Y-156540000D03*
X91270000Y-154000000D03*
X91270000Y-156540000D03*
X88730000Y-154000000D03*
X88730000Y-156540000D03*
X86190000Y-154000000D03*
X86190000Y-156540000D03*
X83650000Y-154000000D03*
X83650000Y-156540000D03*
X81110000Y-154000000D03*
X81110000Y-156540000D03*
X78570000Y-154000000D03*
X78570000Y-156540000D03*
X76030000Y-154000000D03*
X76030000Y-156540000D03*
X73490000Y-154000000D03*
X73490000Y-156540000D03*
X70950000Y-154000000D03*
X70950000Y-156540000D03*
X68410000Y-154000000D03*
X68410000Y-156540000D03*
X65870000Y-154000000D03*
X65870000Y-156540000D03*
X63330000Y-154000000D03*
X63330000Y-156540000D03*
X60790000Y-154000000D03*
X60790000Y-156540000D03*
X58250000Y-154000000D03*
X58250000Y-156540000D03*
X55710000Y-154000000D03*
X55710000Y-156540000D03*
X53170000Y-154000000D03*
X53170000Y-156540000D03*
X50630000Y-154000000D03*
X50630000Y-156540000D03*
D11*
X197480000Y-202540000D03*
D12*
X197480000Y-200000000D03*
X200020000Y-202540000D03*
X200020000Y-200000000D03*
X202560000Y-202540000D03*
X202560000Y-200000000D03*
X205100000Y-202540000D03*
X205100000Y-200000000D03*
X207640000Y-202540000D03*
X207640000Y-200000000D03*
X210180000Y-202540000D03*
X210180000Y-200000000D03*
X212720000Y-202540000D03*
X212720000Y-200000000D03*
X215260000Y-202540000D03*
X215260000Y-200000000D03*
X217800000Y-202540000D03*
X217800000Y-200000000D03*
X220340000Y-202540000D03*
X220340000Y-200000000D03*
D16*
X254600000Y-181460000D03*
D17*
X254600000Y-184000000D03*
X254600000Y-186540000D03*
X254600000Y-189080000D03*
D18*
X210000000Y-181500000D03*
D19*
X257000000Y-186540000D03*
X257000000Y-184000000D03*
X258998980Y-184000000D03*
X258998980Y-186540000D03*
D20*
X261699000Y-191269480D03*
X261699000Y-179270520D03*
D21*
X267500000Y-196400000D03*
D22*
X263500000Y-202400000D03*
X263500000Y-199400000D03*
X266500000Y-202400000D03*
X266500000Y-199400000D03*
D21*
X267440000Y-205400000D03*
D23*
X107850000Y-180500000D03*
D24*
X119300000Y-194300000D03*
D25*
X119300000Y-196840000D03*
D11*
X109240000Y-200360000D03*
D12*
X109240000Y-202900000D03*
X106700000Y-200360000D03*
X106700000Y-202900000D03*
X104160000Y-200360000D03*
X104160000Y-202900000D03*
X101620000Y-200360000D03*
X101620000Y-202900000D03*
X99080000Y-200360000D03*
X99080000Y-202900000D03*
D22*
X263730000Y-162285000D03*
X266270000Y-163555000D03*
X263730000Y-164825000D03*
X266270000Y-166095000D03*
X263730000Y-167365000D03*
X266270000Y-168635000D03*
X263730000Y-169905000D03*
X266270000Y-171175000D03*
X263730000Y-172445000D03*
X266270000Y-173715000D03*
D26*
X265530000Y-160885000D03*
D27*
X77900000Y-63400000D03*
D28*
X77900000Y-61400000D03*
D27*
X63900000Y-63400000D03*
D28*
X63900000Y-61400000D03*
D13*
X35000000Y-45800000D03*
X145000000Y-45800000D03*
X145000000Y-145000000D03*
X35000000Y-145000000D03*
D27*
X70400000Y-103000000D03*
D28*
X72400000Y-103000000D03*
D27*
X56200000Y-96100000D03*
D28*
X58200000Y-96100000D03*
D27*
X49600000Y-103000000D03*
D28*
X47600000Y-103000000D03*
D27*
X63800000Y-96100000D03*
D28*
X61800000Y-96100000D03*
D27*
X138200000Y-74300000D03*
D28*
X138200000Y-72300000D03*
D27*
X138200000Y-56200000D03*
D28*
X138200000Y-54200000D03*
D27*
X143800000Y-74300000D03*
D28*
X143800000Y-72300000D03*
D27*
X143800000Y-56200000D03*
D28*
X143800000Y-54200000D03*
D27*
X124200000Y-74400000D03*
D28*
X124200000Y-72400000D03*
D27*
X124200000Y-56200000D03*
D28*
X124200000Y-54200000D03*
D27*
X129800000Y-56200000D03*
D28*
X129800000Y-54200000D03*
D27*
X110200000Y-74400000D03*
D28*
X110200000Y-72400000D03*
D27*
X110200000Y-56200000D03*
D28*
X110200000Y-54200000D03*
D27*
X115800000Y-74400000D03*
D28*
X115800000Y-72400000D03*
D27*
X115800000Y-56200000D03*
D28*
X115800000Y-54200000D03*
D27*
X96200000Y-74400000D03*
D28*
X96200000Y-72400000D03*
D27*
X96200000Y-56200000D03*
D28*
X96200000Y-54200000D03*
D27*
X101800000Y-74400000D03*
D28*
X101800000Y-72400000D03*
D27*
X101800000Y-56200000D03*
D28*
X101800000Y-54200000D03*
D27*
X84100000Y-80400000D03*
D28*
X84100000Y-78400000D03*
D27*
X84100000Y-63400000D03*
D28*
X84100000Y-61400000D03*
D27*
X77900000Y-80400000D03*
D28*
X77900000Y-78400000D03*
D27*
X70100000Y-80400000D03*
D28*
X70100000Y-78400000D03*
D27*
X70100000Y-63400000D03*
D28*
X70100000Y-61400000D03*
D27*
X63900000Y-80400000D03*
D28*
X63900000Y-78400000D03*
D27*
X56100000Y-80400000D03*
D28*
X56100000Y-78400000D03*
D27*
X56100000Y-63400000D03*
D28*
X56100000Y-61400000D03*
D27*
X49900000Y-80400000D03*
D28*
X49900000Y-78400000D03*
D27*
X49900000Y-63400000D03*
D28*
X49900000Y-61400000D03*
D27*
X42100000Y-80400000D03*
D28*
X42100000Y-78400000D03*
D27*
X42100000Y-63400000D03*
D28*
X42100000Y-61400000D03*
D27*
X35900000Y-80400000D03*
D28*
X35900000Y-78400000D03*
D27*
X35900000Y-63400000D03*
D28*
X35900000Y-61400000D03*
D27*
X110300000Y-101900000D03*
D28*
X110300000Y-99900000D03*
D27*
X116800000Y-93300000D03*
D28*
X116800000Y-91300000D03*
D27*
X123200000Y-93300000D03*
D28*
X123200000Y-91300000D03*
D27*
X129900000Y-101900000D03*
D28*
X129900000Y-99900000D03*
D27*
X129800000Y-74400000D03*
D28*
X129800000Y-72400000D03*
D29*
X120000000Y-103300000D03*
D30*
X60000000Y-111100000D03*
D11*
X44760000Y-48700000D03*
D12*
X44760000Y-46160000D03*
X47300000Y-48700000D03*
X47300000Y-46160000D03*
X49840000Y-48700000D03*
X49840000Y-46160000D03*
X52380000Y-48700000D03*
X52380000Y-46160000D03*
X54920000Y-48700000D03*
X54920000Y-46160000D03*
X57460000Y-48700000D03*
X57460000Y-46160000D03*
X60000000Y-48700000D03*
X60000000Y-46160000D03*
X62540000Y-48700000D03*
X62540000Y-46160000D03*
X65080000Y-48700000D03*
X65080000Y-46160000D03*
X67620000Y-48700000D03*
X67620000Y-46160000D03*
X70160000Y-48700000D03*
X70160000Y-46160000D03*
X72700000Y-48700000D03*
X72700000Y-46160000D03*
X75240000Y-48700000D03*
X75240000Y-46160000D03*
D11*
X104760000Y-48700000D03*
D12*
X104760000Y-46160000D03*
X107300000Y-48700000D03*
X107300000Y-46160000D03*
X109840000Y-48700000D03*
X109840000Y-46160000D03*
X112380000Y-48700000D03*
X112380000Y-46160000D03*
X114920000Y-48700000D03*
X114920000Y-46160000D03*
X117460000Y-48700000D03*
X117460000Y-46160000D03*
X120000000Y-48700000D03*
X120000000Y-46160000D03*
X122540000Y-48700000D03*
X122540000Y-46160000D03*
X125080000Y-48700000D03*
X125080000Y-46160000D03*
X127620000Y-48700000D03*
X127620000Y-46160000D03*
X130160000Y-48700000D03*
X130160000Y-46160000D03*
X132700000Y-48700000D03*
X132700000Y-46160000D03*
X135240000Y-48700000D03*
X135240000Y-46160000D03*
D31*
X145800000Y-92600000D03*
X138180000Y-92600000D03*
D13*
X90000000Y-45800000D03*
D21*
X33800000Y-113800000D03*
D22*
X37800000Y-107800000D03*
X37800000Y-110800000D03*
X34800000Y-107800000D03*
X34800000Y-110800000D03*
D21*
X33860000Y-104800000D03*
D31*
X42200000Y-114020000D03*
X42200000Y-106400000D03*
D32*
X83495000Y-39500000D03*
X36505000Y-39500000D03*
D33*
X43490000Y-40940000D03*
D19*
X46284000Y-40940000D03*
X48951000Y-40940000D03*
X51745000Y-40940000D03*
X54539000Y-40940000D03*
X57333000Y-40940000D03*
X60000000Y-40940000D03*
X62794000Y-40940000D03*
X65588000Y-40940000D03*
X68382000Y-40940000D03*
X71049000Y-40940000D03*
X73843000Y-40940000D03*
X76637000Y-40940000D03*
X45064800Y-38100000D03*
X47604800Y-38100000D03*
X50398800Y-38100000D03*
X53142000Y-38100000D03*
X55885200Y-38100000D03*
X58679200Y-38100000D03*
X61422400Y-38100000D03*
X64165600Y-38100000D03*
X67010400Y-38100000D03*
X69702800Y-38100000D03*
X72446000Y-38100000D03*
X75240000Y-38100000D03*
D32*
X143495000Y-39500000D03*
X96505000Y-39500000D03*
D33*
X103490000Y-40940000D03*
D19*
X106284000Y-40940000D03*
X108951000Y-40940000D03*
X111745000Y-40940000D03*
X114539000Y-40940000D03*
X117333000Y-40940000D03*
X120000000Y-40940000D03*
X122794000Y-40940000D03*
X125588000Y-40940000D03*
X128382000Y-40940000D03*
X131049000Y-40940000D03*
X133843000Y-40940000D03*
X136637000Y-40940000D03*
X105064800Y-38100000D03*
X107604800Y-38100000D03*
X110398800Y-38100000D03*
X113142000Y-38100000D03*
X115885200Y-38100000D03*
X118679200Y-38100000D03*
X121422400Y-38100000D03*
X124165600Y-38100000D03*
X127010400Y-38100000D03*
X129702800Y-38100000D03*
X132446000Y-38100000D03*
X135240000Y-38100000D03*
D27*
X90000000Y-61400000D03*
D28*
X90000000Y-63400000D03*
D27*
X90000000Y-72600000D03*
D28*
X90000000Y-74600000D03*
D27*
X90000000Y-67000000D03*
D28*
X90000000Y-69000000D03*
D27*
X90000000Y-78200000D03*
D28*
X90000000Y-80200000D03*
D27*
X90000000Y-83800000D03*
D28*
X90000000Y-85800000D03*
D27*
X90000000Y-89400000D03*
D28*
X90000000Y-91400000D03*
D11*
X129370000Y-143860000D03*
D12*
X129370000Y-146400000D03*
X126830000Y-143860000D03*
X126830000Y-146400000D03*
X124290000Y-143860000D03*
X124290000Y-146400000D03*
X121750000Y-143860000D03*
X121750000Y-146400000D03*
X119210000Y-143860000D03*
X119210000Y-146400000D03*
X116670000Y-143860000D03*
X116670000Y-146400000D03*
X114130000Y-143860000D03*
X114130000Y-146400000D03*
X111590000Y-143860000D03*
X111590000Y-146400000D03*
X109050000Y-143860000D03*
X109050000Y-146400000D03*
X106510000Y-143860000D03*
X106510000Y-146400000D03*
X103970000Y-143860000D03*
X103970000Y-146400000D03*
X101430000Y-143860000D03*
X101430000Y-146400000D03*
X98890000Y-143860000D03*
X98890000Y-146400000D03*
X96350000Y-143860000D03*
X96350000Y-146400000D03*
X93810000Y-143860000D03*
X93810000Y-146400000D03*
X91270000Y-143860000D03*
X91270000Y-146400000D03*
X88730000Y-143860000D03*
X88730000Y-146400000D03*
X86190000Y-143860000D03*
X86190000Y-146400000D03*
X83650000Y-143860000D03*
X83650000Y-146400000D03*
X81110000Y-143860000D03*
X81110000Y-146400000D03*
X78570000Y-143860000D03*
X78570000Y-146400000D03*
X76030000Y-143860000D03*
X76030000Y-146400000D03*
X73490000Y-143860000D03*
X73490000Y-146400000D03*
X70950000Y-143860000D03*
X70950000Y-146400000D03*
X68410000Y-143860000D03*
X68410000Y-146400000D03*
X65870000Y-143860000D03*
X65870000Y-146400000D03*
X63330000Y-143860000D03*
X63330000Y-146400000D03*
X60790000Y-143860000D03*
X60790000Y-146400000D03*
X58250000Y-143860000D03*
X58250000Y-146400000D03*
X55710000Y-143860000D03*
X55710000Y-146400000D03*
X53170000Y-143860000D03*
X53170000Y-146400000D03*
X50630000Y-143860000D03*
X50630000Y-146400000D03*
D11*
X129370000Y-134200000D03*
D12*
X129370000Y-136740000D03*
X126830000Y-134200000D03*
X126830000Y-136740000D03*
X124290000Y-134200000D03*
X124290000Y-136740000D03*
X121750000Y-134200000D03*
X121750000Y-136740000D03*
X119210000Y-134200000D03*
X119210000Y-136740000D03*
X116670000Y-134200000D03*
X116670000Y-136740000D03*
X114130000Y-134200000D03*
X114130000Y-136740000D03*
X111590000Y-134200000D03*
X111590000Y-136740000D03*
X109050000Y-134200000D03*
X109050000Y-136740000D03*
X106510000Y-134200000D03*
X106510000Y-136740000D03*
X103970000Y-134200000D03*
X103970000Y-136740000D03*
X101430000Y-134200000D03*
X101430000Y-136740000D03*
X98890000Y-134200000D03*
X98890000Y-136740000D03*
X96350000Y-134200000D03*
X96350000Y-136740000D03*
X93810000Y-134200000D03*
X93810000Y-136740000D03*
X91270000Y-134200000D03*
X91270000Y-136740000D03*
X88730000Y-134200000D03*
X88730000Y-136740000D03*
X86190000Y-134200000D03*
X86190000Y-136740000D03*
X83650000Y-134200000D03*
X83650000Y-136740000D03*
X81110000Y-134200000D03*
X81110000Y-136740000D03*
X78570000Y-134200000D03*
X78570000Y-136740000D03*
X76030000Y-134200000D03*
X76030000Y-136740000D03*
X73490000Y-134200000D03*
X73490000Y-136740000D03*
X70950000Y-134200000D03*
X70950000Y-136740000D03*
X68410000Y-134200000D03*
X68410000Y-136740000D03*
X65870000Y-134200000D03*
X65870000Y-136740000D03*
X63330000Y-134200000D03*
X63330000Y-136740000D03*
X60790000Y-134200000D03*
X60790000Y-136740000D03*
X58250000Y-134200000D03*
X58250000Y-136740000D03*
X55710000Y-134200000D03*
X55710000Y-136740000D03*
X53170000Y-134200000D03*
X53170000Y-136740000D03*
X50630000Y-134200000D03*
X50630000Y-136740000D03*
D27*
X197900000Y-63400000D03*
D28*
X197900000Y-61400000D03*
D27*
X183900000Y-63400000D03*
D28*
X183900000Y-61400000D03*
D13*
X155000000Y-45800000D03*
X265000000Y-45800000D03*
X265000000Y-145000000D03*
X155000000Y-145000000D03*
D27*
X190400000Y-103000000D03*
D28*
X192400000Y-103000000D03*
D27*
X176200000Y-96100000D03*
D28*
X178200000Y-96100000D03*
D27*
X169600000Y-103000000D03*
D28*
X167600000Y-103000000D03*
D27*
X183800000Y-96100000D03*
D28*
X181800000Y-96100000D03*
D27*
X258200000Y-74300000D03*
D28*
X258200000Y-72300000D03*
D27*
X258200000Y-56200000D03*
D28*
X258200000Y-54200000D03*
D27*
X263800000Y-74300000D03*
D28*
X263800000Y-72300000D03*
D27*
X263800000Y-56200000D03*
D28*
X263800000Y-54200000D03*
D27*
X244200000Y-74400000D03*
D28*
X244200000Y-72400000D03*
D27*
X244200000Y-56200000D03*
D28*
X244200000Y-54200000D03*
D27*
X249800000Y-56200000D03*
D28*
X249800000Y-54200000D03*
D27*
X230200000Y-74400000D03*
D28*
X230200000Y-72400000D03*
D27*
X230200000Y-56200000D03*
D28*
X230200000Y-54200000D03*
D27*
X235800000Y-74400000D03*
D28*
X235800000Y-72400000D03*
D27*
X235800000Y-56200000D03*
D28*
X235800000Y-54200000D03*
D27*
X216200000Y-74400000D03*
D28*
X216200000Y-72400000D03*
D27*
X216200000Y-56200000D03*
D28*
X216200000Y-54200000D03*
D27*
X221800000Y-74400000D03*
D28*
X221800000Y-72400000D03*
D27*
X221800000Y-56200000D03*
D28*
X221800000Y-54200000D03*
D27*
X204100000Y-80400000D03*
D28*
X204100000Y-78400000D03*
D27*
X204100000Y-63400000D03*
D28*
X204100000Y-61400000D03*
D27*
X197900000Y-80400000D03*
D28*
X197900000Y-78400000D03*
D27*
X190100000Y-80400000D03*
D28*
X190100000Y-78400000D03*
D27*
X190100000Y-63400000D03*
D28*
X190100000Y-61400000D03*
D27*
X183900000Y-80400000D03*
D28*
X183900000Y-78400000D03*
D27*
X176100000Y-80400000D03*
D28*
X176100000Y-78400000D03*
D27*
X176100000Y-63400000D03*
D28*
X176100000Y-61400000D03*
D27*
X169900000Y-80400000D03*
D28*
X169900000Y-78400000D03*
D27*
X169900000Y-63400000D03*
D28*
X169900000Y-61400000D03*
D27*
X162100000Y-80400000D03*
D28*
X162100000Y-78400000D03*
D27*
X162100000Y-63400000D03*
D28*
X162100000Y-61400000D03*
D27*
X155900000Y-80400000D03*
D28*
X155900000Y-78400000D03*
D27*
X155900000Y-63400000D03*
D28*
X155900000Y-61400000D03*
D27*
X230300000Y-101900000D03*
D28*
X230300000Y-99900000D03*
D27*
X236800000Y-93300000D03*
D28*
X236800000Y-91300000D03*
D27*
X243200000Y-93300000D03*
D28*
X243200000Y-91300000D03*
D27*
X249900000Y-101900000D03*
D28*
X249900000Y-99900000D03*
D27*
X249800000Y-74400000D03*
D28*
X249800000Y-72400000D03*
D29*
X240000000Y-103300000D03*
D30*
X180000000Y-111100000D03*
D11*
X164760000Y-48700000D03*
D12*
X164760000Y-46160000D03*
X167300000Y-48700000D03*
X167300000Y-46160000D03*
X169840000Y-48700000D03*
X169840000Y-46160000D03*
X172380000Y-48700000D03*
X172380000Y-46160000D03*
X174920000Y-48700000D03*
X174920000Y-46160000D03*
X177460000Y-48700000D03*
X177460000Y-46160000D03*
X180000000Y-48700000D03*
X180000000Y-46160000D03*
X182540000Y-48700000D03*
X182540000Y-46160000D03*
X185080000Y-48700000D03*
X185080000Y-46160000D03*
X187620000Y-48700000D03*
X187620000Y-46160000D03*
X190160000Y-48700000D03*
X190160000Y-46160000D03*
X192700000Y-48700000D03*
X192700000Y-46160000D03*
X195240000Y-48700000D03*
X195240000Y-46160000D03*
D11*
X224760000Y-48700000D03*
D12*
X224760000Y-46160000D03*
X227300000Y-48700000D03*
X227300000Y-46160000D03*
X229840000Y-48700000D03*
X229840000Y-46160000D03*
X232380000Y-48700000D03*
X232380000Y-46160000D03*
X234920000Y-48700000D03*
X234920000Y-46160000D03*
X237460000Y-48700000D03*
X237460000Y-46160000D03*
X240000000Y-48700000D03*
X240000000Y-46160000D03*
X242540000Y-48700000D03*
X242540000Y-46160000D03*
X245080000Y-48700000D03*
X245080000Y-46160000D03*
X247620000Y-48700000D03*
X247620000Y-46160000D03*
X250160000Y-48700000D03*
X250160000Y-46160000D03*
X252700000Y-48700000D03*
X252700000Y-46160000D03*
X255240000Y-48700000D03*
X255240000Y-46160000D03*
D31*
X265800000Y-92600000D03*
X258180000Y-92600000D03*
D13*
X210000000Y-45800000D03*
D21*
X153800000Y-113800000D03*
D22*
X157800000Y-107800000D03*
X157800000Y-110800000D03*
X154800000Y-107800000D03*
X154800000Y-110800000D03*
D21*
X153860000Y-104800000D03*
D31*
X162200000Y-114020000D03*
X162200000Y-106400000D03*
D32*
X203495000Y-39500000D03*
X156505000Y-39500000D03*
D33*
X163490000Y-40940000D03*
D19*
X166284000Y-40940000D03*
X168951000Y-40940000D03*
X171745000Y-40940000D03*
X174539000Y-40940000D03*
X177333000Y-40940000D03*
X180000000Y-40940000D03*
X182794000Y-40940000D03*
X185588000Y-40940000D03*
X188382000Y-40940000D03*
X191049000Y-40940000D03*
X193843000Y-40940000D03*
X196637000Y-40940000D03*
X165064800Y-38100000D03*
X167604800Y-38100000D03*
X170398800Y-38100000D03*
X173142000Y-38100000D03*
X175885200Y-38100000D03*
X178679200Y-38100000D03*
X181422400Y-38100000D03*
X184165600Y-38100000D03*
X187010400Y-38100000D03*
X189702800Y-38100000D03*
X192446000Y-38100000D03*
X195240000Y-38100000D03*
D32*
X263495000Y-39500000D03*
X216505000Y-39500000D03*
D33*
X223490000Y-40940000D03*
D19*
X226284000Y-40940000D03*
X228951000Y-40940000D03*
X231745000Y-40940000D03*
X234539000Y-40940000D03*
X237333000Y-40940000D03*
X240000000Y-40940000D03*
X242794000Y-40940000D03*
X245588000Y-40940000D03*
X248382000Y-40940000D03*
X251049000Y-40940000D03*
X253843000Y-40940000D03*
X256637000Y-40940000D03*
X225064800Y-38100000D03*
X227604800Y-38100000D03*
X230398800Y-38100000D03*
X233142000Y-38100000D03*
X235885200Y-38100000D03*
X238679200Y-38100000D03*
X241422400Y-38100000D03*
X244165600Y-38100000D03*
X247010400Y-38100000D03*
X249702800Y-38100000D03*
X252446000Y-38100000D03*
X255240000Y-38100000D03*
D27*
X210000000Y-61400000D03*
D28*
X210000000Y-63400000D03*
D27*
X210000000Y-72600000D03*
D28*
X210000000Y-74600000D03*
D27*
X210000000Y-67000000D03*
D28*
X210000000Y-69000000D03*
D27*
X210000000Y-78200000D03*
D28*
X210000000Y-80200000D03*
D27*
X210000000Y-83800000D03*
D28*
X210000000Y-85800000D03*
D27*
X210000000Y-89400000D03*
D28*
X210000000Y-91400000D03*
D11*
X249370000Y-143860000D03*
D12*
X249370000Y-146400000D03*
X246830000Y-143860000D03*
X246830000Y-146400000D03*
X244290000Y-143860000D03*
X244290000Y-146400000D03*
X241750000Y-143860000D03*
X241750000Y-146400000D03*
X239210000Y-143860000D03*
X239210000Y-146400000D03*
X236670000Y-143860000D03*
X236670000Y-146400000D03*
X234130000Y-143860000D03*
X234130000Y-146400000D03*
X231590000Y-143860000D03*
X231590000Y-146400000D03*
X229050000Y-143860000D03*
X229050000Y-146400000D03*
X226510000Y-143860000D03*
X226510000Y-146400000D03*
X223970000Y-143860000D03*
X223970000Y-146400000D03*
X221430000Y-143860000D03*
X221430000Y-146400000D03*
X218890000Y-143860000D03*
X218890000Y-146400000D03*
X216350000Y-143860000D03*
X216350000Y-146400000D03*
X213810000Y-143860000D03*
X213810000Y-146400000D03*
X211270000Y-143860000D03*
X211270000Y-146400000D03*
X208730000Y-143860000D03*
X208730000Y-146400000D03*
X206190000Y-143860000D03*
X206190000Y-146400000D03*
X203650000Y-143860000D03*
X203650000Y-146400000D03*
X201110000Y-143860000D03*
X201110000Y-146400000D03*
X198570000Y-143860000D03*
X198570000Y-146400000D03*
X196030000Y-143860000D03*
X196030000Y-146400000D03*
X193490000Y-143860000D03*
X193490000Y-146400000D03*
X190950000Y-143860000D03*
X190950000Y-146400000D03*
X188410000Y-143860000D03*
X188410000Y-146400000D03*
X185870000Y-143860000D03*
X185870000Y-146400000D03*
X183330000Y-143860000D03*
X183330000Y-146400000D03*
X180790000Y-143860000D03*
X180790000Y-146400000D03*
X178250000Y-143860000D03*
X178250000Y-146400000D03*
X175710000Y-143860000D03*
X175710000Y-146400000D03*
X173170000Y-143860000D03*
X173170000Y-146400000D03*
X170630000Y-143860000D03*
X170630000Y-146400000D03*
D11*
X249370000Y-134200000D03*
D12*
X249370000Y-136740000D03*
X246830000Y-134200000D03*
X246830000Y-136740000D03*
X244290000Y-134200000D03*
X244290000Y-136740000D03*
X241750000Y-134200000D03*
X241750000Y-136740000D03*
X239210000Y-134200000D03*
X239210000Y-136740000D03*
X236670000Y-134200000D03*
X236670000Y-136740000D03*
X234130000Y-134200000D03*
X234130000Y-136740000D03*
X231590000Y-134200000D03*
X231590000Y-136740000D03*
X229050000Y-134200000D03*
X229050000Y-136740000D03*
X226510000Y-134200000D03*
X226510000Y-136740000D03*
X223970000Y-134200000D03*
X223970000Y-136740000D03*
X221430000Y-134200000D03*
X221430000Y-136740000D03*
X218890000Y-134200000D03*
X218890000Y-136740000D03*
X216350000Y-134200000D03*
X216350000Y-136740000D03*
X213810000Y-134200000D03*
X213810000Y-136740000D03*
X211270000Y-134200000D03*
X211270000Y-136740000D03*
X208730000Y-134200000D03*
X208730000Y-136740000D03*
X206190000Y-134200000D03*
X206190000Y-136740000D03*
X203650000Y-134200000D03*
X203650000Y-136740000D03*
X201110000Y-134200000D03*
X201110000Y-136740000D03*
X198570000Y-134200000D03*
X198570000Y-136740000D03*
X196030000Y-134200000D03*
X196030000Y-136740000D03*
X193490000Y-134200000D03*
X193490000Y-136740000D03*
X190950000Y-134200000D03*
X190950000Y-136740000D03*
X188410000Y-134200000D03*
X188410000Y-136740000D03*
X185870000Y-134200000D03*
X185870000Y-136740000D03*
X183330000Y-134200000D03*
X183330000Y-136740000D03*
X180790000Y-134200000D03*
X180790000Y-136740000D03*
X178250000Y-134200000D03*
X178250000Y-136740000D03*
X175710000Y-134200000D03*
X175710000Y-136740000D03*
X173170000Y-134200000D03*
X173170000Y-136740000D03*
X170630000Y-134200000D03*
X170630000Y-136740000D03*
M02*
