G04 #@! TF.FileFunction,Soldermask,Top*
%FSLAX46Y46*%
G04 Gerber Fmt 4.6, Leading zero omitted, Abs format (unit mm)*
G04 Created by KiCad (PCBNEW 4.0.7) date Friday, 13. April 2018 'u21' 16:21:34*
%MOMM*%
%LPD*%
G01*
G04 APERTURE LIST*
%ADD10C,0.100000*%
%ADD11R,1.850000X0.850000*%
%ADD12R,2.127200X2.127200*%
%ADD13O,2.127200X2.127200*%
%ADD14C,6.000000*%
%ADD15R,1.700000X1.400000*%
%ADD16R,1.400000X1.700000*%
%ADD17R,0.650000X1.850000*%
%ADD18R,1.850000X0.650000*%
%ADD19R,1.200000X0.900000*%
%ADD20R,1.200000X0.800000*%
%ADD21R,0.900000X1.200000*%
%ADD22R,0.800000X1.200000*%
%ADD23R,2.432000X2.127200*%
%ADD24O,2.432000X2.127200*%
%ADD25R,0.900000X1.000000*%
%ADD26R,1.000000X0.900000*%
%ADD27R,1.620000X1.310000*%
%ADD28R,0.630000X1.400000*%
%ADD29R,1.400000X0.630000*%
%ADD30R,5.200000X5.200000*%
%ADD31O,5.200000X5.200000*%
%ADD32R,1.000000X1.950000*%
%ADD33C,1.924000*%
%ADD34C,3.100020*%
%ADD35R,0.806400X1.060400*%
%ADD36R,1.900000X2.100000*%
%ADD37R,0.798780X1.149300*%
%ADD38R,1.800000X0.700000*%
%ADD39R,4.057600X2.432000*%
%ADD40R,1.416000X2.432000*%
%ADD41R,1.050000X1.460000*%
%ADD42R,2.600000X2.600000*%
%ADD43C,1.500000*%
%ADD44C,2.000000*%
%ADD45R,1.598880X1.799540*%
%ADD46R,1.400760X1.799540*%
%ADD47R,5.650000X5.650000*%
%ADD48R,0.950000X0.700000*%
%ADD49R,0.700000X0.950000*%
%ADD50R,2.100000X1.050000*%
%ADD51R,2.432000X2.432000*%
%ADD52O,2.432000X2.432000*%
%ADD53R,2.051000X3.448000*%
%ADD54R,6.496000X6.496000*%
%ADD55C,1.900000*%
%ADD56R,1.700000X1.700000*%
%ADD57C,1.700000*%
%ADD58R,1.950000X1.000000*%
%ADD59R,0.650000X1.050000*%
%ADD60R,0.650000X1.100000*%
%ADD61R,1.050000X0.650000*%
%ADD62R,1.100000X0.650000*%
%ADD63R,5.500000X5.500000*%
%ADD64R,0.700000X1.150000*%
%ADD65R,0.700000X1.250000*%
%ADD66R,1.150000X0.700000*%
%ADD67R,1.250000X0.700000*%
%ADD68R,6.550000X6.550000*%
%ADD69R,2.432000X4.057600*%
%ADD70R,2.432000X1.416000*%
%ADD71C,2.398980*%
%ADD72R,3.100020X1.901140*%
%ADD73C,4.210000*%
%ADD74R,1.924000X1.924000*%
G04 APERTURE END LIST*
D10*
D11*
X248750000Y-168625000D03*
X248750000Y-167975000D03*
X248750000Y-167325000D03*
X248750000Y-166675000D03*
X248750000Y-166025000D03*
X248750000Y-165375000D03*
X248750000Y-164725000D03*
X248750000Y-164075000D03*
X248750000Y-163425000D03*
X248750000Y-162775000D03*
X242850000Y-162775000D03*
X242850000Y-163425000D03*
X242850000Y-164075000D03*
X242850000Y-164725000D03*
X242850000Y-165375000D03*
X242850000Y-166025000D03*
X242850000Y-166675000D03*
X242850000Y-167325000D03*
X242850000Y-167975000D03*
X242850000Y-168625000D03*
D12*
X249370000Y-154000000D03*
D13*
X249370000Y-156540000D03*
X246830000Y-154000000D03*
X246830000Y-156540000D03*
X244290000Y-154000000D03*
X244290000Y-156540000D03*
X241750000Y-154000000D03*
X241750000Y-156540000D03*
X239210000Y-154000000D03*
X239210000Y-156540000D03*
X236670000Y-154000000D03*
X236670000Y-156540000D03*
X234130000Y-154000000D03*
X234130000Y-156540000D03*
X231590000Y-154000000D03*
X231590000Y-156540000D03*
X229050000Y-154000000D03*
X229050000Y-156540000D03*
X226510000Y-154000000D03*
X226510000Y-156540000D03*
X223970000Y-154000000D03*
X223970000Y-156540000D03*
X221430000Y-154000000D03*
X221430000Y-156540000D03*
X218890000Y-154000000D03*
X218890000Y-156540000D03*
X216350000Y-154000000D03*
X216350000Y-156540000D03*
X213810000Y-154000000D03*
X213810000Y-156540000D03*
X211270000Y-154000000D03*
X211270000Y-156540000D03*
X208730000Y-154000000D03*
X208730000Y-156540000D03*
X206190000Y-154000000D03*
X206190000Y-156540000D03*
X203650000Y-154000000D03*
X203650000Y-156540000D03*
X201110000Y-154000000D03*
X201110000Y-156540000D03*
X198570000Y-154000000D03*
X198570000Y-156540000D03*
X196030000Y-154000000D03*
X196030000Y-156540000D03*
X193490000Y-154000000D03*
X193490000Y-156540000D03*
X190950000Y-154000000D03*
X190950000Y-156540000D03*
X188410000Y-154000000D03*
X188410000Y-156540000D03*
X185870000Y-154000000D03*
X185870000Y-156540000D03*
X183330000Y-154000000D03*
X183330000Y-156540000D03*
X180790000Y-154000000D03*
X180790000Y-156540000D03*
X178250000Y-154000000D03*
X178250000Y-156540000D03*
X175710000Y-154000000D03*
X175710000Y-156540000D03*
X173170000Y-154000000D03*
X173170000Y-156540000D03*
X170630000Y-154000000D03*
X170630000Y-156540000D03*
D14*
X35000000Y-155000000D03*
X150000000Y-155000000D03*
X265000000Y-155000000D03*
X35000000Y-219000000D03*
X150000000Y-219000000D03*
X265000000Y-219000000D03*
D15*
X158500000Y-196100000D03*
X158500000Y-194300000D03*
D16*
X164700000Y-190300000D03*
X162900000Y-190300000D03*
D17*
X141250000Y-191950000D03*
X141750000Y-191950000D03*
X142250000Y-191950000D03*
X142750000Y-191950000D03*
X143250000Y-191950000D03*
X143750000Y-191950000D03*
X144250000Y-191950000D03*
X144750000Y-191950000D03*
X145250000Y-191950000D03*
X145750000Y-191950000D03*
X146250000Y-191950000D03*
X146750000Y-191950000D03*
X147250000Y-191950000D03*
X147750000Y-191950000D03*
X148250000Y-191950000D03*
X148750000Y-191950000D03*
X149250000Y-191950000D03*
X149750000Y-191950000D03*
X150250000Y-191950000D03*
X150750000Y-191950000D03*
X151250000Y-191950000D03*
X151750000Y-191950000D03*
X152250000Y-191950000D03*
X152750000Y-191950000D03*
X153250000Y-191950000D03*
X153750000Y-191950000D03*
X154250000Y-191950000D03*
X154750000Y-191950000D03*
X155250000Y-191950000D03*
X155750000Y-191950000D03*
X156250000Y-191950000D03*
X156750000Y-191950000D03*
X157250000Y-191950000D03*
X157750000Y-191950000D03*
X158250000Y-191950000D03*
X158750000Y-191950000D03*
D18*
X160550000Y-190150000D03*
X160550000Y-189650000D03*
X160550000Y-189150000D03*
X160550000Y-188650000D03*
X160550000Y-188150000D03*
X160550000Y-187650000D03*
X160550000Y-187150000D03*
X160550000Y-186650000D03*
X160550000Y-186150000D03*
X160550000Y-185650000D03*
X160550000Y-185150000D03*
X160550000Y-184650000D03*
X160550000Y-184150000D03*
X160550000Y-183650000D03*
X160550000Y-183150000D03*
X160550000Y-182650000D03*
X160550000Y-182150000D03*
X160550000Y-181650000D03*
X160550000Y-181150000D03*
X160550000Y-180650000D03*
X160550000Y-180150000D03*
X160550000Y-179650000D03*
X160550000Y-179150000D03*
X160550000Y-178650000D03*
X160550000Y-178150000D03*
X160550000Y-177650000D03*
X160550000Y-177150000D03*
X160550000Y-176650000D03*
X160550000Y-176150000D03*
X160550000Y-175650000D03*
X160550000Y-175150000D03*
X160550000Y-174650000D03*
X160550000Y-174150000D03*
X160550000Y-173650000D03*
X160550000Y-173150000D03*
X160550000Y-172650000D03*
D17*
X158750000Y-170850000D03*
X158250000Y-170850000D03*
X157750000Y-170850000D03*
X157250000Y-170850000D03*
X156750000Y-170850000D03*
X156250000Y-170850000D03*
X155750000Y-170850000D03*
X155250000Y-170850000D03*
X154750000Y-170850000D03*
X154250000Y-170850000D03*
X153750000Y-170850000D03*
X153250000Y-170850000D03*
X152750000Y-170850000D03*
X152250000Y-170850000D03*
X151750000Y-170850000D03*
X151250000Y-170850000D03*
X150750000Y-170850000D03*
X150250000Y-170850000D03*
X149750000Y-170850000D03*
X149250000Y-170850000D03*
X148750000Y-170850000D03*
X148250000Y-170850000D03*
X147750000Y-170850000D03*
X147250000Y-170850000D03*
X146750000Y-170850000D03*
X146250000Y-170850000D03*
X145750000Y-170850000D03*
X145250000Y-170850000D03*
X144750000Y-170850000D03*
X144250000Y-170850000D03*
X143750000Y-170850000D03*
X143250000Y-170850000D03*
X142750000Y-170850000D03*
X142250000Y-170850000D03*
X141750000Y-170850000D03*
X141250000Y-170850000D03*
D18*
X139450000Y-172650000D03*
X139450000Y-173150000D03*
X139450000Y-173650000D03*
X139450000Y-174150000D03*
X139450000Y-174650000D03*
X139450000Y-175150000D03*
X139450000Y-175650000D03*
X139450000Y-176150000D03*
X139450000Y-176650000D03*
X139450000Y-177150000D03*
X139450000Y-177650000D03*
X139450000Y-178150000D03*
X139450000Y-178650000D03*
X139450000Y-179150000D03*
X139450000Y-179650000D03*
X139450000Y-180150000D03*
X139450000Y-180650000D03*
X139450000Y-181150000D03*
X139450000Y-181650000D03*
X139450000Y-182150000D03*
X139450000Y-182650000D03*
X139450000Y-183150000D03*
X139450000Y-183650000D03*
X139450000Y-184150000D03*
X139450000Y-184650000D03*
X139450000Y-185150000D03*
X139450000Y-185650000D03*
X139450000Y-186150000D03*
X139450000Y-186650000D03*
X139450000Y-187150000D03*
X139450000Y-187650000D03*
X139450000Y-188150000D03*
X139450000Y-188650000D03*
X139450000Y-189150000D03*
X139450000Y-189650000D03*
X139450000Y-190150000D03*
D16*
X127500000Y-179100000D03*
X129300000Y-179100000D03*
D19*
X136000000Y-173500000D03*
D20*
X136000000Y-171900000D03*
X136000000Y-172700000D03*
D19*
X136000000Y-171100000D03*
D20*
X134200000Y-172700000D03*
D19*
X134200000Y-173500000D03*
D20*
X134200000Y-171900000D03*
D19*
X134200000Y-171100000D03*
D21*
X139700000Y-167200000D03*
D22*
X141300000Y-167200000D03*
X140500000Y-167200000D03*
D21*
X142100000Y-167200000D03*
D22*
X140500000Y-165400000D03*
D21*
X139700000Y-165400000D03*
D22*
X141300000Y-165400000D03*
D21*
X142100000Y-165400000D03*
X143300000Y-167200000D03*
D22*
X144900000Y-167200000D03*
X144100000Y-167200000D03*
D21*
X145700000Y-167200000D03*
D22*
X144100000Y-165400000D03*
D21*
X143300000Y-165400000D03*
D22*
X144900000Y-165400000D03*
D21*
X145700000Y-165400000D03*
X146900000Y-167200000D03*
D22*
X148500000Y-167200000D03*
X147700000Y-167200000D03*
D21*
X149300000Y-167200000D03*
D22*
X147700000Y-165400000D03*
D21*
X146900000Y-165400000D03*
D22*
X148500000Y-165400000D03*
D21*
X149300000Y-165400000D03*
X152500000Y-167200000D03*
D22*
X154100000Y-167200000D03*
X153300000Y-167200000D03*
D21*
X154900000Y-167200000D03*
D22*
X153300000Y-165400000D03*
D21*
X152500000Y-165400000D03*
D22*
X154100000Y-165400000D03*
D21*
X154900000Y-165400000D03*
X156100000Y-167200000D03*
D22*
X157700000Y-167200000D03*
X156900000Y-167200000D03*
D21*
X158500000Y-167200000D03*
D22*
X156900000Y-165400000D03*
D21*
X156100000Y-165400000D03*
D22*
X157700000Y-165400000D03*
D21*
X158500000Y-165400000D03*
X159700000Y-167200000D03*
D22*
X161300000Y-167200000D03*
X160500000Y-167200000D03*
D21*
X162100000Y-167200000D03*
D22*
X160500000Y-165400000D03*
D21*
X159700000Y-165400000D03*
D22*
X161300000Y-165400000D03*
D21*
X162100000Y-165400000D03*
D19*
X164000000Y-173600000D03*
D20*
X164000000Y-175200000D03*
X164000000Y-174400000D03*
D19*
X164000000Y-176000000D03*
D20*
X165800000Y-174400000D03*
D19*
X165800000Y-173600000D03*
D20*
X165800000Y-175200000D03*
D19*
X165800000Y-176000000D03*
D12*
X128460000Y-181860000D03*
D13*
X131000000Y-181860000D03*
X128460000Y-184400000D03*
X131000000Y-184400000D03*
X128460000Y-186940000D03*
X131000000Y-186940000D03*
X128460000Y-189480000D03*
X131000000Y-189480000D03*
D12*
X129370000Y-154000000D03*
D13*
X129370000Y-156540000D03*
X126830000Y-154000000D03*
X126830000Y-156540000D03*
X124290000Y-154000000D03*
X124290000Y-156540000D03*
X121750000Y-154000000D03*
X121750000Y-156540000D03*
X119210000Y-154000000D03*
X119210000Y-156540000D03*
X116670000Y-154000000D03*
X116670000Y-156540000D03*
X114130000Y-154000000D03*
X114130000Y-156540000D03*
X111590000Y-154000000D03*
X111590000Y-156540000D03*
X109050000Y-154000000D03*
X109050000Y-156540000D03*
X106510000Y-154000000D03*
X106510000Y-156540000D03*
X103970000Y-154000000D03*
X103970000Y-156540000D03*
X101430000Y-154000000D03*
X101430000Y-156540000D03*
X98890000Y-154000000D03*
X98890000Y-156540000D03*
X96350000Y-154000000D03*
X96350000Y-156540000D03*
X93810000Y-154000000D03*
X93810000Y-156540000D03*
X91270000Y-154000000D03*
X91270000Y-156540000D03*
X88730000Y-154000000D03*
X88730000Y-156540000D03*
X86190000Y-154000000D03*
X86190000Y-156540000D03*
X83650000Y-154000000D03*
X83650000Y-156540000D03*
X81110000Y-154000000D03*
X81110000Y-156540000D03*
X78570000Y-154000000D03*
X78570000Y-156540000D03*
X76030000Y-154000000D03*
X76030000Y-156540000D03*
X73490000Y-154000000D03*
X73490000Y-156540000D03*
X70950000Y-154000000D03*
X70950000Y-156540000D03*
X68410000Y-154000000D03*
X68410000Y-156540000D03*
X65870000Y-154000000D03*
X65870000Y-156540000D03*
X63330000Y-154000000D03*
X63330000Y-156540000D03*
X60790000Y-154000000D03*
X60790000Y-156540000D03*
X58250000Y-154000000D03*
X58250000Y-156540000D03*
X55710000Y-154000000D03*
X55710000Y-156540000D03*
X53170000Y-154000000D03*
X53170000Y-156540000D03*
X50630000Y-154000000D03*
X50630000Y-156540000D03*
D16*
X169500000Y-177000000D03*
X167700000Y-177000000D03*
D12*
X197480000Y-202540000D03*
D13*
X197480000Y-200000000D03*
X200020000Y-202540000D03*
X200020000Y-200000000D03*
X202560000Y-202540000D03*
X202560000Y-200000000D03*
X205100000Y-202540000D03*
X205100000Y-200000000D03*
X207640000Y-202540000D03*
X207640000Y-200000000D03*
X210180000Y-202540000D03*
X210180000Y-200000000D03*
X212720000Y-202540000D03*
X212720000Y-200000000D03*
X215260000Y-202540000D03*
X215260000Y-200000000D03*
X217800000Y-202540000D03*
X217800000Y-200000000D03*
X220340000Y-202540000D03*
X220340000Y-200000000D03*
D23*
X254600000Y-181460000D03*
D24*
X254600000Y-184000000D03*
X254600000Y-186540000D03*
X254600000Y-189080000D03*
D15*
X197800000Y-179200000D03*
X197800000Y-177400000D03*
D25*
X209100000Y-191050000D03*
X209100000Y-192150000D03*
D15*
X252200000Y-188400000D03*
X252200000Y-190200000D03*
D16*
X261700000Y-193900000D03*
X259900000Y-193900000D03*
X223200000Y-196200000D03*
X225000000Y-196200000D03*
D25*
X207700000Y-191050000D03*
X207700000Y-192150000D03*
X210300000Y-191050000D03*
X210300000Y-192150000D03*
X213000000Y-191050000D03*
X213000000Y-192150000D03*
D26*
X219550000Y-186500000D03*
X220650000Y-186500000D03*
X219550000Y-184900000D03*
X220650000Y-184900000D03*
X219550000Y-181300000D03*
X220650000Y-181300000D03*
X219550000Y-178900000D03*
X220650000Y-178900000D03*
X219550000Y-177300000D03*
X220650000Y-177300000D03*
D25*
X213000000Y-171950000D03*
X213000000Y-170850000D03*
X210300000Y-171950000D03*
X210300000Y-170850000D03*
X207400000Y-171950000D03*
X207400000Y-170850000D03*
D26*
X200550000Y-177100000D03*
X199450000Y-177100000D03*
X200550000Y-184500000D03*
X199450000Y-184500000D03*
D25*
X205600000Y-191050000D03*
X205600000Y-192150000D03*
X211500000Y-191050000D03*
X211500000Y-192150000D03*
X215000000Y-191050000D03*
X215000000Y-192150000D03*
D26*
X219550000Y-183700000D03*
X220650000Y-183700000D03*
X219550000Y-180100000D03*
X220650000Y-180100000D03*
D25*
X215400000Y-171950000D03*
X215400000Y-170850000D03*
X209100000Y-171950000D03*
X209100000Y-170850000D03*
X205300000Y-171950000D03*
X205300000Y-170850000D03*
D26*
X200550000Y-178500000D03*
X199450000Y-178500000D03*
X200550000Y-180900000D03*
X199450000Y-180900000D03*
D27*
X252200000Y-186935000D03*
X252200000Y-183665000D03*
D28*
X203800000Y-189200000D03*
X204200000Y-189200000D03*
X204600000Y-189200000D03*
X205000000Y-189200000D03*
X205400000Y-189200000D03*
X205800000Y-189200000D03*
X206200000Y-189200000D03*
X206600000Y-189200000D03*
X207000000Y-189200000D03*
X207400000Y-189200000D03*
X207800000Y-189200000D03*
X208200000Y-189200000D03*
X208600000Y-189200000D03*
X209000000Y-189200000D03*
X209400000Y-189200000D03*
X209800000Y-189200000D03*
X210200000Y-189200000D03*
X210600000Y-189200000D03*
X211000000Y-189200000D03*
X211400000Y-189200000D03*
X211800000Y-189200000D03*
X212200000Y-189200000D03*
X212600000Y-189200000D03*
X213000000Y-189200000D03*
X213400000Y-189200000D03*
X213800000Y-189200000D03*
X214200000Y-189200000D03*
X214600000Y-189200000D03*
X215000000Y-189200000D03*
X215400000Y-189200000D03*
X215800000Y-189200000D03*
X216200000Y-189200000D03*
D29*
X217700000Y-187700000D03*
X217700000Y-187300000D03*
X217700000Y-186900000D03*
X217700000Y-186500000D03*
X217700000Y-186100000D03*
X217700000Y-185700000D03*
X217700000Y-185300000D03*
X217700000Y-184900000D03*
X217700000Y-184500000D03*
X217700000Y-184100000D03*
X217700000Y-183700000D03*
X217700000Y-183300000D03*
X217700000Y-182900000D03*
X217700000Y-182500000D03*
X217700000Y-182100000D03*
X217700000Y-181700000D03*
X217700000Y-181300000D03*
X217700000Y-180900000D03*
X217700000Y-180500000D03*
X217700000Y-180100000D03*
X217700000Y-179700000D03*
X217700000Y-179300000D03*
X217700000Y-178900000D03*
X217700000Y-178500000D03*
X217700000Y-178100000D03*
X217700000Y-177700000D03*
X217700000Y-177300000D03*
X217700000Y-176900000D03*
X217700000Y-176500000D03*
X217700000Y-176100000D03*
X217700000Y-175700000D03*
X217700000Y-175300000D03*
D28*
X216200000Y-173800000D03*
X215800000Y-173800000D03*
X215400000Y-173800000D03*
X215000000Y-173800000D03*
X214600000Y-173800000D03*
X214200000Y-173800000D03*
X213800000Y-173800000D03*
X213400000Y-173800000D03*
X213000000Y-173800000D03*
X212600000Y-173800000D03*
X212200000Y-173800000D03*
X211800000Y-173800000D03*
X211400000Y-173800000D03*
X211000000Y-173800000D03*
X210600000Y-173800000D03*
X210200000Y-173800000D03*
X209800000Y-173800000D03*
X209400000Y-173800000D03*
X209000000Y-173800000D03*
X208600000Y-173800000D03*
X208200000Y-173800000D03*
X207800000Y-173800000D03*
X207400000Y-173800000D03*
X207000000Y-173800000D03*
X206600000Y-173800000D03*
X206200000Y-173800000D03*
X205800000Y-173800000D03*
X205400000Y-173800000D03*
X205000000Y-173800000D03*
X204600000Y-173800000D03*
X204200000Y-173800000D03*
X203800000Y-173800000D03*
D29*
X202300000Y-175300000D03*
X202300000Y-175700000D03*
X202300000Y-176100000D03*
X202300000Y-176500000D03*
X202300000Y-176900000D03*
X202300000Y-177300000D03*
X202300000Y-177700000D03*
X202300000Y-178100000D03*
X202300000Y-178500000D03*
X202300000Y-178900000D03*
X202300000Y-179300000D03*
X202300000Y-179700000D03*
X202300000Y-180100000D03*
X202300000Y-180500000D03*
X202300000Y-180900000D03*
X202300000Y-181300000D03*
X202300000Y-181700000D03*
X202300000Y-182100000D03*
X202300000Y-182500000D03*
X202300000Y-182900000D03*
X202300000Y-183300000D03*
X202300000Y-183700000D03*
X202300000Y-184100000D03*
X202300000Y-184500000D03*
X202300000Y-184900000D03*
X202300000Y-185300000D03*
X202300000Y-185700000D03*
X202300000Y-186100000D03*
X202300000Y-186500000D03*
X202300000Y-186900000D03*
X202300000Y-187300000D03*
X202300000Y-187700000D03*
D30*
X210000000Y-181500000D03*
D31*
X210000000Y-181500000D03*
D32*
X223305000Y-188700000D03*
X222035000Y-188700000D03*
X220765000Y-188700000D03*
X219495000Y-188700000D03*
X219495000Y-194100000D03*
X220765000Y-194100000D03*
X222035000Y-194100000D03*
X223305000Y-194100000D03*
D16*
X196200000Y-194400000D03*
X198000000Y-194400000D03*
X198000000Y-186900000D03*
X196200000Y-186900000D03*
X198800000Y-175400000D03*
X200600000Y-175400000D03*
D15*
X208100000Y-194400000D03*
X208100000Y-196200000D03*
X210100000Y-194400000D03*
X210100000Y-196200000D03*
D16*
X217000000Y-193800000D03*
X215200000Y-193800000D03*
D15*
X222300000Y-181200000D03*
X222300000Y-179400000D03*
D16*
X252000000Y-192100000D03*
X253800000Y-192100000D03*
D33*
X257000000Y-186540000D03*
X257000000Y-184000000D03*
X258998980Y-184000000D03*
X258998980Y-186540000D03*
D34*
X261699000Y-191269480D03*
X261699000Y-179270520D03*
D26*
X200550000Y-186900000D03*
X199450000Y-186900000D03*
D15*
X194000000Y-192000000D03*
X194000000Y-190200000D03*
D21*
X203600000Y-195300000D03*
D22*
X205200000Y-195300000D03*
X204400000Y-195300000D03*
D21*
X206000000Y-195300000D03*
D22*
X204400000Y-193500000D03*
D21*
X203600000Y-193500000D03*
D22*
X205200000Y-193500000D03*
D21*
X206000000Y-193500000D03*
D16*
X219300000Y-175700000D03*
X221100000Y-175700000D03*
X219300000Y-173700000D03*
X221100000Y-173700000D03*
D15*
X195400000Y-179200000D03*
X195400000Y-177400000D03*
X197800000Y-180900000D03*
X197800000Y-182700000D03*
D35*
X194939600Y-182816000D03*
X196260400Y-182816000D03*
X195600000Y-182816000D03*
X196260400Y-180784000D03*
X194939600Y-180784000D03*
D36*
X198200000Y-191970000D03*
X198200000Y-189430000D03*
X196000000Y-189430000D03*
X196000000Y-191970000D03*
D37*
X195249760Y-208249960D03*
X195900000Y-208249960D03*
X196550240Y-208249960D03*
X196550240Y-206350040D03*
X195900000Y-206350040D03*
X195249760Y-206350040D03*
D15*
X193500000Y-206400000D03*
X193500000Y-208200000D03*
X193500000Y-204700000D03*
X193500000Y-202900000D03*
X198000000Y-206400000D03*
X198000000Y-208200000D03*
D19*
X164000000Y-181600000D03*
D20*
X164000000Y-183200000D03*
X164000000Y-182400000D03*
D19*
X164000000Y-184000000D03*
D20*
X165800000Y-182400000D03*
D19*
X165800000Y-181600000D03*
D20*
X165800000Y-183200000D03*
D19*
X165800000Y-184000000D03*
X164000000Y-178000000D03*
D20*
X164000000Y-179600000D03*
X164000000Y-178800000D03*
D19*
X164000000Y-180400000D03*
D20*
X165800000Y-178800000D03*
D19*
X165800000Y-178000000D03*
D20*
X165800000Y-179600000D03*
D19*
X165800000Y-180400000D03*
D15*
X163100000Y-198000000D03*
X163100000Y-199800000D03*
X161100000Y-198000000D03*
X161100000Y-199800000D03*
X148200000Y-198900000D03*
X148200000Y-200700000D03*
D38*
X159100000Y-199800000D03*
X159100000Y-199300000D03*
X159100000Y-198800000D03*
X159100000Y-198300000D03*
X159100000Y-197800000D03*
X154700000Y-197800000D03*
X154700000Y-198300000D03*
X154700000Y-198800000D03*
X154700000Y-199300000D03*
X154700000Y-199800000D03*
D36*
X152400000Y-200840000D03*
X152400000Y-198300000D03*
X150200000Y-198300000D03*
X150200000Y-200840000D03*
D16*
X152200000Y-203200000D03*
X150400000Y-203200000D03*
D15*
X154200000Y-194300000D03*
X154200000Y-196100000D03*
X150200000Y-196100000D03*
X150200000Y-194300000D03*
X152200000Y-196100000D03*
X152200000Y-194300000D03*
X156500000Y-196100000D03*
X156500000Y-194300000D03*
X240800000Y-170900000D03*
X240800000Y-169100000D03*
D16*
X251000000Y-162300000D03*
X252800000Y-162300000D03*
X254500000Y-162300000D03*
X256300000Y-162300000D03*
X254500000Y-166300000D03*
X256300000Y-166300000D03*
X251000000Y-166300000D03*
X252800000Y-166300000D03*
X251000000Y-164300000D03*
X252800000Y-164300000D03*
X247100000Y-170300000D03*
X248900000Y-170300000D03*
X244500000Y-170300000D03*
X242700000Y-170300000D03*
X242700000Y-161100000D03*
X244500000Y-161100000D03*
D15*
X238800000Y-163100000D03*
X238800000Y-161300000D03*
X240800000Y-163100000D03*
X240800000Y-161300000D03*
X240800000Y-166600000D03*
X240800000Y-164800000D03*
X238800000Y-166600000D03*
X238800000Y-164800000D03*
X255100000Y-208000000D03*
X255100000Y-206200000D03*
X251400000Y-198600000D03*
X251400000Y-196800000D03*
X235000000Y-198600000D03*
X235000000Y-196800000D03*
D39*
X250400000Y-200898000D03*
D40*
X250400000Y-207502000D03*
X252686000Y-207502000D03*
X248114000Y-207502000D03*
D39*
X234000000Y-200898000D03*
D40*
X234000000Y-207502000D03*
X236286000Y-207502000D03*
X231714000Y-207502000D03*
D15*
X238700000Y-208000000D03*
X238700000Y-206200000D03*
X233000000Y-198600000D03*
X233000000Y-196800000D03*
X249400000Y-198600000D03*
X249400000Y-196800000D03*
X242200000Y-189700000D03*
X242200000Y-187900000D03*
X229000000Y-191700000D03*
X229000000Y-189900000D03*
D41*
X240550000Y-187700000D03*
X239600000Y-187700000D03*
X238650000Y-187700000D03*
X238650000Y-189900000D03*
X240550000Y-189900000D03*
D42*
X234000000Y-185900000D03*
X234000000Y-191700000D03*
D16*
X238800000Y-191700000D03*
X240600000Y-191700000D03*
X242300000Y-191700000D03*
X244100000Y-191700000D03*
D15*
X179700000Y-208000000D03*
X179700000Y-206200000D03*
X176000000Y-198600000D03*
X176000000Y-196800000D03*
X174000000Y-198600000D03*
X174000000Y-196800000D03*
D39*
X175000000Y-200898000D03*
D40*
X175000000Y-207502000D03*
X177286000Y-207502000D03*
X172714000Y-207502000D03*
D43*
X267500000Y-196400000D03*
D44*
X263500000Y-202400000D03*
X263500000Y-199400000D03*
X266500000Y-202400000D03*
X266500000Y-199400000D03*
D43*
X267440000Y-205400000D03*
D16*
X186600000Y-204000000D03*
X188400000Y-204000000D03*
D45*
X186730380Y-208199820D03*
D46*
X188449960Y-208199820D03*
X188449960Y-206000180D03*
X186550040Y-206000180D03*
D15*
X184600000Y-205300000D03*
X184600000Y-207100000D03*
X190300000Y-208200000D03*
X190300000Y-206400000D03*
D16*
X218700000Y-169700000D03*
X216900000Y-169700000D03*
X218700000Y-171700000D03*
X216900000Y-171700000D03*
X100494668Y-179200000D03*
X98694668Y-179200000D03*
X100500000Y-183200000D03*
X98700000Y-183200000D03*
X100500000Y-181200000D03*
X98700000Y-181200000D03*
X97000000Y-181200000D03*
X95200000Y-181200000D03*
X117200000Y-191500000D03*
X119000000Y-191500000D03*
D15*
X103900000Y-187000000D03*
X103900000Y-188800000D03*
X112100000Y-187000000D03*
X112100000Y-188800000D03*
X116100000Y-173900000D03*
X116100000Y-172100000D03*
X103600000Y-173900000D03*
X103600000Y-172100000D03*
X101600000Y-173900000D03*
X101600000Y-172100000D03*
D16*
X100500000Y-185200000D03*
X98700000Y-185200000D03*
D15*
X116100000Y-187000000D03*
X116100000Y-188800000D03*
X112100000Y-173900000D03*
X112100000Y-172100000D03*
X97600000Y-172100000D03*
X97600000Y-173900000D03*
D16*
X95200000Y-177200000D03*
X97000000Y-177200000D03*
D47*
X107850000Y-180500000D03*
D48*
X102850000Y-176250000D03*
X102850000Y-176750000D03*
X102850000Y-177250000D03*
X102850000Y-177750000D03*
X102850000Y-178250000D03*
X102850000Y-178750000D03*
X102850000Y-179250000D03*
X102850000Y-179750000D03*
X102850000Y-180250000D03*
X102850000Y-180750000D03*
X102850000Y-181250000D03*
X102850000Y-181750000D03*
X102850000Y-182250000D03*
X102850000Y-182750000D03*
X102850000Y-183250000D03*
X102850000Y-183750000D03*
X102850000Y-184250000D03*
X102850000Y-184750000D03*
D49*
X103600000Y-185500000D03*
X104100000Y-185500000D03*
X104600000Y-185500000D03*
X105100000Y-185500000D03*
X105600000Y-185500000D03*
X106100000Y-185500000D03*
X106600000Y-185500000D03*
X107100000Y-185500000D03*
X107600000Y-185500000D03*
X108100000Y-185500000D03*
X108600000Y-185500000D03*
X109100000Y-185500000D03*
X109600000Y-185500000D03*
X110100000Y-185500000D03*
X110600000Y-185500000D03*
X111100000Y-185500000D03*
X111600000Y-185500000D03*
X112100000Y-185500000D03*
D48*
X112850000Y-184750000D03*
X112850000Y-184250000D03*
X112850000Y-183750000D03*
X112850000Y-183250000D03*
X112850000Y-182750000D03*
X112850000Y-182250000D03*
X112850000Y-181750000D03*
X112850000Y-181250000D03*
X112850000Y-180750000D03*
X112850000Y-180250000D03*
X112850000Y-179750000D03*
X112850000Y-179250000D03*
X112850000Y-178750000D03*
X112850000Y-178250000D03*
X112850000Y-177750000D03*
X112850000Y-177250000D03*
X112850000Y-176750000D03*
X112850000Y-176250000D03*
D49*
X112100000Y-175500000D03*
X111600000Y-175500000D03*
X111100000Y-175500000D03*
X110600000Y-175500000D03*
X110100000Y-175500000D03*
X109600000Y-175500000D03*
X109100000Y-175500000D03*
X108600000Y-175500000D03*
X108100000Y-175500000D03*
X107600000Y-175500000D03*
X107100000Y-175500000D03*
X106600000Y-175500000D03*
X106100000Y-175500000D03*
X105600000Y-175500000D03*
X105100000Y-175500000D03*
X104600000Y-175500000D03*
X104100000Y-175500000D03*
X103600000Y-175500000D03*
D50*
X107850000Y-191495000D03*
X107850000Y-192765000D03*
X107850000Y-194035000D03*
X107850000Y-195305000D03*
X115150000Y-195305000D03*
X115150000Y-194035000D03*
X115150000Y-192765000D03*
X115150000Y-191495000D03*
D51*
X119300000Y-194300000D03*
D52*
X119300000Y-196840000D03*
D53*
X101286000Y-188000000D03*
D54*
X99000000Y-194350000D03*
D53*
X96714000Y-188000000D03*
D16*
X95200000Y-185200000D03*
X97000000Y-185200000D03*
X97000000Y-183200000D03*
X95200000Y-183200000D03*
D15*
X118100000Y-187000000D03*
X118100000Y-188800000D03*
X112000000Y-199000000D03*
X112000000Y-197200000D03*
X114000000Y-199000000D03*
X114000000Y-197200000D03*
D16*
X105900000Y-192400000D03*
X104100000Y-192400000D03*
X105900000Y-194400000D03*
X104100000Y-194400000D03*
D15*
X99600000Y-173900000D03*
X99600000Y-172100000D03*
D16*
X96994668Y-179200000D03*
X95194668Y-179200000D03*
D15*
X114100000Y-187000000D03*
X114100000Y-188800000D03*
X114100000Y-173900000D03*
X114100000Y-172100000D03*
D12*
X109240000Y-200360000D03*
D13*
X109240000Y-202900000D03*
X106700000Y-200360000D03*
X106700000Y-202900000D03*
X104160000Y-200360000D03*
X104160000Y-202900000D03*
X101620000Y-200360000D03*
X101620000Y-202900000D03*
X99080000Y-200360000D03*
X99080000Y-202900000D03*
D15*
X114000000Y-202500000D03*
X114000000Y-200700000D03*
X112000000Y-202500000D03*
X112000000Y-200700000D03*
D19*
X134200000Y-187600000D03*
D20*
X134200000Y-189200000D03*
X134200000Y-188400000D03*
D19*
X134200000Y-190000000D03*
D20*
X136000000Y-188400000D03*
D19*
X136000000Y-187600000D03*
D20*
X136000000Y-189200000D03*
D19*
X136000000Y-190000000D03*
X134200000Y-181600000D03*
D20*
X134200000Y-183200000D03*
X134200000Y-182400000D03*
D19*
X134200000Y-184000000D03*
D20*
X136000000Y-182400000D03*
D19*
X136000000Y-181600000D03*
D20*
X136000000Y-183200000D03*
D19*
X136000000Y-184000000D03*
X134200000Y-176700000D03*
D20*
X134200000Y-178300000D03*
X134200000Y-177500000D03*
D19*
X134200000Y-179100000D03*
D20*
X136000000Y-177500000D03*
D19*
X136000000Y-176700000D03*
D20*
X136000000Y-178300000D03*
D19*
X136000000Y-179100000D03*
D21*
X142400000Y-194900000D03*
D22*
X140800000Y-194900000D03*
X141600000Y-194900000D03*
D21*
X140000000Y-194900000D03*
D22*
X141600000Y-196700000D03*
D21*
X142400000Y-196700000D03*
D22*
X140800000Y-196700000D03*
D21*
X140000000Y-196700000D03*
X146200000Y-194900000D03*
D22*
X144600000Y-194900000D03*
X145400000Y-194900000D03*
D21*
X143800000Y-194900000D03*
D22*
X145400000Y-196700000D03*
D21*
X146200000Y-196700000D03*
D22*
X144600000Y-196700000D03*
D21*
X143800000Y-196700000D03*
D16*
X134200000Y-175100000D03*
X136000000Y-175100000D03*
X100500000Y-177200000D03*
X98700000Y-177200000D03*
X117700000Y-176200000D03*
X115900000Y-176200000D03*
X117700000Y-181000000D03*
X115900000Y-181000000D03*
X117700000Y-183400000D03*
X115900000Y-183400000D03*
X117700000Y-178600000D03*
X115900000Y-178600000D03*
D15*
X148200000Y-196100000D03*
X148200000Y-194300000D03*
X60200000Y-171700000D03*
X60200000Y-169900000D03*
D11*
X66150000Y-168425000D03*
X66150000Y-167775000D03*
X66150000Y-167125000D03*
X66150000Y-166475000D03*
X66150000Y-165825000D03*
X66150000Y-165175000D03*
X66150000Y-164525000D03*
X66150000Y-163875000D03*
X66150000Y-163225000D03*
X66150000Y-162575000D03*
X60250000Y-162575000D03*
X60250000Y-163225000D03*
X60250000Y-163875000D03*
X60250000Y-164525000D03*
X60250000Y-165175000D03*
X60250000Y-165825000D03*
X60250000Y-166475000D03*
X60250000Y-167125000D03*
X60250000Y-167775000D03*
X60250000Y-168425000D03*
D15*
X73500000Y-161000000D03*
X73500000Y-162800000D03*
X71500000Y-161000000D03*
X71500000Y-162800000D03*
X57700000Y-160900000D03*
X57700000Y-162700000D03*
X55700000Y-160900000D03*
X55700000Y-162700000D03*
D16*
X68000000Y-164900000D03*
X69800000Y-164900000D03*
X68000000Y-166900000D03*
X69800000Y-166900000D03*
D15*
X62800000Y-170500000D03*
X62800000Y-172300000D03*
X64800000Y-170500000D03*
X64800000Y-172300000D03*
X57700000Y-167900000D03*
X57700000Y-169700000D03*
X55700000Y-167900000D03*
X55700000Y-169700000D03*
X57700000Y-164400000D03*
X57700000Y-166200000D03*
X55700000Y-164400000D03*
X55700000Y-166200000D03*
D44*
X263730000Y-162285000D03*
X266270000Y-163555000D03*
X263730000Y-164825000D03*
X266270000Y-166095000D03*
X263730000Y-167365000D03*
X266270000Y-168635000D03*
X263730000Y-169905000D03*
X266270000Y-171175000D03*
X263730000Y-172445000D03*
X266270000Y-173715000D03*
D55*
X265530000Y-160885000D03*
D56*
X77900000Y-63400000D03*
D57*
X77900000Y-61400000D03*
D15*
X136000000Y-69700000D03*
X136000000Y-67900000D03*
X138000000Y-67900000D03*
X138000000Y-69700000D03*
D58*
X83700000Y-88905000D03*
X83700000Y-87635000D03*
X83700000Y-86365000D03*
X83700000Y-85095000D03*
X78300000Y-85095000D03*
X78300000Y-86365000D03*
X78300000Y-87635000D03*
X78300000Y-88905000D03*
D15*
X58000000Y-87100000D03*
X58000000Y-88900000D03*
D56*
X63900000Y-63400000D03*
D57*
X63900000Y-61400000D03*
D58*
X96300000Y-62395000D03*
X96300000Y-63665000D03*
X96300000Y-64935000D03*
X96300000Y-66205000D03*
X101700000Y-66205000D03*
X101700000Y-64935000D03*
X101700000Y-63665000D03*
X101700000Y-62395000D03*
D14*
X35000000Y-45800000D03*
X145000000Y-45800000D03*
X145000000Y-145000000D03*
X35000000Y-145000000D03*
D15*
X86000000Y-87100000D03*
X86000000Y-88900000D03*
X86000000Y-70100000D03*
X86000000Y-71900000D03*
X82000000Y-92400000D03*
X82000000Y-90600000D03*
X82000000Y-75400000D03*
X82000000Y-73600000D03*
X70400000Y-106700000D03*
X70400000Y-108500000D03*
X67600000Y-105000000D03*
X67600000Y-103200000D03*
X76000000Y-83600000D03*
X76000000Y-85400000D03*
X76000000Y-66600000D03*
X76000000Y-68400000D03*
X76000000Y-92400000D03*
X76000000Y-90600000D03*
X76000000Y-75400000D03*
X76000000Y-73600000D03*
X72000000Y-87100000D03*
X72000000Y-88900000D03*
X72000000Y-70100000D03*
X72000000Y-71900000D03*
X67600000Y-108500000D03*
X67600000Y-106700000D03*
X68000000Y-92400000D03*
X68000000Y-90600000D03*
X68000000Y-75400000D03*
X68000000Y-73600000D03*
X64800000Y-99700000D03*
X64800000Y-101500000D03*
X61600000Y-101500000D03*
X61600000Y-99700000D03*
X62000000Y-83600000D03*
X62000000Y-85400000D03*
X62000000Y-66600000D03*
X62000000Y-68400000D03*
X61600000Y-105000000D03*
X61600000Y-103200000D03*
X62000000Y-92400000D03*
X62000000Y-90600000D03*
X62000000Y-75400000D03*
X62000000Y-73600000D03*
X58400000Y-105000000D03*
X58400000Y-103200000D03*
X58000000Y-70100000D03*
X58000000Y-71900000D03*
X54000000Y-92400000D03*
X54000000Y-90600000D03*
X54000000Y-75400000D03*
X54000000Y-73600000D03*
X52400000Y-106700000D03*
X52400000Y-108500000D03*
X58400000Y-101500000D03*
X58400000Y-99700000D03*
X55200000Y-99700000D03*
X55200000Y-101500000D03*
X48000000Y-83600000D03*
X48000000Y-85400000D03*
X48000000Y-66600000D03*
X48000000Y-68400000D03*
X53200000Y-114900000D03*
X53200000Y-116700000D03*
X51200000Y-114900000D03*
X51200000Y-116700000D03*
X48000000Y-92400000D03*
X48000000Y-90600000D03*
X48000000Y-75400000D03*
X48000000Y-73600000D03*
X44000000Y-87100000D03*
X44000000Y-88900000D03*
X44000000Y-70100000D03*
X44000000Y-71900000D03*
X40000000Y-92400000D03*
X40000000Y-90600000D03*
X40000000Y-75400000D03*
X40000000Y-73600000D03*
X64800000Y-105000000D03*
X64800000Y-103200000D03*
X55200000Y-105000000D03*
X55200000Y-103200000D03*
X53200000Y-111400000D03*
X53200000Y-113200000D03*
X52400000Y-105000000D03*
X52400000Y-103200000D03*
X49900000Y-107600000D03*
X49900000Y-109400000D03*
X34000000Y-83600000D03*
X34000000Y-85400000D03*
X34000000Y-66600000D03*
X34000000Y-68400000D03*
X34000000Y-92400000D03*
X34000000Y-90600000D03*
X34000000Y-75400000D03*
X34000000Y-73600000D03*
X76000000Y-88900000D03*
X76000000Y-87100000D03*
X76000000Y-71900000D03*
X76000000Y-70100000D03*
X62000000Y-88900000D03*
X62000000Y-87100000D03*
X62000000Y-71900000D03*
X62000000Y-70100000D03*
X48000000Y-88900000D03*
X48000000Y-87100000D03*
X48000000Y-71900000D03*
X48000000Y-70100000D03*
X34000000Y-88900000D03*
X34000000Y-87100000D03*
X34000000Y-71900000D03*
X34000000Y-70100000D03*
D58*
X83700000Y-71905000D03*
X83700000Y-70635000D03*
X83700000Y-69365000D03*
X83700000Y-68095000D03*
X78300000Y-68095000D03*
X78300000Y-69365000D03*
X78300000Y-70635000D03*
X78300000Y-71905000D03*
X69700000Y-88905000D03*
X69700000Y-87635000D03*
X69700000Y-86365000D03*
X69700000Y-85095000D03*
X64300000Y-85095000D03*
X64300000Y-86365000D03*
X64300000Y-87635000D03*
X64300000Y-88905000D03*
X69700000Y-71905000D03*
X69700000Y-70635000D03*
X69700000Y-69365000D03*
X69700000Y-68095000D03*
X64300000Y-68095000D03*
X64300000Y-69365000D03*
X64300000Y-70635000D03*
X64300000Y-71905000D03*
X55700000Y-88905000D03*
X55700000Y-87635000D03*
X55700000Y-86365000D03*
X55700000Y-85095000D03*
X50300000Y-85095000D03*
X50300000Y-86365000D03*
X50300000Y-87635000D03*
X50300000Y-88905000D03*
X55700000Y-71905000D03*
X55700000Y-70635000D03*
X55700000Y-69365000D03*
X55700000Y-68095000D03*
X50300000Y-68095000D03*
X50300000Y-69365000D03*
X50300000Y-70635000D03*
X50300000Y-71905000D03*
X41700000Y-88905000D03*
X41700000Y-87635000D03*
X41700000Y-86365000D03*
X41700000Y-85095000D03*
X36300000Y-85095000D03*
X36300000Y-86365000D03*
X36300000Y-87635000D03*
X36300000Y-88905000D03*
X41700000Y-71905000D03*
X41700000Y-70635000D03*
X41700000Y-69365000D03*
X41700000Y-68095000D03*
X36300000Y-68095000D03*
X36300000Y-69365000D03*
X36300000Y-70635000D03*
X36300000Y-71905000D03*
D15*
X84000000Y-90600000D03*
X84000000Y-92400000D03*
X84000000Y-73600000D03*
X84000000Y-75400000D03*
D16*
X83900000Y-83200000D03*
X82100000Y-83200000D03*
X83900000Y-66200000D03*
X82100000Y-66200000D03*
D15*
X86000000Y-92400000D03*
X86000000Y-90600000D03*
X86000000Y-75400000D03*
X86000000Y-73600000D03*
X80000000Y-90600000D03*
X80000000Y-92400000D03*
X80000000Y-73600000D03*
X80000000Y-75400000D03*
D16*
X78100000Y-83200000D03*
X79900000Y-83200000D03*
X78100000Y-66200000D03*
X79900000Y-66200000D03*
D15*
X78000000Y-92400000D03*
X78000000Y-90600000D03*
X78000000Y-75400000D03*
X78000000Y-73600000D03*
D16*
X75500000Y-107900000D03*
X73700000Y-107900000D03*
X79000000Y-107900000D03*
X77200000Y-107900000D03*
X75500000Y-109900000D03*
X73700000Y-109900000D03*
X79000000Y-109900000D03*
X77200000Y-109900000D03*
X75500000Y-111900000D03*
X73700000Y-111900000D03*
X71700000Y-99200000D03*
X69900000Y-99200000D03*
D15*
X70000000Y-90600000D03*
X70000000Y-92400000D03*
X70000000Y-73600000D03*
X70000000Y-75400000D03*
D16*
X69900000Y-83200000D03*
X68100000Y-83200000D03*
X69900000Y-66200000D03*
X68100000Y-66200000D03*
D15*
X72000000Y-92400000D03*
X72000000Y-90600000D03*
X72000000Y-75400000D03*
X72000000Y-73600000D03*
D16*
X79000000Y-111900000D03*
X77200000Y-111900000D03*
X75500000Y-115900000D03*
X73700000Y-115900000D03*
X79000000Y-115900000D03*
X77200000Y-115900000D03*
D15*
X66600000Y-96100000D03*
X66600000Y-94300000D03*
X66000000Y-90600000D03*
X66000000Y-92400000D03*
X66000000Y-73600000D03*
X66000000Y-75400000D03*
D16*
X64100000Y-83200000D03*
X65900000Y-83200000D03*
X64100000Y-66200000D03*
X65900000Y-66200000D03*
D15*
X64000000Y-92400000D03*
X64000000Y-90600000D03*
X64000000Y-75400000D03*
X64000000Y-73600000D03*
D16*
X73700000Y-113900000D03*
X75500000Y-113900000D03*
X77200000Y-113900000D03*
X79000000Y-113900000D03*
X73700000Y-117900000D03*
X75500000Y-117900000D03*
D15*
X53400000Y-96100000D03*
X53400000Y-94300000D03*
D16*
X59900000Y-117300000D03*
X58100000Y-117300000D03*
D15*
X56000000Y-90600000D03*
X56000000Y-92400000D03*
X56000000Y-73600000D03*
X56000000Y-75400000D03*
D16*
X55900000Y-83200000D03*
X54100000Y-83200000D03*
X55900000Y-66200000D03*
X54100000Y-66200000D03*
D15*
X58000000Y-92400000D03*
X58000000Y-90600000D03*
X58000000Y-75400000D03*
X58000000Y-73600000D03*
D16*
X48300000Y-99200000D03*
X50100000Y-99200000D03*
D15*
X52000000Y-90600000D03*
X52000000Y-92400000D03*
X52000000Y-73600000D03*
X52000000Y-75400000D03*
D16*
X50100000Y-83200000D03*
X51900000Y-83200000D03*
X50100000Y-66200000D03*
X51900000Y-66200000D03*
D15*
X50000000Y-92400000D03*
X50000000Y-90600000D03*
X50000000Y-75400000D03*
X50000000Y-73600000D03*
X42000000Y-90600000D03*
X42000000Y-92400000D03*
X42000000Y-73600000D03*
X42000000Y-75400000D03*
D16*
X41900000Y-83200000D03*
X40100000Y-83200000D03*
X41900000Y-66200000D03*
X40100000Y-66200000D03*
D15*
X44000000Y-92400000D03*
X44000000Y-90600000D03*
X44000000Y-75400000D03*
X44000000Y-73600000D03*
X38000000Y-90600000D03*
X38000000Y-92400000D03*
X38000000Y-73600000D03*
X38000000Y-75400000D03*
D16*
X36100000Y-83200000D03*
X37900000Y-83200000D03*
X36100000Y-66200000D03*
X37900000Y-66200000D03*
D15*
X36000000Y-92400000D03*
X36000000Y-90600000D03*
X36000000Y-75400000D03*
X36000000Y-73600000D03*
D56*
X70400000Y-103000000D03*
D57*
X72400000Y-103000000D03*
D56*
X56200000Y-96100000D03*
D57*
X58200000Y-96100000D03*
D56*
X49600000Y-103000000D03*
D57*
X47600000Y-103000000D03*
D56*
X63800000Y-96100000D03*
D57*
X61800000Y-96100000D03*
D15*
X136000000Y-77000000D03*
X136000000Y-78800000D03*
X136000000Y-58900000D03*
X136000000Y-60700000D03*
X144000000Y-78800000D03*
X144000000Y-77000000D03*
X144000000Y-60700000D03*
X144000000Y-58900000D03*
X144000000Y-86000000D03*
X144000000Y-87800000D03*
X144000000Y-67900000D03*
X144000000Y-69700000D03*
X136000000Y-87800000D03*
X136000000Y-86000000D03*
D16*
X111300000Y-106600000D03*
X109500000Y-106600000D03*
D15*
X122000000Y-77000000D03*
X122000000Y-78800000D03*
X122000000Y-58900000D03*
X122000000Y-60700000D03*
X130000000Y-78800000D03*
X130000000Y-77000000D03*
X130000000Y-60700000D03*
X130000000Y-58900000D03*
X114100000Y-102100000D03*
X114100000Y-100300000D03*
X130000000Y-86000000D03*
X130000000Y-87800000D03*
X130000000Y-67900000D03*
X130000000Y-69700000D03*
X122000000Y-87800000D03*
X122000000Y-86000000D03*
X122000000Y-69700000D03*
X122000000Y-67900000D03*
X116756250Y-97743750D03*
X116756250Y-95943750D03*
X108000000Y-77000000D03*
X108000000Y-78800000D03*
X108000000Y-58900000D03*
X108000000Y-60700000D03*
X116000000Y-78800000D03*
X116000000Y-77000000D03*
X116000000Y-60700000D03*
X116000000Y-58900000D03*
D16*
X119056250Y-97543750D03*
X120856250Y-97543750D03*
D15*
X116000000Y-86000000D03*
X116000000Y-87800000D03*
X116000000Y-67900000D03*
X116000000Y-69700000D03*
X108000000Y-87800000D03*
X108000000Y-86000000D03*
X108000000Y-69700000D03*
X108000000Y-67900000D03*
X123156250Y-97743750D03*
X123156250Y-95943750D03*
X94000000Y-77000000D03*
X94000000Y-78800000D03*
X94000000Y-58900000D03*
X94000000Y-60700000D03*
X102000000Y-78800000D03*
X102000000Y-77000000D03*
X102000000Y-60700000D03*
X102000000Y-58900000D03*
X126100000Y-102100000D03*
X126100000Y-100300000D03*
X102000000Y-86000000D03*
X102000000Y-87800000D03*
X102000000Y-67900000D03*
X102000000Y-69700000D03*
X94000000Y-87800000D03*
X94000000Y-86000000D03*
X94000000Y-67900000D03*
X94000000Y-69700000D03*
D16*
X114800000Y-104600000D03*
X113000000Y-104600000D03*
D15*
X146000000Y-80500000D03*
X146000000Y-82300000D03*
X146000000Y-62400000D03*
X146000000Y-64200000D03*
X132000000Y-80500000D03*
X132000000Y-82300000D03*
X132000000Y-62400000D03*
X132000000Y-64200000D03*
X118000000Y-80500000D03*
X118000000Y-82300000D03*
X118000000Y-62400000D03*
X118000000Y-64200000D03*
X104000000Y-80500000D03*
X104000000Y-82300000D03*
X104000000Y-62400000D03*
X104000000Y-64200000D03*
D58*
X138300000Y-80495000D03*
X138300000Y-81765000D03*
X138300000Y-83035000D03*
X138300000Y-84305000D03*
X143700000Y-84305000D03*
X143700000Y-83035000D03*
X143700000Y-81765000D03*
X143700000Y-80495000D03*
X138300000Y-62395000D03*
X138300000Y-63665000D03*
X138300000Y-64935000D03*
X138300000Y-66205000D03*
X143700000Y-66205000D03*
X143700000Y-64935000D03*
X143700000Y-63665000D03*
X143700000Y-62395000D03*
X124300000Y-80495000D03*
X124300000Y-81765000D03*
X124300000Y-83035000D03*
X124300000Y-84305000D03*
X129700000Y-84305000D03*
X129700000Y-83035000D03*
X129700000Y-81765000D03*
X129700000Y-80495000D03*
X124300000Y-62395000D03*
X124300000Y-63665000D03*
X124300000Y-64935000D03*
X124300000Y-66205000D03*
X129700000Y-66205000D03*
X129700000Y-64935000D03*
X129700000Y-63665000D03*
X129700000Y-62395000D03*
X110300000Y-80495000D03*
X110300000Y-81765000D03*
X110300000Y-83035000D03*
X110300000Y-84305000D03*
X115700000Y-84305000D03*
X115700000Y-83035000D03*
X115700000Y-81765000D03*
X115700000Y-80495000D03*
X110300000Y-62395000D03*
X110300000Y-63665000D03*
X110300000Y-64935000D03*
X110300000Y-66205000D03*
X115700000Y-66205000D03*
X115700000Y-64935000D03*
X115700000Y-63665000D03*
X115700000Y-62395000D03*
X96300000Y-80495000D03*
X96300000Y-81765000D03*
X96300000Y-83035000D03*
X96300000Y-84305000D03*
X101700000Y-84305000D03*
X101700000Y-83035000D03*
X101700000Y-81765000D03*
X101700000Y-80495000D03*
D15*
X140000000Y-86000000D03*
X140000000Y-87800000D03*
X140000000Y-77000000D03*
X140000000Y-78800000D03*
X142000000Y-67900000D03*
X142000000Y-69700000D03*
X140000000Y-58900000D03*
X140000000Y-60700000D03*
X138000000Y-78800000D03*
X138000000Y-77000000D03*
X138000000Y-60700000D03*
X138000000Y-58900000D03*
X146000000Y-78800000D03*
X146000000Y-77000000D03*
X146000000Y-60700000D03*
X146000000Y-58900000D03*
X142000000Y-78800000D03*
X142000000Y-77000000D03*
X142000000Y-60700000D03*
X142000000Y-58900000D03*
X142000000Y-86000000D03*
X142000000Y-87800000D03*
X138000000Y-86000000D03*
X138000000Y-87800000D03*
X140000000Y-67900000D03*
X140000000Y-69700000D03*
X146000000Y-87800000D03*
X146000000Y-86000000D03*
X146000000Y-69700000D03*
X146000000Y-67900000D03*
X126000000Y-86000000D03*
X126000000Y-87800000D03*
X126000000Y-77000000D03*
X126000000Y-78800000D03*
X128000000Y-67900000D03*
X128000000Y-69700000D03*
X126000000Y-58900000D03*
X126000000Y-60700000D03*
X124000000Y-78800000D03*
X124000000Y-77000000D03*
X124000000Y-60700000D03*
X124000000Y-58900000D03*
D16*
X110400000Y-97100000D03*
X108600000Y-97100000D03*
D15*
X132000000Y-78800000D03*
X132000000Y-77000000D03*
X132000000Y-60700000D03*
X132000000Y-58900000D03*
X128000000Y-78800000D03*
X128000000Y-77000000D03*
X128000000Y-60700000D03*
X128000000Y-58900000D03*
X128000000Y-86000000D03*
X128000000Y-87800000D03*
X124000000Y-86000000D03*
X124000000Y-87800000D03*
X126000000Y-67900000D03*
X126000000Y-69700000D03*
X124000000Y-67900000D03*
X124000000Y-69700000D03*
X132000000Y-87800000D03*
X132000000Y-86000000D03*
X132000000Y-69700000D03*
X132000000Y-67900000D03*
X113100000Y-90300000D03*
X113100000Y-92100000D03*
X112000000Y-86000000D03*
X112000000Y-87800000D03*
X112000000Y-77000000D03*
X112000000Y-78800000D03*
X114000000Y-67900000D03*
X114000000Y-69700000D03*
X112000000Y-58900000D03*
X112000000Y-60700000D03*
X110000000Y-78800000D03*
X110000000Y-77000000D03*
X110000000Y-60700000D03*
X110000000Y-58900000D03*
X118000000Y-78800000D03*
X118000000Y-77000000D03*
X118000000Y-60700000D03*
X118000000Y-58900000D03*
X114000000Y-78800000D03*
X114000000Y-77000000D03*
X114000000Y-60700000D03*
X114000000Y-58900000D03*
X114000000Y-86000000D03*
X114000000Y-87800000D03*
X110000000Y-86000000D03*
X110000000Y-87800000D03*
X112000000Y-67900000D03*
X112000000Y-69700000D03*
X110000000Y-67900000D03*
X110000000Y-69700000D03*
X127000000Y-90300000D03*
X127000000Y-92100000D03*
X118000000Y-87800000D03*
X118000000Y-86000000D03*
X118000000Y-69700000D03*
X118000000Y-67900000D03*
X98000000Y-86000000D03*
X98000000Y-87800000D03*
X98000000Y-77000000D03*
X98000000Y-78800000D03*
X100000000Y-67900000D03*
X100000000Y-69700000D03*
D16*
X129600000Y-97100000D03*
X131400000Y-97100000D03*
D15*
X96000000Y-78800000D03*
X96000000Y-77000000D03*
X96000000Y-60700000D03*
X96000000Y-58900000D03*
X122400000Y-108400000D03*
X122400000Y-110200000D03*
X126400000Y-108400000D03*
X126400000Y-110200000D03*
X124400000Y-108400000D03*
X124400000Y-110200000D03*
D16*
X125700000Y-106500000D03*
X127500000Y-106500000D03*
X125700000Y-104500000D03*
X127500000Y-104500000D03*
D15*
X104000000Y-78800000D03*
X104000000Y-77000000D03*
X104000000Y-60700000D03*
X104000000Y-58900000D03*
X100000000Y-78800000D03*
X100000000Y-77000000D03*
X100000000Y-60700000D03*
X100000000Y-58900000D03*
X100000000Y-86000000D03*
X100000000Y-87800000D03*
X96000000Y-86000000D03*
X96000000Y-87800000D03*
X98000000Y-67900000D03*
X98000000Y-69700000D03*
X96000000Y-67900000D03*
X96000000Y-69700000D03*
X104000000Y-87800000D03*
X104000000Y-86000000D03*
X104000000Y-69700000D03*
X104000000Y-67900000D03*
D16*
X140500000Y-118300000D03*
X142300000Y-118300000D03*
D15*
X145100000Y-104100000D03*
X145100000Y-102300000D03*
D16*
X139700000Y-95100000D03*
X137900000Y-95100000D03*
D39*
X140500000Y-120698000D03*
D40*
X140500000Y-127302000D03*
X142786000Y-127302000D03*
X138214000Y-127302000D03*
D39*
X140500000Y-97498000D03*
D40*
X140500000Y-104102000D03*
X142786000Y-104102000D03*
X138214000Y-104102000D03*
D16*
X80700000Y-109900000D03*
X82500000Y-109900000D03*
D45*
X80830380Y-114099820D03*
D46*
X82549960Y-114099820D03*
X82549960Y-111900180D03*
X80650040Y-111900180D03*
D16*
X79000000Y-117900000D03*
X77200000Y-117900000D03*
X119056250Y-95543750D03*
X120856250Y-95543750D03*
X114800000Y-106600000D03*
X113000000Y-106600000D03*
D56*
X138200000Y-74300000D03*
D57*
X138200000Y-72300000D03*
D56*
X138200000Y-56200000D03*
D57*
X138200000Y-54200000D03*
D56*
X143800000Y-74300000D03*
D57*
X143800000Y-72300000D03*
D56*
X143800000Y-56200000D03*
D57*
X143800000Y-54200000D03*
D56*
X124200000Y-74400000D03*
D57*
X124200000Y-72400000D03*
D56*
X124200000Y-56200000D03*
D57*
X124200000Y-54200000D03*
D56*
X129800000Y-56200000D03*
D57*
X129800000Y-54200000D03*
D56*
X110200000Y-74400000D03*
D57*
X110200000Y-72400000D03*
D56*
X110200000Y-56200000D03*
D57*
X110200000Y-54200000D03*
D56*
X115800000Y-74400000D03*
D57*
X115800000Y-72400000D03*
D56*
X115800000Y-56200000D03*
D57*
X115800000Y-54200000D03*
D56*
X96200000Y-74400000D03*
D57*
X96200000Y-72400000D03*
D56*
X96200000Y-56200000D03*
D57*
X96200000Y-54200000D03*
D56*
X101800000Y-74400000D03*
D57*
X101800000Y-72400000D03*
D56*
X101800000Y-56200000D03*
D57*
X101800000Y-54200000D03*
D56*
X84100000Y-80400000D03*
D57*
X84100000Y-78400000D03*
D56*
X84100000Y-63400000D03*
D57*
X84100000Y-61400000D03*
D56*
X77900000Y-80400000D03*
D57*
X77900000Y-78400000D03*
D56*
X70100000Y-80400000D03*
D57*
X70100000Y-78400000D03*
D56*
X70100000Y-63400000D03*
D57*
X70100000Y-61400000D03*
D56*
X63900000Y-80400000D03*
D57*
X63900000Y-78400000D03*
D56*
X56100000Y-80400000D03*
D57*
X56100000Y-78400000D03*
D56*
X56100000Y-63400000D03*
D57*
X56100000Y-61400000D03*
D56*
X49900000Y-80400000D03*
D57*
X49900000Y-78400000D03*
D56*
X49900000Y-63400000D03*
D57*
X49900000Y-61400000D03*
D56*
X42100000Y-80400000D03*
D57*
X42100000Y-78400000D03*
D56*
X42100000Y-63400000D03*
D57*
X42100000Y-61400000D03*
D15*
X67600000Y-101500000D03*
X67600000Y-99700000D03*
X52400000Y-101500000D03*
X52400000Y-99700000D03*
X51200000Y-111400000D03*
X51200000Y-113200000D03*
D56*
X35900000Y-80400000D03*
D57*
X35900000Y-78400000D03*
D56*
X35900000Y-63400000D03*
D57*
X35900000Y-61400000D03*
D16*
X142800000Y-129700000D03*
X141000000Y-129700000D03*
X140500000Y-116300000D03*
X142300000Y-116300000D03*
X141400000Y-95100000D03*
X143200000Y-95100000D03*
D56*
X110300000Y-101900000D03*
D57*
X110300000Y-99900000D03*
D56*
X116800000Y-93300000D03*
D57*
X116800000Y-91300000D03*
D56*
X123200000Y-93300000D03*
D57*
X123200000Y-91300000D03*
D56*
X129900000Y-101900000D03*
D57*
X129900000Y-99900000D03*
D56*
X129800000Y-74400000D03*
D57*
X129800000Y-72400000D03*
D15*
X103800000Y-97000000D03*
X103800000Y-98800000D03*
D58*
X96300000Y-96995000D03*
X96300000Y-98265000D03*
X96300000Y-99535000D03*
X96300000Y-100805000D03*
X101700000Y-100805000D03*
X101700000Y-99535000D03*
X101700000Y-98265000D03*
X101700000Y-96995000D03*
D59*
X117250000Y-106725000D03*
D60*
X117750000Y-106700000D03*
X118250000Y-106700000D03*
X118750000Y-106700000D03*
X119250000Y-106700000D03*
X119750000Y-106700000D03*
X120250000Y-106700000D03*
X120750000Y-106700000D03*
X121250000Y-106700000D03*
X121750000Y-106700000D03*
X122250000Y-106700000D03*
D59*
X122750000Y-106725000D03*
D61*
X123425000Y-106050000D03*
D62*
X123400000Y-105550000D03*
X123400000Y-105050000D03*
X123400000Y-104550000D03*
X123400000Y-104050000D03*
X123400000Y-103550000D03*
X123400000Y-103050000D03*
X123400000Y-102550000D03*
X123400000Y-102050000D03*
X123400000Y-101550000D03*
X123400000Y-101050000D03*
D61*
X123425000Y-100525000D03*
D59*
X122750000Y-99875000D03*
D60*
X122250000Y-99900000D03*
X121750000Y-99900000D03*
X121250000Y-99900000D03*
X120750000Y-99900000D03*
X120250000Y-99900000D03*
X119750000Y-99900000D03*
X119250000Y-99900000D03*
X118750000Y-99900000D03*
X118250000Y-99900000D03*
X117750000Y-99900000D03*
D59*
X117250000Y-99875000D03*
D61*
X116575000Y-100550000D03*
D62*
X116600000Y-101050000D03*
X116600000Y-101550000D03*
X116600000Y-102050000D03*
X116600000Y-102550000D03*
X116600000Y-103050000D03*
X116600000Y-103550000D03*
X116600000Y-104050000D03*
X116600000Y-104550000D03*
X116600000Y-105050000D03*
X116600000Y-105550000D03*
D61*
X116575000Y-106050000D03*
D63*
X120000000Y-103300000D03*
D64*
X63750000Y-106600000D03*
D65*
X63250000Y-106650000D03*
X62750000Y-106650000D03*
X62250000Y-106650000D03*
X61750000Y-106650000D03*
X61250000Y-106650000D03*
X60750000Y-106650000D03*
X60250000Y-106650000D03*
X59750000Y-106650000D03*
X59250000Y-106650000D03*
X58750000Y-106650000D03*
X58250000Y-106650000D03*
X57750000Y-106650000D03*
X57250000Y-106650000D03*
X56750000Y-106650000D03*
D64*
X56250000Y-106600000D03*
D66*
X55500000Y-107350000D03*
D67*
X55550000Y-107850000D03*
X55550000Y-108350000D03*
X55550000Y-108850000D03*
X55550000Y-109350000D03*
X55550000Y-109850000D03*
X55550000Y-110350000D03*
X55550000Y-110850000D03*
X55550000Y-111350000D03*
X55550000Y-111850000D03*
X55550000Y-112350000D03*
X55550000Y-112850000D03*
X55550000Y-113350000D03*
X55550000Y-113850000D03*
X55550000Y-114350000D03*
D66*
X55500000Y-114850000D03*
D64*
X56250000Y-115600000D03*
D65*
X56750000Y-115550000D03*
X57250000Y-115550000D03*
X57750000Y-115550000D03*
X58250000Y-115550000D03*
X58750000Y-115550000D03*
X59250000Y-115550000D03*
X59750000Y-115550000D03*
X60250000Y-115550000D03*
X60750000Y-115550000D03*
X61250000Y-115550000D03*
X61750000Y-115550000D03*
X62250000Y-115550000D03*
X62750000Y-115550000D03*
X63250000Y-115550000D03*
D64*
X63750000Y-115600000D03*
D66*
X64500000Y-114850000D03*
D67*
X64450000Y-114350000D03*
X64450000Y-113850000D03*
X64450000Y-113350000D03*
X64450000Y-112850000D03*
X64450000Y-112350000D03*
X64450000Y-111850000D03*
X64450000Y-111350000D03*
X64450000Y-110850000D03*
X64450000Y-110350000D03*
X64450000Y-109850000D03*
X64450000Y-109350000D03*
X64450000Y-108850000D03*
X64450000Y-108350000D03*
X64450000Y-107850000D03*
D66*
X64500000Y-107350000D03*
D68*
X60000000Y-111100000D03*
D16*
X137000000Y-106500000D03*
X135200000Y-106500000D03*
X140500000Y-106500000D03*
X138700000Y-106500000D03*
D15*
X135800000Y-104500000D03*
X135800000Y-102700000D03*
D16*
X85400000Y-55400000D03*
X87200000Y-55400000D03*
X78400000Y-55400000D03*
X80200000Y-55400000D03*
X83700000Y-55400000D03*
X81900000Y-55400000D03*
X76700000Y-55400000D03*
X74900000Y-55400000D03*
X71400000Y-55400000D03*
X73200000Y-55400000D03*
X64400000Y-55400000D03*
X66200000Y-55400000D03*
X69700000Y-55400000D03*
X67900000Y-55400000D03*
X62700000Y-55400000D03*
X60900000Y-55400000D03*
X55600000Y-55400000D03*
X53800000Y-55400000D03*
X50300000Y-55400000D03*
X52100000Y-55400000D03*
X57300000Y-55400000D03*
X59100000Y-55400000D03*
X48600000Y-55400000D03*
X46800000Y-55400000D03*
X41600000Y-55400000D03*
X39800000Y-55400000D03*
X36300000Y-55400000D03*
X38100000Y-55400000D03*
X43300000Y-55400000D03*
X45100000Y-55400000D03*
X34600000Y-55400000D03*
X32800000Y-55400000D03*
X85400000Y-53400000D03*
X87200000Y-53400000D03*
X78400000Y-53400000D03*
X80200000Y-53400000D03*
X85400000Y-57400000D03*
X87200000Y-57400000D03*
X78400000Y-57400000D03*
X80200000Y-57400000D03*
X83700000Y-53400000D03*
X81900000Y-53400000D03*
X76700000Y-53400000D03*
X74900000Y-53400000D03*
X83700000Y-57400000D03*
X81900000Y-57400000D03*
X76700000Y-57400000D03*
X74900000Y-57400000D03*
X71400000Y-53400000D03*
X73200000Y-53400000D03*
X64400000Y-53400000D03*
X66200000Y-53400000D03*
X71400000Y-57400000D03*
X73200000Y-57400000D03*
X64400000Y-57400000D03*
X66200000Y-57400000D03*
X69700000Y-53400000D03*
X67900000Y-53400000D03*
X62700000Y-53400000D03*
X60900000Y-53400000D03*
X69700000Y-57400000D03*
X67900000Y-57400000D03*
X62700000Y-57400000D03*
X60900000Y-57400000D03*
X55600000Y-53400000D03*
X53800000Y-53400000D03*
X50300000Y-53400000D03*
X52100000Y-53400000D03*
X55600000Y-57400000D03*
X53800000Y-57400000D03*
X50300000Y-57400000D03*
X52100000Y-57400000D03*
X57300000Y-53400000D03*
X59100000Y-53400000D03*
X48600000Y-53400000D03*
X46800000Y-53400000D03*
X57300000Y-57400000D03*
X59100000Y-57400000D03*
X48600000Y-57400000D03*
X46800000Y-57400000D03*
X41600000Y-53400000D03*
X39800000Y-53400000D03*
X36300000Y-53400000D03*
X38100000Y-53400000D03*
X41600000Y-57400000D03*
X39800000Y-57400000D03*
X36300000Y-57400000D03*
X38100000Y-57400000D03*
X43300000Y-53400000D03*
X45100000Y-53400000D03*
X34600000Y-53400000D03*
X32800000Y-53400000D03*
X43300000Y-57400000D03*
X45100000Y-57400000D03*
X34600000Y-57400000D03*
X32800000Y-57400000D03*
D12*
X44760000Y-48700000D03*
D13*
X44760000Y-46160000D03*
X47300000Y-48700000D03*
X47300000Y-46160000D03*
X49840000Y-48700000D03*
X49840000Y-46160000D03*
X52380000Y-48700000D03*
X52380000Y-46160000D03*
X54920000Y-48700000D03*
X54920000Y-46160000D03*
X57460000Y-48700000D03*
X57460000Y-46160000D03*
X60000000Y-48700000D03*
X60000000Y-46160000D03*
X62540000Y-48700000D03*
X62540000Y-46160000D03*
X65080000Y-48700000D03*
X65080000Y-46160000D03*
X67620000Y-48700000D03*
X67620000Y-46160000D03*
X70160000Y-48700000D03*
X70160000Y-46160000D03*
X72700000Y-48700000D03*
X72700000Y-46160000D03*
X75240000Y-48700000D03*
X75240000Y-46160000D03*
D15*
X86000000Y-85400000D03*
X86000000Y-83600000D03*
X86000000Y-68400000D03*
X86000000Y-66600000D03*
X72000000Y-85400000D03*
X72000000Y-83600000D03*
X72000000Y-68400000D03*
X72000000Y-66600000D03*
X58000000Y-85400000D03*
X58000000Y-83600000D03*
X58000000Y-68400000D03*
X58000000Y-66600000D03*
X44000000Y-68400000D03*
X44000000Y-66600000D03*
X44000000Y-85400000D03*
X44000000Y-83600000D03*
X136000000Y-84300000D03*
X136000000Y-82500000D03*
X136000000Y-66200000D03*
X136000000Y-64400000D03*
X122000000Y-84300000D03*
X122000000Y-82500000D03*
X122000000Y-66200000D03*
X122000000Y-64400000D03*
X108000000Y-84300000D03*
X108000000Y-82500000D03*
X108000000Y-66200000D03*
X108000000Y-64400000D03*
X94000000Y-84300000D03*
X94000000Y-82500000D03*
X94000000Y-66200000D03*
X94000000Y-64400000D03*
D12*
X104760000Y-48700000D03*
D13*
X104760000Y-46160000D03*
X107300000Y-48700000D03*
X107300000Y-46160000D03*
X109840000Y-48700000D03*
X109840000Y-46160000D03*
X112380000Y-48700000D03*
X112380000Y-46160000D03*
X114920000Y-48700000D03*
X114920000Y-46160000D03*
X117460000Y-48700000D03*
X117460000Y-46160000D03*
X120000000Y-48700000D03*
X120000000Y-46160000D03*
X122540000Y-48700000D03*
X122540000Y-46160000D03*
X125080000Y-48700000D03*
X125080000Y-46160000D03*
X127620000Y-48700000D03*
X127620000Y-46160000D03*
X130160000Y-48700000D03*
X130160000Y-46160000D03*
X132700000Y-48700000D03*
X132700000Y-46160000D03*
X135240000Y-48700000D03*
X135240000Y-46160000D03*
D15*
X98000000Y-58900000D03*
X98000000Y-60700000D03*
D16*
X87900000Y-94200000D03*
X89700000Y-94200000D03*
D15*
X90300000Y-97900000D03*
X90300000Y-96100000D03*
X90300000Y-99800000D03*
X90300000Y-101600000D03*
D69*
X81298000Y-98900000D03*
D70*
X87902000Y-98900000D03*
X87902000Y-96614000D03*
X87902000Y-101186000D03*
D71*
X145800000Y-92600000D03*
X138180000Y-92600000D03*
D14*
X90000000Y-45800000D03*
D43*
X33800000Y-113800000D03*
D44*
X37800000Y-107800000D03*
X37800000Y-110800000D03*
X34800000Y-107800000D03*
X34800000Y-110800000D03*
D43*
X33860000Y-104800000D03*
D72*
X145700000Y-100400300D03*
X145700000Y-95599700D03*
D71*
X42200000Y-114020000D03*
X42200000Y-106400000D03*
D73*
X83495000Y-39500000D03*
X36505000Y-39500000D03*
D74*
X43490000Y-40940000D03*
D33*
X46284000Y-40940000D03*
X48951000Y-40940000D03*
X51745000Y-40940000D03*
X54539000Y-40940000D03*
X57333000Y-40940000D03*
X60000000Y-40940000D03*
X62794000Y-40940000D03*
X65588000Y-40940000D03*
X68382000Y-40940000D03*
X71049000Y-40940000D03*
X73843000Y-40940000D03*
X76637000Y-40940000D03*
X45064800Y-38100000D03*
X47604800Y-38100000D03*
X50398800Y-38100000D03*
X53142000Y-38100000D03*
X55885200Y-38100000D03*
X58679200Y-38100000D03*
X61422400Y-38100000D03*
X64165600Y-38100000D03*
X67010400Y-38100000D03*
X69702800Y-38100000D03*
X72446000Y-38100000D03*
X75240000Y-38100000D03*
D73*
X143495000Y-39500000D03*
X96505000Y-39500000D03*
D74*
X103490000Y-40940000D03*
D33*
X106284000Y-40940000D03*
X108951000Y-40940000D03*
X111745000Y-40940000D03*
X114539000Y-40940000D03*
X117333000Y-40940000D03*
X120000000Y-40940000D03*
X122794000Y-40940000D03*
X125588000Y-40940000D03*
X128382000Y-40940000D03*
X131049000Y-40940000D03*
X133843000Y-40940000D03*
X136637000Y-40940000D03*
X105064800Y-38100000D03*
X107604800Y-38100000D03*
X110398800Y-38100000D03*
X113142000Y-38100000D03*
X115885200Y-38100000D03*
X118679200Y-38100000D03*
X121422400Y-38100000D03*
X124165600Y-38100000D03*
X127010400Y-38100000D03*
X129702800Y-38100000D03*
X132446000Y-38100000D03*
X135240000Y-38100000D03*
D56*
X90000000Y-61400000D03*
D57*
X90000000Y-63400000D03*
D56*
X90000000Y-72600000D03*
D57*
X90000000Y-74600000D03*
D56*
X90000000Y-67000000D03*
D57*
X90000000Y-69000000D03*
D56*
X90000000Y-78200000D03*
D57*
X90000000Y-80200000D03*
D56*
X90000000Y-83800000D03*
D57*
X90000000Y-85800000D03*
D56*
X90000000Y-89400000D03*
D57*
X90000000Y-91400000D03*
D12*
X129370000Y-143860000D03*
D13*
X129370000Y-146400000D03*
X126830000Y-143860000D03*
X126830000Y-146400000D03*
X124290000Y-143860000D03*
X124290000Y-146400000D03*
X121750000Y-143860000D03*
X121750000Y-146400000D03*
X119210000Y-143860000D03*
X119210000Y-146400000D03*
X116670000Y-143860000D03*
X116670000Y-146400000D03*
X114130000Y-143860000D03*
X114130000Y-146400000D03*
X111590000Y-143860000D03*
X111590000Y-146400000D03*
X109050000Y-143860000D03*
X109050000Y-146400000D03*
X106510000Y-143860000D03*
X106510000Y-146400000D03*
X103970000Y-143860000D03*
X103970000Y-146400000D03*
X101430000Y-143860000D03*
X101430000Y-146400000D03*
X98890000Y-143860000D03*
X98890000Y-146400000D03*
X96350000Y-143860000D03*
X96350000Y-146400000D03*
X93810000Y-143860000D03*
X93810000Y-146400000D03*
X91270000Y-143860000D03*
X91270000Y-146400000D03*
X88730000Y-143860000D03*
X88730000Y-146400000D03*
X86190000Y-143860000D03*
X86190000Y-146400000D03*
X83650000Y-143860000D03*
X83650000Y-146400000D03*
X81110000Y-143860000D03*
X81110000Y-146400000D03*
X78570000Y-143860000D03*
X78570000Y-146400000D03*
X76030000Y-143860000D03*
X76030000Y-146400000D03*
X73490000Y-143860000D03*
X73490000Y-146400000D03*
X70950000Y-143860000D03*
X70950000Y-146400000D03*
X68410000Y-143860000D03*
X68410000Y-146400000D03*
X65870000Y-143860000D03*
X65870000Y-146400000D03*
X63330000Y-143860000D03*
X63330000Y-146400000D03*
X60790000Y-143860000D03*
X60790000Y-146400000D03*
X58250000Y-143860000D03*
X58250000Y-146400000D03*
X55710000Y-143860000D03*
X55710000Y-146400000D03*
X53170000Y-143860000D03*
X53170000Y-146400000D03*
X50630000Y-143860000D03*
X50630000Y-146400000D03*
D12*
X129370000Y-134200000D03*
D13*
X129370000Y-136740000D03*
X126830000Y-134200000D03*
X126830000Y-136740000D03*
X124290000Y-134200000D03*
X124290000Y-136740000D03*
X121750000Y-134200000D03*
X121750000Y-136740000D03*
X119210000Y-134200000D03*
X119210000Y-136740000D03*
X116670000Y-134200000D03*
X116670000Y-136740000D03*
X114130000Y-134200000D03*
X114130000Y-136740000D03*
X111590000Y-134200000D03*
X111590000Y-136740000D03*
X109050000Y-134200000D03*
X109050000Y-136740000D03*
X106510000Y-134200000D03*
X106510000Y-136740000D03*
X103970000Y-134200000D03*
X103970000Y-136740000D03*
X101430000Y-134200000D03*
X101430000Y-136740000D03*
X98890000Y-134200000D03*
X98890000Y-136740000D03*
X96350000Y-134200000D03*
X96350000Y-136740000D03*
X93810000Y-134200000D03*
X93810000Y-136740000D03*
X91270000Y-134200000D03*
X91270000Y-136740000D03*
X88730000Y-134200000D03*
X88730000Y-136740000D03*
X86190000Y-134200000D03*
X86190000Y-136740000D03*
X83650000Y-134200000D03*
X83650000Y-136740000D03*
X81110000Y-134200000D03*
X81110000Y-136740000D03*
X78570000Y-134200000D03*
X78570000Y-136740000D03*
X76030000Y-134200000D03*
X76030000Y-136740000D03*
X73490000Y-134200000D03*
X73490000Y-136740000D03*
X70950000Y-134200000D03*
X70950000Y-136740000D03*
X68410000Y-134200000D03*
X68410000Y-136740000D03*
X65870000Y-134200000D03*
X65870000Y-136740000D03*
X63330000Y-134200000D03*
X63330000Y-136740000D03*
X60790000Y-134200000D03*
X60790000Y-136740000D03*
X58250000Y-134200000D03*
X58250000Y-136740000D03*
X55710000Y-134200000D03*
X55710000Y-136740000D03*
X53170000Y-134200000D03*
X53170000Y-136740000D03*
X50630000Y-134200000D03*
X50630000Y-136740000D03*
D56*
X197900000Y-63400000D03*
D57*
X197900000Y-61400000D03*
D15*
X256000000Y-69700000D03*
X256000000Y-67900000D03*
X258000000Y-67900000D03*
X258000000Y-69700000D03*
D58*
X203700000Y-88905000D03*
X203700000Y-87635000D03*
X203700000Y-86365000D03*
X203700000Y-85095000D03*
X198300000Y-85095000D03*
X198300000Y-86365000D03*
X198300000Y-87635000D03*
X198300000Y-88905000D03*
D15*
X178000000Y-87100000D03*
X178000000Y-88900000D03*
D56*
X183900000Y-63400000D03*
D57*
X183900000Y-61400000D03*
D58*
X216300000Y-62395000D03*
X216300000Y-63665000D03*
X216300000Y-64935000D03*
X216300000Y-66205000D03*
X221700000Y-66205000D03*
X221700000Y-64935000D03*
X221700000Y-63665000D03*
X221700000Y-62395000D03*
D14*
X155000000Y-45800000D03*
X265000000Y-45800000D03*
X265000000Y-145000000D03*
X155000000Y-145000000D03*
D15*
X206000000Y-87100000D03*
X206000000Y-88900000D03*
X206000000Y-70100000D03*
X206000000Y-71900000D03*
X202000000Y-92400000D03*
X202000000Y-90600000D03*
X202000000Y-75400000D03*
X202000000Y-73600000D03*
X190400000Y-106700000D03*
X190400000Y-108500000D03*
X187600000Y-105000000D03*
X187600000Y-103200000D03*
X196000000Y-83600000D03*
X196000000Y-85400000D03*
X196000000Y-66600000D03*
X196000000Y-68400000D03*
X196000000Y-92400000D03*
X196000000Y-90600000D03*
X196000000Y-75400000D03*
X196000000Y-73600000D03*
X192000000Y-87100000D03*
X192000000Y-88900000D03*
X192000000Y-70100000D03*
X192000000Y-71900000D03*
X187600000Y-108500000D03*
X187600000Y-106700000D03*
X188000000Y-92400000D03*
X188000000Y-90600000D03*
X188000000Y-75400000D03*
X188000000Y-73600000D03*
X184800000Y-99700000D03*
X184800000Y-101500000D03*
X181600000Y-101500000D03*
X181600000Y-99700000D03*
X182000000Y-83600000D03*
X182000000Y-85400000D03*
X182000000Y-66600000D03*
X182000000Y-68400000D03*
X181600000Y-105000000D03*
X181600000Y-103200000D03*
X182000000Y-92400000D03*
X182000000Y-90600000D03*
X182000000Y-75400000D03*
X182000000Y-73600000D03*
X178400000Y-105000000D03*
X178400000Y-103200000D03*
X178000000Y-70100000D03*
X178000000Y-71900000D03*
X174000000Y-92400000D03*
X174000000Y-90600000D03*
X174000000Y-75400000D03*
X174000000Y-73600000D03*
X172400000Y-106700000D03*
X172400000Y-108500000D03*
X178400000Y-101500000D03*
X178400000Y-99700000D03*
X175200000Y-99700000D03*
X175200000Y-101500000D03*
X168000000Y-83600000D03*
X168000000Y-85400000D03*
X168000000Y-66600000D03*
X168000000Y-68400000D03*
X173200000Y-114900000D03*
X173200000Y-116700000D03*
X171200000Y-114900000D03*
X171200000Y-116700000D03*
X168000000Y-92400000D03*
X168000000Y-90600000D03*
X168000000Y-75400000D03*
X168000000Y-73600000D03*
X164000000Y-87100000D03*
X164000000Y-88900000D03*
X164000000Y-70100000D03*
X164000000Y-71900000D03*
X160000000Y-92400000D03*
X160000000Y-90600000D03*
X160000000Y-75400000D03*
X160000000Y-73600000D03*
X184800000Y-105000000D03*
X184800000Y-103200000D03*
X175200000Y-105000000D03*
X175200000Y-103200000D03*
X173200000Y-111400000D03*
X173200000Y-113200000D03*
X172400000Y-105000000D03*
X172400000Y-103200000D03*
X169900000Y-107600000D03*
X169900000Y-109400000D03*
X154000000Y-83600000D03*
X154000000Y-85400000D03*
X154000000Y-66600000D03*
X154000000Y-68400000D03*
X154000000Y-92400000D03*
X154000000Y-90600000D03*
X154000000Y-75400000D03*
X154000000Y-73600000D03*
X196000000Y-88900000D03*
X196000000Y-87100000D03*
X196000000Y-71900000D03*
X196000000Y-70100000D03*
X182000000Y-88900000D03*
X182000000Y-87100000D03*
X182000000Y-71900000D03*
X182000000Y-70100000D03*
X168000000Y-88900000D03*
X168000000Y-87100000D03*
X168000000Y-71900000D03*
X168000000Y-70100000D03*
X154000000Y-88900000D03*
X154000000Y-87100000D03*
X154000000Y-71900000D03*
X154000000Y-70100000D03*
D58*
X203700000Y-71905000D03*
X203700000Y-70635000D03*
X203700000Y-69365000D03*
X203700000Y-68095000D03*
X198300000Y-68095000D03*
X198300000Y-69365000D03*
X198300000Y-70635000D03*
X198300000Y-71905000D03*
X189700000Y-88905000D03*
X189700000Y-87635000D03*
X189700000Y-86365000D03*
X189700000Y-85095000D03*
X184300000Y-85095000D03*
X184300000Y-86365000D03*
X184300000Y-87635000D03*
X184300000Y-88905000D03*
X189700000Y-71905000D03*
X189700000Y-70635000D03*
X189700000Y-69365000D03*
X189700000Y-68095000D03*
X184300000Y-68095000D03*
X184300000Y-69365000D03*
X184300000Y-70635000D03*
X184300000Y-71905000D03*
X175700000Y-88905000D03*
X175700000Y-87635000D03*
X175700000Y-86365000D03*
X175700000Y-85095000D03*
X170300000Y-85095000D03*
X170300000Y-86365000D03*
X170300000Y-87635000D03*
X170300000Y-88905000D03*
X175700000Y-71905000D03*
X175700000Y-70635000D03*
X175700000Y-69365000D03*
X175700000Y-68095000D03*
X170300000Y-68095000D03*
X170300000Y-69365000D03*
X170300000Y-70635000D03*
X170300000Y-71905000D03*
X161700000Y-88905000D03*
X161700000Y-87635000D03*
X161700000Y-86365000D03*
X161700000Y-85095000D03*
X156300000Y-85095000D03*
X156300000Y-86365000D03*
X156300000Y-87635000D03*
X156300000Y-88905000D03*
X161700000Y-71905000D03*
X161700000Y-70635000D03*
X161700000Y-69365000D03*
X161700000Y-68095000D03*
X156300000Y-68095000D03*
X156300000Y-69365000D03*
X156300000Y-70635000D03*
X156300000Y-71905000D03*
D15*
X204000000Y-90600000D03*
X204000000Y-92400000D03*
X204000000Y-73600000D03*
X204000000Y-75400000D03*
D16*
X203900000Y-83200000D03*
X202100000Y-83200000D03*
X203900000Y-66200000D03*
X202100000Y-66200000D03*
D15*
X206000000Y-92400000D03*
X206000000Y-90600000D03*
X206000000Y-75400000D03*
X206000000Y-73600000D03*
X200000000Y-90600000D03*
X200000000Y-92400000D03*
X200000000Y-73600000D03*
X200000000Y-75400000D03*
D16*
X198100000Y-83200000D03*
X199900000Y-83200000D03*
X198100000Y-66200000D03*
X199900000Y-66200000D03*
D15*
X198000000Y-92400000D03*
X198000000Y-90600000D03*
X198000000Y-75400000D03*
X198000000Y-73600000D03*
D16*
X195500000Y-107900000D03*
X193700000Y-107900000D03*
X199000000Y-107900000D03*
X197200000Y-107900000D03*
X195500000Y-109900000D03*
X193700000Y-109900000D03*
X199000000Y-109900000D03*
X197200000Y-109900000D03*
X195500000Y-111900000D03*
X193700000Y-111900000D03*
X191700000Y-99200000D03*
X189900000Y-99200000D03*
D15*
X190000000Y-90600000D03*
X190000000Y-92400000D03*
X190000000Y-73600000D03*
X190000000Y-75400000D03*
D16*
X189900000Y-83200000D03*
X188100000Y-83200000D03*
X189900000Y-66200000D03*
X188100000Y-66200000D03*
D15*
X192000000Y-92400000D03*
X192000000Y-90600000D03*
X192000000Y-75400000D03*
X192000000Y-73600000D03*
D16*
X199000000Y-111900000D03*
X197200000Y-111900000D03*
X195500000Y-115900000D03*
X193700000Y-115900000D03*
X199000000Y-115900000D03*
X197200000Y-115900000D03*
D15*
X186600000Y-96100000D03*
X186600000Y-94300000D03*
X186000000Y-90600000D03*
X186000000Y-92400000D03*
X186000000Y-73600000D03*
X186000000Y-75400000D03*
D16*
X184100000Y-83200000D03*
X185900000Y-83200000D03*
X184100000Y-66200000D03*
X185900000Y-66200000D03*
D15*
X184000000Y-92400000D03*
X184000000Y-90600000D03*
X184000000Y-75400000D03*
X184000000Y-73600000D03*
D16*
X193700000Y-113900000D03*
X195500000Y-113900000D03*
X197200000Y-113900000D03*
X199000000Y-113900000D03*
X193700000Y-117900000D03*
X195500000Y-117900000D03*
D15*
X173400000Y-96100000D03*
X173400000Y-94300000D03*
D16*
X179900000Y-117300000D03*
X178100000Y-117300000D03*
D15*
X176000000Y-90600000D03*
X176000000Y-92400000D03*
X176000000Y-73600000D03*
X176000000Y-75400000D03*
D16*
X175900000Y-83200000D03*
X174100000Y-83200000D03*
X175900000Y-66200000D03*
X174100000Y-66200000D03*
D15*
X178000000Y-92400000D03*
X178000000Y-90600000D03*
X178000000Y-75400000D03*
X178000000Y-73600000D03*
D16*
X168300000Y-99200000D03*
X170100000Y-99200000D03*
D15*
X172000000Y-90600000D03*
X172000000Y-92400000D03*
X172000000Y-73600000D03*
X172000000Y-75400000D03*
D16*
X170100000Y-83200000D03*
X171900000Y-83200000D03*
X170100000Y-66200000D03*
X171900000Y-66200000D03*
D15*
X170000000Y-92400000D03*
X170000000Y-90600000D03*
X170000000Y-75400000D03*
X170000000Y-73600000D03*
X162000000Y-90600000D03*
X162000000Y-92400000D03*
X162000000Y-73600000D03*
X162000000Y-75400000D03*
D16*
X161900000Y-83200000D03*
X160100000Y-83200000D03*
X161900000Y-66200000D03*
X160100000Y-66200000D03*
D15*
X164000000Y-92400000D03*
X164000000Y-90600000D03*
X164000000Y-75400000D03*
X164000000Y-73600000D03*
X158000000Y-90600000D03*
X158000000Y-92400000D03*
X158000000Y-73600000D03*
X158000000Y-75400000D03*
D16*
X156100000Y-83200000D03*
X157900000Y-83200000D03*
X156100000Y-66200000D03*
X157900000Y-66200000D03*
D15*
X156000000Y-92400000D03*
X156000000Y-90600000D03*
X156000000Y-75400000D03*
X156000000Y-73600000D03*
D56*
X190400000Y-103000000D03*
D57*
X192400000Y-103000000D03*
D56*
X176200000Y-96100000D03*
D57*
X178200000Y-96100000D03*
D56*
X169600000Y-103000000D03*
D57*
X167600000Y-103000000D03*
D56*
X183800000Y-96100000D03*
D57*
X181800000Y-96100000D03*
D15*
X256000000Y-77000000D03*
X256000000Y-78800000D03*
X256000000Y-58900000D03*
X256000000Y-60700000D03*
X264000000Y-78800000D03*
X264000000Y-77000000D03*
X264000000Y-60700000D03*
X264000000Y-58900000D03*
X264000000Y-86000000D03*
X264000000Y-87800000D03*
X264000000Y-67900000D03*
X264000000Y-69700000D03*
X256000000Y-87800000D03*
X256000000Y-86000000D03*
D16*
X231300000Y-106600000D03*
X229500000Y-106600000D03*
D15*
X242000000Y-77000000D03*
X242000000Y-78800000D03*
X242000000Y-58900000D03*
X242000000Y-60700000D03*
X250000000Y-78800000D03*
X250000000Y-77000000D03*
X250000000Y-60700000D03*
X250000000Y-58900000D03*
X234100000Y-102100000D03*
X234100000Y-100300000D03*
X250000000Y-86000000D03*
X250000000Y-87800000D03*
X250000000Y-67900000D03*
X250000000Y-69700000D03*
X242000000Y-87800000D03*
X242000000Y-86000000D03*
X242000000Y-69700000D03*
X242000000Y-67900000D03*
X236756250Y-97743750D03*
X236756250Y-95943750D03*
X228000000Y-77000000D03*
X228000000Y-78800000D03*
X228000000Y-58900000D03*
X228000000Y-60700000D03*
X236000000Y-78800000D03*
X236000000Y-77000000D03*
X236000000Y-60700000D03*
X236000000Y-58900000D03*
D16*
X239056250Y-97543750D03*
X240856250Y-97543750D03*
D15*
X236000000Y-86000000D03*
X236000000Y-87800000D03*
X236000000Y-67900000D03*
X236000000Y-69700000D03*
X228000000Y-87800000D03*
X228000000Y-86000000D03*
X228000000Y-69700000D03*
X228000000Y-67900000D03*
X243156250Y-97743750D03*
X243156250Y-95943750D03*
X214000000Y-77000000D03*
X214000000Y-78800000D03*
X214000000Y-58900000D03*
X214000000Y-60700000D03*
X222000000Y-78800000D03*
X222000000Y-77000000D03*
X222000000Y-60700000D03*
X222000000Y-58900000D03*
X246100000Y-102100000D03*
X246100000Y-100300000D03*
X222000000Y-86000000D03*
X222000000Y-87800000D03*
X222000000Y-67900000D03*
X222000000Y-69700000D03*
X214000000Y-87800000D03*
X214000000Y-86000000D03*
X214000000Y-67900000D03*
X214000000Y-69700000D03*
D16*
X234800000Y-104600000D03*
X233000000Y-104600000D03*
D15*
X266000000Y-80500000D03*
X266000000Y-82300000D03*
X266000000Y-62400000D03*
X266000000Y-64200000D03*
X252000000Y-80500000D03*
X252000000Y-82300000D03*
X252000000Y-62400000D03*
X252000000Y-64200000D03*
X238000000Y-80500000D03*
X238000000Y-82300000D03*
X238000000Y-62400000D03*
X238000000Y-64200000D03*
X224000000Y-80500000D03*
X224000000Y-82300000D03*
X224000000Y-62400000D03*
X224000000Y-64200000D03*
D58*
X258300000Y-80495000D03*
X258300000Y-81765000D03*
X258300000Y-83035000D03*
X258300000Y-84305000D03*
X263700000Y-84305000D03*
X263700000Y-83035000D03*
X263700000Y-81765000D03*
X263700000Y-80495000D03*
X258300000Y-62395000D03*
X258300000Y-63665000D03*
X258300000Y-64935000D03*
X258300000Y-66205000D03*
X263700000Y-66205000D03*
X263700000Y-64935000D03*
X263700000Y-63665000D03*
X263700000Y-62395000D03*
X244300000Y-80495000D03*
X244300000Y-81765000D03*
X244300000Y-83035000D03*
X244300000Y-84305000D03*
X249700000Y-84305000D03*
X249700000Y-83035000D03*
X249700000Y-81765000D03*
X249700000Y-80495000D03*
X244300000Y-62395000D03*
X244300000Y-63665000D03*
X244300000Y-64935000D03*
X244300000Y-66205000D03*
X249700000Y-66205000D03*
X249700000Y-64935000D03*
X249700000Y-63665000D03*
X249700000Y-62395000D03*
X230300000Y-80495000D03*
X230300000Y-81765000D03*
X230300000Y-83035000D03*
X230300000Y-84305000D03*
X235700000Y-84305000D03*
X235700000Y-83035000D03*
X235700000Y-81765000D03*
X235700000Y-80495000D03*
X230300000Y-62395000D03*
X230300000Y-63665000D03*
X230300000Y-64935000D03*
X230300000Y-66205000D03*
X235700000Y-66205000D03*
X235700000Y-64935000D03*
X235700000Y-63665000D03*
X235700000Y-62395000D03*
X216300000Y-80495000D03*
X216300000Y-81765000D03*
X216300000Y-83035000D03*
X216300000Y-84305000D03*
X221700000Y-84305000D03*
X221700000Y-83035000D03*
X221700000Y-81765000D03*
X221700000Y-80495000D03*
D15*
X260000000Y-86000000D03*
X260000000Y-87800000D03*
X260000000Y-77000000D03*
X260000000Y-78800000D03*
X262000000Y-67900000D03*
X262000000Y-69700000D03*
X260000000Y-58900000D03*
X260000000Y-60700000D03*
X258000000Y-78800000D03*
X258000000Y-77000000D03*
X258000000Y-60700000D03*
X258000000Y-58900000D03*
X266000000Y-78800000D03*
X266000000Y-77000000D03*
X266000000Y-60700000D03*
X266000000Y-58900000D03*
X262000000Y-78800000D03*
X262000000Y-77000000D03*
X262000000Y-60700000D03*
X262000000Y-58900000D03*
X262000000Y-86000000D03*
X262000000Y-87800000D03*
X258000000Y-86000000D03*
X258000000Y-87800000D03*
X260000000Y-67900000D03*
X260000000Y-69700000D03*
X266000000Y-87800000D03*
X266000000Y-86000000D03*
X266000000Y-69700000D03*
X266000000Y-67900000D03*
X246000000Y-86000000D03*
X246000000Y-87800000D03*
X246000000Y-77000000D03*
X246000000Y-78800000D03*
X248000000Y-67900000D03*
X248000000Y-69700000D03*
X246000000Y-58900000D03*
X246000000Y-60700000D03*
X244000000Y-78800000D03*
X244000000Y-77000000D03*
X244000000Y-60700000D03*
X244000000Y-58900000D03*
D16*
X230400000Y-97100000D03*
X228600000Y-97100000D03*
D15*
X252000000Y-78800000D03*
X252000000Y-77000000D03*
X252000000Y-60700000D03*
X252000000Y-58900000D03*
X248000000Y-78800000D03*
X248000000Y-77000000D03*
X248000000Y-60700000D03*
X248000000Y-58900000D03*
X248000000Y-86000000D03*
X248000000Y-87800000D03*
X244000000Y-86000000D03*
X244000000Y-87800000D03*
X246000000Y-67900000D03*
X246000000Y-69700000D03*
X244000000Y-67900000D03*
X244000000Y-69700000D03*
X252000000Y-87800000D03*
X252000000Y-86000000D03*
X252000000Y-69700000D03*
X252000000Y-67900000D03*
X233100000Y-90300000D03*
X233100000Y-92100000D03*
X232000000Y-86000000D03*
X232000000Y-87800000D03*
X232000000Y-77000000D03*
X232000000Y-78800000D03*
X234000000Y-67900000D03*
X234000000Y-69700000D03*
X232000000Y-58900000D03*
X232000000Y-60700000D03*
X230000000Y-78800000D03*
X230000000Y-77000000D03*
X230000000Y-60700000D03*
X230000000Y-58900000D03*
X238000000Y-78800000D03*
X238000000Y-77000000D03*
X238000000Y-60700000D03*
X238000000Y-58900000D03*
X234000000Y-78800000D03*
X234000000Y-77000000D03*
X234000000Y-60700000D03*
X234000000Y-58900000D03*
X234000000Y-86000000D03*
X234000000Y-87800000D03*
X230000000Y-86000000D03*
X230000000Y-87800000D03*
X232000000Y-67900000D03*
X232000000Y-69700000D03*
X230000000Y-67900000D03*
X230000000Y-69700000D03*
X247000000Y-90300000D03*
X247000000Y-92100000D03*
X238000000Y-87800000D03*
X238000000Y-86000000D03*
X238000000Y-69700000D03*
X238000000Y-67900000D03*
X218000000Y-86000000D03*
X218000000Y-87800000D03*
X218000000Y-77000000D03*
X218000000Y-78800000D03*
X220000000Y-67900000D03*
X220000000Y-69700000D03*
D16*
X249600000Y-97100000D03*
X251400000Y-97100000D03*
D15*
X216000000Y-78800000D03*
X216000000Y-77000000D03*
X216000000Y-60700000D03*
X216000000Y-58900000D03*
X242400000Y-108400000D03*
X242400000Y-110200000D03*
X246400000Y-108400000D03*
X246400000Y-110200000D03*
X244400000Y-108400000D03*
X244400000Y-110200000D03*
D16*
X245700000Y-106500000D03*
X247500000Y-106500000D03*
X245700000Y-104500000D03*
X247500000Y-104500000D03*
D15*
X224000000Y-78800000D03*
X224000000Y-77000000D03*
X224000000Y-60700000D03*
X224000000Y-58900000D03*
X220000000Y-78800000D03*
X220000000Y-77000000D03*
X220000000Y-60700000D03*
X220000000Y-58900000D03*
X220000000Y-86000000D03*
X220000000Y-87800000D03*
X216000000Y-86000000D03*
X216000000Y-87800000D03*
X218000000Y-67900000D03*
X218000000Y-69700000D03*
X216000000Y-67900000D03*
X216000000Y-69700000D03*
X224000000Y-87800000D03*
X224000000Y-86000000D03*
X224000000Y-69700000D03*
X224000000Y-67900000D03*
D16*
X260500000Y-118300000D03*
X262300000Y-118300000D03*
D15*
X265100000Y-104100000D03*
X265100000Y-102300000D03*
D16*
X259700000Y-95100000D03*
X257900000Y-95100000D03*
D39*
X260500000Y-120698000D03*
D40*
X260500000Y-127302000D03*
X262786000Y-127302000D03*
X258214000Y-127302000D03*
D39*
X260500000Y-97498000D03*
D40*
X260500000Y-104102000D03*
X262786000Y-104102000D03*
X258214000Y-104102000D03*
D16*
X200700000Y-109900000D03*
X202500000Y-109900000D03*
D45*
X200830380Y-114099820D03*
D46*
X202549960Y-114099820D03*
X202549960Y-111900180D03*
X200650040Y-111900180D03*
D16*
X199000000Y-117900000D03*
X197200000Y-117900000D03*
X239056250Y-95543750D03*
X240856250Y-95543750D03*
X234800000Y-106600000D03*
X233000000Y-106600000D03*
D56*
X258200000Y-74300000D03*
D57*
X258200000Y-72300000D03*
D56*
X258200000Y-56200000D03*
D57*
X258200000Y-54200000D03*
D56*
X263800000Y-74300000D03*
D57*
X263800000Y-72300000D03*
D56*
X263800000Y-56200000D03*
D57*
X263800000Y-54200000D03*
D56*
X244200000Y-74400000D03*
D57*
X244200000Y-72400000D03*
D56*
X244200000Y-56200000D03*
D57*
X244200000Y-54200000D03*
D56*
X249800000Y-56200000D03*
D57*
X249800000Y-54200000D03*
D56*
X230200000Y-74400000D03*
D57*
X230200000Y-72400000D03*
D56*
X230200000Y-56200000D03*
D57*
X230200000Y-54200000D03*
D56*
X235800000Y-74400000D03*
D57*
X235800000Y-72400000D03*
D56*
X235800000Y-56200000D03*
D57*
X235800000Y-54200000D03*
D56*
X216200000Y-74400000D03*
D57*
X216200000Y-72400000D03*
D56*
X216200000Y-56200000D03*
D57*
X216200000Y-54200000D03*
D56*
X221800000Y-74400000D03*
D57*
X221800000Y-72400000D03*
D56*
X221800000Y-56200000D03*
D57*
X221800000Y-54200000D03*
D56*
X204100000Y-80400000D03*
D57*
X204100000Y-78400000D03*
D56*
X204100000Y-63400000D03*
D57*
X204100000Y-61400000D03*
D56*
X197900000Y-80400000D03*
D57*
X197900000Y-78400000D03*
D56*
X190100000Y-80400000D03*
D57*
X190100000Y-78400000D03*
D56*
X190100000Y-63400000D03*
D57*
X190100000Y-61400000D03*
D56*
X183900000Y-80400000D03*
D57*
X183900000Y-78400000D03*
D56*
X176100000Y-80400000D03*
D57*
X176100000Y-78400000D03*
D56*
X176100000Y-63400000D03*
D57*
X176100000Y-61400000D03*
D56*
X169900000Y-80400000D03*
D57*
X169900000Y-78400000D03*
D56*
X169900000Y-63400000D03*
D57*
X169900000Y-61400000D03*
D56*
X162100000Y-80400000D03*
D57*
X162100000Y-78400000D03*
D56*
X162100000Y-63400000D03*
D57*
X162100000Y-61400000D03*
D15*
X187600000Y-101500000D03*
X187600000Y-99700000D03*
X172400000Y-101500000D03*
X172400000Y-99700000D03*
X171200000Y-111400000D03*
X171200000Y-113200000D03*
D56*
X155900000Y-80400000D03*
D57*
X155900000Y-78400000D03*
D56*
X155900000Y-63400000D03*
D57*
X155900000Y-61400000D03*
D16*
X262800000Y-129700000D03*
X261000000Y-129700000D03*
X260500000Y-116300000D03*
X262300000Y-116300000D03*
X261400000Y-95100000D03*
X263200000Y-95100000D03*
D56*
X230300000Y-101900000D03*
D57*
X230300000Y-99900000D03*
D56*
X236800000Y-93300000D03*
D57*
X236800000Y-91300000D03*
D56*
X243200000Y-93300000D03*
D57*
X243200000Y-91300000D03*
D56*
X249900000Y-101900000D03*
D57*
X249900000Y-99900000D03*
D56*
X249800000Y-74400000D03*
D57*
X249800000Y-72400000D03*
D15*
X223800000Y-97000000D03*
X223800000Y-98800000D03*
D58*
X216300000Y-96995000D03*
X216300000Y-98265000D03*
X216300000Y-99535000D03*
X216300000Y-100805000D03*
X221700000Y-100805000D03*
X221700000Y-99535000D03*
X221700000Y-98265000D03*
X221700000Y-96995000D03*
D59*
X237250000Y-106725000D03*
D60*
X237750000Y-106700000D03*
X238250000Y-106700000D03*
X238750000Y-106700000D03*
X239250000Y-106700000D03*
X239750000Y-106700000D03*
X240250000Y-106700000D03*
X240750000Y-106700000D03*
X241250000Y-106700000D03*
X241750000Y-106700000D03*
X242250000Y-106700000D03*
D59*
X242750000Y-106725000D03*
D61*
X243425000Y-106050000D03*
D62*
X243400000Y-105550000D03*
X243400000Y-105050000D03*
X243400000Y-104550000D03*
X243400000Y-104050000D03*
X243400000Y-103550000D03*
X243400000Y-103050000D03*
X243400000Y-102550000D03*
X243400000Y-102050000D03*
X243400000Y-101550000D03*
X243400000Y-101050000D03*
D61*
X243425000Y-100525000D03*
D59*
X242750000Y-99875000D03*
D60*
X242250000Y-99900000D03*
X241750000Y-99900000D03*
X241250000Y-99900000D03*
X240750000Y-99900000D03*
X240250000Y-99900000D03*
X239750000Y-99900000D03*
X239250000Y-99900000D03*
X238750000Y-99900000D03*
X238250000Y-99900000D03*
X237750000Y-99900000D03*
D59*
X237250000Y-99875000D03*
D61*
X236575000Y-100550000D03*
D62*
X236600000Y-101050000D03*
X236600000Y-101550000D03*
X236600000Y-102050000D03*
X236600000Y-102550000D03*
X236600000Y-103050000D03*
X236600000Y-103550000D03*
X236600000Y-104050000D03*
X236600000Y-104550000D03*
X236600000Y-105050000D03*
X236600000Y-105550000D03*
D61*
X236575000Y-106050000D03*
D63*
X240000000Y-103300000D03*
D64*
X183750000Y-106600000D03*
D65*
X183250000Y-106650000D03*
X182750000Y-106650000D03*
X182250000Y-106650000D03*
X181750000Y-106650000D03*
X181250000Y-106650000D03*
X180750000Y-106650000D03*
X180250000Y-106650000D03*
X179750000Y-106650000D03*
X179250000Y-106650000D03*
X178750000Y-106650000D03*
X178250000Y-106650000D03*
X177750000Y-106650000D03*
X177250000Y-106650000D03*
X176750000Y-106650000D03*
D64*
X176250000Y-106600000D03*
D66*
X175500000Y-107350000D03*
D67*
X175550000Y-107850000D03*
X175550000Y-108350000D03*
X175550000Y-108850000D03*
X175550000Y-109350000D03*
X175550000Y-109850000D03*
X175550000Y-110350000D03*
X175550000Y-110850000D03*
X175550000Y-111350000D03*
X175550000Y-111850000D03*
X175550000Y-112350000D03*
X175550000Y-112850000D03*
X175550000Y-113350000D03*
X175550000Y-113850000D03*
X175550000Y-114350000D03*
D66*
X175500000Y-114850000D03*
D64*
X176250000Y-115600000D03*
D65*
X176750000Y-115550000D03*
X177250000Y-115550000D03*
X177750000Y-115550000D03*
X178250000Y-115550000D03*
X178750000Y-115550000D03*
X179250000Y-115550000D03*
X179750000Y-115550000D03*
X180250000Y-115550000D03*
X180750000Y-115550000D03*
X181250000Y-115550000D03*
X181750000Y-115550000D03*
X182250000Y-115550000D03*
X182750000Y-115550000D03*
X183250000Y-115550000D03*
D64*
X183750000Y-115600000D03*
D66*
X184500000Y-114850000D03*
D67*
X184450000Y-114350000D03*
X184450000Y-113850000D03*
X184450000Y-113350000D03*
X184450000Y-112850000D03*
X184450000Y-112350000D03*
X184450000Y-111850000D03*
X184450000Y-111350000D03*
X184450000Y-110850000D03*
X184450000Y-110350000D03*
X184450000Y-109850000D03*
X184450000Y-109350000D03*
X184450000Y-108850000D03*
X184450000Y-108350000D03*
X184450000Y-107850000D03*
D66*
X184500000Y-107350000D03*
D68*
X180000000Y-111100000D03*
D16*
X257000000Y-106500000D03*
X255200000Y-106500000D03*
X260500000Y-106500000D03*
X258700000Y-106500000D03*
D15*
X255800000Y-104500000D03*
X255800000Y-102700000D03*
D16*
X205400000Y-55400000D03*
X207200000Y-55400000D03*
X198400000Y-55400000D03*
X200200000Y-55400000D03*
X203700000Y-55400000D03*
X201900000Y-55400000D03*
X196700000Y-55400000D03*
X194900000Y-55400000D03*
X191400000Y-55400000D03*
X193200000Y-55400000D03*
X184400000Y-55400000D03*
X186200000Y-55400000D03*
X189700000Y-55400000D03*
X187900000Y-55400000D03*
X182700000Y-55400000D03*
X180900000Y-55400000D03*
X175600000Y-55400000D03*
X173800000Y-55400000D03*
X170300000Y-55400000D03*
X172100000Y-55400000D03*
X177300000Y-55400000D03*
X179100000Y-55400000D03*
X168600000Y-55400000D03*
X166800000Y-55400000D03*
X161600000Y-55400000D03*
X159800000Y-55400000D03*
X156300000Y-55400000D03*
X158100000Y-55400000D03*
X163300000Y-55400000D03*
X165100000Y-55400000D03*
X154600000Y-55400000D03*
X152800000Y-55400000D03*
X205400000Y-53400000D03*
X207200000Y-53400000D03*
X198400000Y-53400000D03*
X200200000Y-53400000D03*
X205400000Y-57400000D03*
X207200000Y-57400000D03*
X198400000Y-57400000D03*
X200200000Y-57400000D03*
X203700000Y-53400000D03*
X201900000Y-53400000D03*
X196700000Y-53400000D03*
X194900000Y-53400000D03*
X203700000Y-57400000D03*
X201900000Y-57400000D03*
X196700000Y-57400000D03*
X194900000Y-57400000D03*
X191400000Y-53400000D03*
X193200000Y-53400000D03*
X184400000Y-53400000D03*
X186200000Y-53400000D03*
X191400000Y-57400000D03*
X193200000Y-57400000D03*
X184400000Y-57400000D03*
X186200000Y-57400000D03*
X189700000Y-53400000D03*
X187900000Y-53400000D03*
X182700000Y-53400000D03*
X180900000Y-53400000D03*
X189700000Y-57400000D03*
X187900000Y-57400000D03*
X182700000Y-57400000D03*
X180900000Y-57400000D03*
X175600000Y-53400000D03*
X173800000Y-53400000D03*
X170300000Y-53400000D03*
X172100000Y-53400000D03*
X175600000Y-57400000D03*
X173800000Y-57400000D03*
X170300000Y-57400000D03*
X172100000Y-57400000D03*
X177300000Y-53400000D03*
X179100000Y-53400000D03*
X168600000Y-53400000D03*
X166800000Y-53400000D03*
X177300000Y-57400000D03*
X179100000Y-57400000D03*
X168600000Y-57400000D03*
X166800000Y-57400000D03*
X161600000Y-53400000D03*
X159800000Y-53400000D03*
X156300000Y-53400000D03*
X158100000Y-53400000D03*
X161600000Y-57400000D03*
X159800000Y-57400000D03*
X156300000Y-57400000D03*
X158100000Y-57400000D03*
X163300000Y-53400000D03*
X165100000Y-53400000D03*
X154600000Y-53400000D03*
X152800000Y-53400000D03*
X163300000Y-57400000D03*
X165100000Y-57400000D03*
X154600000Y-57400000D03*
X152800000Y-57400000D03*
D12*
X164760000Y-48700000D03*
D13*
X164760000Y-46160000D03*
X167300000Y-48700000D03*
X167300000Y-46160000D03*
X169840000Y-48700000D03*
X169840000Y-46160000D03*
X172380000Y-48700000D03*
X172380000Y-46160000D03*
X174920000Y-48700000D03*
X174920000Y-46160000D03*
X177460000Y-48700000D03*
X177460000Y-46160000D03*
X180000000Y-48700000D03*
X180000000Y-46160000D03*
X182540000Y-48700000D03*
X182540000Y-46160000D03*
X185080000Y-48700000D03*
X185080000Y-46160000D03*
X187620000Y-48700000D03*
X187620000Y-46160000D03*
X190160000Y-48700000D03*
X190160000Y-46160000D03*
X192700000Y-48700000D03*
X192700000Y-46160000D03*
X195240000Y-48700000D03*
X195240000Y-46160000D03*
D15*
X206000000Y-85400000D03*
X206000000Y-83600000D03*
X206000000Y-68400000D03*
X206000000Y-66600000D03*
X192000000Y-85400000D03*
X192000000Y-83600000D03*
X192000000Y-68400000D03*
X192000000Y-66600000D03*
X178000000Y-85400000D03*
X178000000Y-83600000D03*
X178000000Y-68400000D03*
X178000000Y-66600000D03*
X164000000Y-68400000D03*
X164000000Y-66600000D03*
X164000000Y-85400000D03*
X164000000Y-83600000D03*
X256000000Y-84300000D03*
X256000000Y-82500000D03*
X256000000Y-66200000D03*
X256000000Y-64400000D03*
X242000000Y-84300000D03*
X242000000Y-82500000D03*
X242000000Y-66200000D03*
X242000000Y-64400000D03*
X228000000Y-84300000D03*
X228000000Y-82500000D03*
X228000000Y-66200000D03*
X228000000Y-64400000D03*
X214000000Y-84300000D03*
X214000000Y-82500000D03*
X214000000Y-66200000D03*
X214000000Y-64400000D03*
D12*
X224760000Y-48700000D03*
D13*
X224760000Y-46160000D03*
X227300000Y-48700000D03*
X227300000Y-46160000D03*
X229840000Y-48700000D03*
X229840000Y-46160000D03*
X232380000Y-48700000D03*
X232380000Y-46160000D03*
X234920000Y-48700000D03*
X234920000Y-46160000D03*
X237460000Y-48700000D03*
X237460000Y-46160000D03*
X240000000Y-48700000D03*
X240000000Y-46160000D03*
X242540000Y-48700000D03*
X242540000Y-46160000D03*
X245080000Y-48700000D03*
X245080000Y-46160000D03*
X247620000Y-48700000D03*
X247620000Y-46160000D03*
X250160000Y-48700000D03*
X250160000Y-46160000D03*
X252700000Y-48700000D03*
X252700000Y-46160000D03*
X255240000Y-48700000D03*
X255240000Y-46160000D03*
D15*
X218000000Y-58900000D03*
X218000000Y-60700000D03*
D16*
X207900000Y-94200000D03*
X209700000Y-94200000D03*
D15*
X210300000Y-97900000D03*
X210300000Y-96100000D03*
X210300000Y-99800000D03*
X210300000Y-101600000D03*
D69*
X201298000Y-98900000D03*
D70*
X207902000Y-98900000D03*
X207902000Y-96614000D03*
X207902000Y-101186000D03*
D71*
X265800000Y-92600000D03*
X258180000Y-92600000D03*
D14*
X210000000Y-45800000D03*
D43*
X153800000Y-113800000D03*
D44*
X157800000Y-107800000D03*
X157800000Y-110800000D03*
X154800000Y-107800000D03*
X154800000Y-110800000D03*
D43*
X153860000Y-104800000D03*
D72*
X265700000Y-100400300D03*
X265700000Y-95599700D03*
D71*
X162200000Y-114020000D03*
X162200000Y-106400000D03*
D73*
X203495000Y-39500000D03*
X156505000Y-39500000D03*
D74*
X163490000Y-40940000D03*
D33*
X166284000Y-40940000D03*
X168951000Y-40940000D03*
X171745000Y-40940000D03*
X174539000Y-40940000D03*
X177333000Y-40940000D03*
X180000000Y-40940000D03*
X182794000Y-40940000D03*
X185588000Y-40940000D03*
X188382000Y-40940000D03*
X191049000Y-40940000D03*
X193843000Y-40940000D03*
X196637000Y-40940000D03*
X165064800Y-38100000D03*
X167604800Y-38100000D03*
X170398800Y-38100000D03*
X173142000Y-38100000D03*
X175885200Y-38100000D03*
X178679200Y-38100000D03*
X181422400Y-38100000D03*
X184165600Y-38100000D03*
X187010400Y-38100000D03*
X189702800Y-38100000D03*
X192446000Y-38100000D03*
X195240000Y-38100000D03*
D73*
X263495000Y-39500000D03*
X216505000Y-39500000D03*
D74*
X223490000Y-40940000D03*
D33*
X226284000Y-40940000D03*
X228951000Y-40940000D03*
X231745000Y-40940000D03*
X234539000Y-40940000D03*
X237333000Y-40940000D03*
X240000000Y-40940000D03*
X242794000Y-40940000D03*
X245588000Y-40940000D03*
X248382000Y-40940000D03*
X251049000Y-40940000D03*
X253843000Y-40940000D03*
X256637000Y-40940000D03*
X225064800Y-38100000D03*
X227604800Y-38100000D03*
X230398800Y-38100000D03*
X233142000Y-38100000D03*
X235885200Y-38100000D03*
X238679200Y-38100000D03*
X241422400Y-38100000D03*
X244165600Y-38100000D03*
X247010400Y-38100000D03*
X249702800Y-38100000D03*
X252446000Y-38100000D03*
X255240000Y-38100000D03*
D56*
X210000000Y-61400000D03*
D57*
X210000000Y-63400000D03*
D56*
X210000000Y-72600000D03*
D57*
X210000000Y-74600000D03*
D56*
X210000000Y-67000000D03*
D57*
X210000000Y-69000000D03*
D56*
X210000000Y-78200000D03*
D57*
X210000000Y-80200000D03*
D56*
X210000000Y-83800000D03*
D57*
X210000000Y-85800000D03*
D56*
X210000000Y-89400000D03*
D57*
X210000000Y-91400000D03*
D12*
X249370000Y-143860000D03*
D13*
X249370000Y-146400000D03*
X246830000Y-143860000D03*
X246830000Y-146400000D03*
X244290000Y-143860000D03*
X244290000Y-146400000D03*
X241750000Y-143860000D03*
X241750000Y-146400000D03*
X239210000Y-143860000D03*
X239210000Y-146400000D03*
X236670000Y-143860000D03*
X236670000Y-146400000D03*
X234130000Y-143860000D03*
X234130000Y-146400000D03*
X231590000Y-143860000D03*
X231590000Y-146400000D03*
X229050000Y-143860000D03*
X229050000Y-146400000D03*
X226510000Y-143860000D03*
X226510000Y-146400000D03*
X223970000Y-143860000D03*
X223970000Y-146400000D03*
X221430000Y-143860000D03*
X221430000Y-146400000D03*
X218890000Y-143860000D03*
X218890000Y-146400000D03*
X216350000Y-143860000D03*
X216350000Y-146400000D03*
X213810000Y-143860000D03*
X213810000Y-146400000D03*
X211270000Y-143860000D03*
X211270000Y-146400000D03*
X208730000Y-143860000D03*
X208730000Y-146400000D03*
X206190000Y-143860000D03*
X206190000Y-146400000D03*
X203650000Y-143860000D03*
X203650000Y-146400000D03*
X201110000Y-143860000D03*
X201110000Y-146400000D03*
X198570000Y-143860000D03*
X198570000Y-146400000D03*
X196030000Y-143860000D03*
X196030000Y-146400000D03*
X193490000Y-143860000D03*
X193490000Y-146400000D03*
X190950000Y-143860000D03*
X190950000Y-146400000D03*
X188410000Y-143860000D03*
X188410000Y-146400000D03*
X185870000Y-143860000D03*
X185870000Y-146400000D03*
X183330000Y-143860000D03*
X183330000Y-146400000D03*
X180790000Y-143860000D03*
X180790000Y-146400000D03*
X178250000Y-143860000D03*
X178250000Y-146400000D03*
X175710000Y-143860000D03*
X175710000Y-146400000D03*
X173170000Y-143860000D03*
X173170000Y-146400000D03*
X170630000Y-143860000D03*
X170630000Y-146400000D03*
D12*
X249370000Y-134200000D03*
D13*
X249370000Y-136740000D03*
X246830000Y-134200000D03*
X246830000Y-136740000D03*
X244290000Y-134200000D03*
X244290000Y-136740000D03*
X241750000Y-134200000D03*
X241750000Y-136740000D03*
X239210000Y-134200000D03*
X239210000Y-136740000D03*
X236670000Y-134200000D03*
X236670000Y-136740000D03*
X234130000Y-134200000D03*
X234130000Y-136740000D03*
X231590000Y-134200000D03*
X231590000Y-136740000D03*
X229050000Y-134200000D03*
X229050000Y-136740000D03*
X226510000Y-134200000D03*
X226510000Y-136740000D03*
X223970000Y-134200000D03*
X223970000Y-136740000D03*
X221430000Y-134200000D03*
X221430000Y-136740000D03*
X218890000Y-134200000D03*
X218890000Y-136740000D03*
X216350000Y-134200000D03*
X216350000Y-136740000D03*
X213810000Y-134200000D03*
X213810000Y-136740000D03*
X211270000Y-134200000D03*
X211270000Y-136740000D03*
X208730000Y-134200000D03*
X208730000Y-136740000D03*
X206190000Y-134200000D03*
X206190000Y-136740000D03*
X203650000Y-134200000D03*
X203650000Y-136740000D03*
X201110000Y-134200000D03*
X201110000Y-136740000D03*
X198570000Y-134200000D03*
X198570000Y-136740000D03*
X196030000Y-134200000D03*
X196030000Y-136740000D03*
X193490000Y-134200000D03*
X193490000Y-136740000D03*
X190950000Y-134200000D03*
X190950000Y-136740000D03*
X188410000Y-134200000D03*
X188410000Y-136740000D03*
X185870000Y-134200000D03*
X185870000Y-136740000D03*
X183330000Y-134200000D03*
X183330000Y-136740000D03*
X180790000Y-134200000D03*
X180790000Y-136740000D03*
X178250000Y-134200000D03*
X178250000Y-136740000D03*
X175710000Y-134200000D03*
X175710000Y-136740000D03*
X173170000Y-134200000D03*
X173170000Y-136740000D03*
X170630000Y-134200000D03*
X170630000Y-136740000D03*
M02*
