M48
;DRILL file {KiCad 4.0.7} date Friday, 13. April 2018 'u27' 16:27:25
;FORMAT={-:-/ absolute / metric / decimal}
FMAT,2
METRIC,TZ
T1C0.300
T2C0.800
T3C0.813
T4C1.001
T5C1.016
T6C1.100
T7C1.500
T8C2.301
T9C3.048
T10C3.200
T11C4.000
T12C1.100
%
G90
G05
M71
T1
X32.8Y-55.4
X32.8Y-57.4
X32.8Y-75.6
X32.8Y-77.9
X32.8Y-95.7
X32.824Y-93.376
X34.Y-70.1
X34.Y-73.6
X34.Y-87.1
X34.Y-90.6
X35.3Y-59.4
X35.3Y-60.2
X36.9Y-59.4
X36.9Y-60.2
X37.4Y-93.409
X38.1Y-55.4
X38.1Y-57.4
X38.6Y-93.409
X39.8Y-55.4
X39.8Y-57.4
X40.Y-69.4
X40.Y-73.6
X40.Y-86.4
X40.Y-90.6
X41.7Y-69.365
X41.7Y-86.365
X42.1Y-76.85
X44.Y-66.6
X44.Y-83.6
X44.385Y-62.4
X44.4Y-60.2
X44.4Y-79.4
X45.1Y-55.4
X45.1Y-57.4
X45.2Y-75.226
X45.2Y-77.6
X45.2Y-59.4
X46.8Y-55.4
X46.8Y-57.4
X46.8Y-60.2
X46.8Y-75.6
X46.8Y-77.9
X46.8Y-59.4
X47.6Y-62.4
X47.6Y-79.4
X48.Y-70.1
X48.Y-73.6
X48.Y-87.1
X48.Y-90.6
X49.3Y-59.4
X49.3Y-60.2
X49.6Y-105.
X51.Y-59.4
X51.Y-60.2
X51.1Y-97.1
X51.1Y-98.7
X51.2Y-113.2
X51.2Y-116.7
X52.1Y-55.4
X52.1Y-57.4
X52.4Y-99.7
X52.4Y-108.5
X53.2Y-113.2
X53.2Y-116.7
X53.8Y-55.4
X53.8Y-57.4
X54.Y-73.6
X54.Y-86.4
X54.Y-90.6
X54.025Y-69.4
X54.282Y-118.
X54.312Y-166.788
X54.316Y-169.054
X54.658Y-110.861
X54.756Y-116.494
X55.146Y-158.1
X55.2Y-103.2
X55.5Y-115.6
X55.7Y-69.365
X55.7Y-86.365
X56.1Y-76.85
X58.Y-66.6
X58.Y-83.6
X58.4Y-60.2
X58.4Y-62.4
X58.4Y-79.4
X58.4Y-103.2
X58.6Y-94.3
X59.1Y-55.4
X59.1Y-57.4
X59.2Y-59.4
X59.2Y-75.226
X59.2Y-77.6
X59.443Y-88.857
X59.85Y-92.1
X60.2Y-172.7
X60.8Y-59.4
X60.8Y-60.2
X60.8Y-75.5
X60.807Y-77.807
X60.9Y-55.4
X60.9Y-57.4
X61.45Y-94.3
X61.6Y-62.4
X61.6Y-103.2
X61.607Y-79.4
X62.Y-70.1
X62.Y-73.6
X62.Y-87.1
X62.Y-90.6
X63.3Y-59.4
X63.3Y-60.2
X64.8Y-103.2
X65.Y-59.4
X65.Y-60.2
X65.242Y-112.339
X65.332Y-110.85
X66.2Y-55.4
X66.2Y-57.4
X66.6Y-94.3
X66.7Y-169.2
X66.916Y-93.148
X67.4Y-162.575
X67.6Y-99.7
X67.6Y-101.5
X67.6Y-106.7
X67.9Y-51.5
X67.9Y-52.7
X67.9Y-55.4
X67.9Y-57.4
X68.Y-69.4
X68.Y-73.6
X68.Y-86.4
X68.Y-90.6
X68.2Y-93.429
X68.41Y-150.8
X68.6Y-94.814
X68.76Y-96.76
X69.6Y-101.5
X69.7Y-69.365
X69.7Y-86.365
X69.891Y-97.891
X72.Y-66.6
X72.Y-83.6
X72.4Y-60.2
X72.4Y-62.4
X72.4Y-79.4
X72.4Y-118.8
X72.4Y-121.2
X73.2Y-59.4
X73.2Y-55.4
X73.2Y-57.4
X73.2Y-77.6
X73.209Y-75.226
X73.7Y-115.9
X73.7Y-117.9
X74.3Y-94.2
X74.3Y-97.9
X74.7Y-160.304
X74.732Y-157.104
X74.8Y-77.9
X74.809Y-59.4
X74.809Y-60.2
X74.809Y-75.5
X74.9Y-55.4
X74.9Y-57.4
X75.5Y-109.9
X75.5Y-111.9
X75.5Y-113.9
X75.5Y-115.9
X75.5Y-117.9
X75.6Y-79.4
X75.609Y-62.4
X75.9Y-94.2
X75.9Y-97.9
X76.Y-70.1
X76.Y-73.6
X76.Y-87.1
X76.Y-90.6
X77.2Y-117.9
X77.3Y-59.4
X77.3Y-60.2
X77.3Y-157.104
X77.3Y-160.304
X78.7Y-120.8
X79.Y-113.9
X79.Y-115.9
X79.Y-117.9
X79.1Y-59.4
X79.1Y-60.2
X80.093Y-120.4
X80.1Y-118.2
X80.2Y-55.4
X80.2Y-57.4
X80.4Y-116.2
X80.4Y-117.
X80.7Y-109.9
X80.83Y-114.1
X80.893Y-118.8
X80.893Y-120.
X81.9Y-51.7
X81.9Y-52.9
X81.9Y-55.4
X81.9Y-57.4
X82.Y-69.4
X82.Y-73.6
X82.Y-86.4
X82.Y-90.6
X82.5Y-109.9
X83.7Y-69.365
X83.7Y-86.365
X86.Y-66.6
X86.Y-83.6
X86.3Y-65.2
X86.4Y-60.2
X87.2Y-59.4
X87.2Y-75.226
X87.2Y-55.4
X87.2Y-57.4
X87.207Y-77.507
X87.902Y-101.186
X88.73Y-150.8
X88.8Y-59.4
X88.8Y-60.2
X89.6Y-65.2
X89.7Y-94.2
X90.3Y-96.1
X90.3Y-101.6
X90.4Y-87.7
X91.2Y-94.2
X92.Y-53.
X92.Y-55.2
X92.Y-69.7
X92.8Y-71.1
X92.8Y-73.3
X92.8Y-86.
X93.6Y-53.
X93.6Y-55.2
X93.6Y-74.1
X94.Y-60.7
X94.Y-64.4
X94.Y-69.7
X94.Y-78.8
X94.Y-82.5
X94.9Y-197.996
X94.9Y-200.
X95.195Y-179.2
X95.4Y-172.1
X96.Y-60.7
X96.Y-78.8
X96.1Y-175.9
X96.2Y-51.4
X97.Y-180.2
X97.6Y-172.1
X97.929Y-175.071
X98.695Y-179.2
X98.7Y-181.2
X98.7Y-185.2
X99.Y-57.9
X99.Y-59.8
X99.Y-76.
X99.Y-77.9
X99.6Y-172.1
X99.6Y-175.2
X100.495Y-179.2
X100.5Y-181.2
X100.5Y-185.2
X101.6Y-172.1
X101.6Y-173.9
X101.776Y-50.776
X102.Y-58.9
X102.Y-77.
X102.85Y-175.5
X102.9Y-196.4
X102.9Y-204.4
X102.9Y-206.4
X102.917Y-199.594
X102.95Y-185.5
X103.482Y-178.75
X103.482Y-182.75
X103.6Y-172.1
X103.6Y-173.9
X103.7Y-176.4
X103.7Y-183.7
X103.7Y-184.7
X103.8Y-98.8
X103.9Y-189.8
X104.Y-58.9
X104.Y-64.2
X104.Y-67.9
X104.Y-77.
X104.Y-82.3
X104.2Y-206.4
X104.4Y-74.
X104.4Y-55.2
X104.5Y-177.2
X104.5Y-184.3
X104.791Y-190.791
X105.Y-195.6
X105.2Y-86.
X105.2Y-52.2
X105.2Y-53.
X105.2Y-69.526
X105.207Y-71.807
X105.554Y-197.2
X106.Y-190.8
X106.6Y-184.868
X106.6Y-95.8
X106.8Y-73.4
X106.8Y-52.2
X106.8Y-71.137
X107.1Y-116.1
X107.1Y-120.2
X107.6Y-74.
X107.6Y-53.
X107.6Y-55.2
X107.85Y-195.305
X108.Y-60.7
X108.Y-64.4
X108.Y-67.9
X108.Y-78.8
X108.Y-82.5
X108.Y-86.
X108.3Y-95.8
X108.4Y-192.765
X109.05Y-150.8
X109.5Y-107.8
X110.Y-60.7
X110.Y-78.8
X110.072Y-184.841
X110.2Y-192.765
X110.276Y-90.5
X110.634Y-184.835
X111.2Y-177.2
X111.4Y-195.635
X112.Y-176.4
X112.Y-183.4
X112.Y-184.6
X112.Y-192.835
X112.Y-195.035
X112.1Y-172.1
X112.1Y-187.
X112.1Y-188.8
X112.4Y-51.4
X112.4Y-53.8
X112.7Y-90.3
X112.7Y-193.435
X112.7Y-195.635
X112.85Y-175.5
X112.85Y-185.5
X113.Y-57.9
X113.Y-59.8
X113.Y-76.
X113.Y-77.9
X113.Y-104.6
X113.Y-106.6
X113.6Y-51.4
X113.6Y-53.8
X113.7Y-184.35
X114.1Y-172.1
X114.1Y-173.9
X114.1Y-188.8
X114.156Y-100.244
X114.8Y-108.3
X115.45Y-110.6
X115.6Y-108.6
X116.Y-58.9
X116.Y-77.
X116.05Y-110.
X116.095Y-188.7
X116.1Y-172.1
X116.1Y-173.9
X116.65Y-109.346
X116.756Y-95.944
X117.25Y-110.6
X117.5Y-190.1
X117.85Y-110.
X118.Y-58.9
X118.Y-64.2
X118.Y-67.9
X118.Y-77.
X118.Y-82.3
X118.398Y-90.1
X118.4Y-55.2
X118.4Y-74.
X118.5Y-109.346
X118.7Y-190.1
X119.Y-191.5
X119.1Y-110.
X119.2Y-52.2
X119.2Y-86.
X119.2Y-53.
X119.2Y-53.
X119.2Y-69.626
X119.207Y-71.907
X119.5Y-108.6
X120.Y-90.1
X120.1Y-201.1
X120.1Y-203.6
X120.2Y-109.3
X120.793Y-70.893
X120.8Y-52.2
X120.8Y-73.2
X120.8Y-85.991
X120.856Y-95.544
X120.856Y-97.544
X121.6Y-53.
X121.6Y-55.2
X121.6Y-74.013
X121.7Y-90.1
X122.Y-60.7
X122.Y-64.4
X122.Y-67.9
X122.Y-78.8
X122.Y-82.5
X122.4Y-108.4
X122.4Y-110.2
X123.156Y-95.944
X124.Y-60.7
X124.Y-78.8
X124.2Y-50.8
X124.4Y-110.2
X125.3Y-51.4
X125.3Y-53.8
X125.956Y-100.344
X126.4Y-108.4
X126.4Y-110.2
X127.Y-57.9
X127.Y-59.8
X127.Y-76.
X127.Y-77.9
X127.4Y-90.3
X127.5Y-177.9
X128.4Y-192.444
X128.4Y-194.044
X128.456Y-108.4
X129.056Y-108.998
X129.37Y-150.8
X129.5Y-118.2
X129.8Y-193.044
X129.8Y-90.3
X129.824Y-181.
X130.Y-58.9
X130.Y-77.
X130.Y-117.1
X130.6Y-115.
X131.2Y-115.6
X132.Y-58.9
X132.Y-64.2
X132.Y-67.9
X132.Y-77.
X132.Y-82.3
X132.4Y-55.2
X132.4Y-74.
X132.5Y-52.2
X133.2Y-53.
X133.2Y-69.6
X133.2Y-72.
X133.2Y-80.5
X133.2Y-86.
X133.2Y-115.
X133.2Y-117.1
X133.9Y-118.2
X134.1Y-115.6
X134.8Y-52.2
X134.8Y-70.9
X134.8Y-86.
X134.8Y-73.2
X135.6Y-53.
X135.6Y-55.2
X135.6Y-74.
X136.Y-60.7
X136.Y-64.4
X136.Y-67.9
X136.Y-78.8
X136.Y-82.5
X136.085Y-185.3
X136.7Y-184.7
X136.7Y-201.3
X136.7Y-202.9
X137.364Y-185.157
X137.549Y-185.94
X137.7Y-196.1
X137.7Y-201.7
X137.927Y-180.402
X138.Y-60.7
X138.Y-78.8
X138.1Y-182.8
X138.1Y-183.65
X138.2Y-52.2
X138.2Y-177.15
X138.2Y-179.65
X138.214Y-128.9
X138.3Y-195.534
X138.3Y-202.3
X138.377Y-190.777
X140.588Y-169.612
X140.7Y-175.9
X140.7Y-178.4
X141.Y-57.9
X141.Y-59.8
X141.Y-76.
X141.Y-77.9
X141.Y-129.7
X141.525Y-184.7
X141.525Y-188.3
X142.25Y-172.1
X143.25Y-190.7
X143.3Y-116.3
X143.3Y-118.3
X143.8Y-52.2
X144.Y-58.9
X144.Y-77.
X144.25Y-169.594
X144.424Y-193.276
X144.75Y-172.1
X144.8Y-198.2
X145.1Y-102.3
X145.6Y-190.7
X146.Y-58.9
X146.Y-64.2
X146.Y-77.
X146.Y-82.3
X146.1Y-201.3
X146.1Y-203.2
X146.4Y-198.2
X147.2Y-69.341
X147.202Y-71.602
X147.55Y-190.7
X148.4Y-197.9
X148.75Y-193.2
X149.75Y-193.2
X150.25Y-172.1
X151.25Y-169.594
X152.55Y-172.1
X152.8Y-55.4
X152.8Y-57.4
X152.8Y-75.6
X152.8Y-77.9
X152.8Y-95.7
X152.824Y-93.376
X153.473Y-198.797
X154.Y-70.1
X154.Y-73.6
X154.Y-87.1
X154.Y-90.6
X155.25Y-172.1
X155.25Y-190.7
X155.3Y-59.4
X155.3Y-60.2
X155.75Y-169.594
X155.75Y-193.2
X156.9Y-59.4
X156.9Y-60.2
X157.4Y-93.409
X157.55Y-172.1
X157.55Y-190.7
X157.9Y-199.4
X158.1Y-55.4
X158.1Y-57.4
X158.6Y-93.409
X159.3Y-174.3
X159.3Y-176.65
X159.3Y-182.15
X159.3Y-184.5
X159.3Y-185.65
X159.7Y-196.1
X159.8Y-55.4
X159.8Y-57.4
X160.Y-69.4
X160.Y-73.6
X160.Y-86.4
X160.Y-90.6
X160.7Y-172.
X161.1Y-197.
X161.7Y-69.365
X161.7Y-86.365
X161.806Y-175.65
X161.806Y-183.15
X162.1Y-76.85
X163.1Y-197.
X164.Y-66.6
X164.Y-83.6
X164.385Y-62.4
X164.4Y-60.2
X164.4Y-79.4
X164.6Y-199.8
X164.6Y-201.9
X164.7Y-191.5
X165.1Y-55.4
X165.1Y-57.4
X165.2Y-75.226
X165.2Y-77.6
X165.2Y-59.4
X166.8Y-55.4
X166.8Y-57.4
X166.8Y-60.2
X166.8Y-75.6
X166.8Y-77.9
X166.8Y-59.4
X167.1Y-183.2
X167.1Y-186.966
X167.6Y-62.4
X167.6Y-79.4
X167.9Y-183.2
X167.9Y-187.366
X168.Y-70.1
X168.Y-73.6
X168.Y-87.1
X168.Y-90.6
X168.5Y-183.766
X168.5Y-187.9
X169.3Y-59.4
X169.3Y-60.2
X169.6Y-105.
X171.Y-59.4
X171.Y-60.2
X171.1Y-97.1
X171.1Y-98.7
X171.2Y-113.2
X171.2Y-116.7
X172.1Y-55.4
X172.1Y-57.4
X172.4Y-99.7
X172.4Y-108.5
X172.7Y-206.
X173.2Y-113.2
X173.2Y-116.7
X173.8Y-55.4
X173.8Y-57.4
X174.Y-73.6
X174.Y-86.4
X174.Y-90.6
X174.Y-196.8
X174.025Y-69.4
X174.282Y-118.
X174.658Y-110.861
X174.756Y-116.494
X175.2Y-103.2
X175.5Y-115.6
X175.7Y-69.365
X175.7Y-86.365
X176.Y-196.8
X176.1Y-76.85
X178.Y-66.6
X178.Y-83.6
X178.4Y-60.2
X178.4Y-62.4
X178.4Y-79.4
X178.4Y-103.2
X178.6Y-94.3
X179.1Y-55.4
X179.1Y-57.4
X179.2Y-59.4
X179.2Y-75.226
X179.2Y-77.6
X179.443Y-88.857
X179.85Y-92.1
X180.8Y-59.4
X180.8Y-60.2
X180.8Y-75.5
X180.807Y-77.807
X180.9Y-55.4
X180.9Y-57.4
X180.9Y-206.2
X181.45Y-94.3
X181.6Y-62.4
X181.6Y-103.2
X181.607Y-79.4
X182.Y-70.1
X182.Y-73.6
X182.Y-87.1
X182.Y-90.6
X182.3Y-167.5
X182.3Y-172.1
X183.Y-166.9
X183.Y-171.5
X183.3Y-59.4
X183.3Y-60.2
X184.8Y-103.2
X185.Y-59.4
X185.Y-60.2
X185.242Y-112.339
X185.3Y-166.9
X185.3Y-170.7
X185.332Y-110.85
X185.6Y-208.2
X185.9Y-167.5
X185.9Y-171.3
X186.2Y-55.4
X186.2Y-57.4
X186.6Y-94.3
X186.916Y-93.148
X187.6Y-99.7
X187.6Y-101.5
X187.6Y-106.7
X187.9Y-51.5
X187.9Y-52.7
X187.9Y-55.4
X187.9Y-57.4
X188.Y-69.4
X188.Y-73.6
X188.Y-86.4
X188.Y-90.6
X188.2Y-93.429
X188.41Y-150.8
X188.6Y-94.814
X188.76Y-96.76
X189.4Y-204.
X189.6Y-101.5
X189.7Y-69.365
X189.7Y-86.365
X189.891Y-97.891
X190.3Y-205.4
X192.Y-66.6
X192.Y-83.6
X192.4Y-60.2
X192.4Y-62.4
X192.4Y-79.4
X192.4Y-118.8
X192.4Y-121.2
X193.2Y-59.4
X193.2Y-55.4
X193.2Y-57.4
X193.2Y-77.6
X193.209Y-75.226
X193.7Y-115.9
X193.7Y-117.9
X194.Y-190.2
X194.Y-192.
X194.3Y-94.2
X194.3Y-97.9
X194.8Y-77.9
X194.809Y-59.4
X194.809Y-60.2
X194.809Y-75.5
X194.9Y-55.4
X194.9Y-57.4
X195.4Y-177.4
X195.5Y-109.9
X195.5Y-111.9
X195.5Y-113.9
X195.5Y-115.9
X195.5Y-117.9
X195.6Y-79.4
X195.609Y-62.4
X195.9Y-94.2
X195.9Y-97.9
X196.Y-70.1
X196.Y-73.6
X196.Y-87.1
X196.Y-90.6
X196.2Y-194.4
X196.2Y-198.4
X196.303Y-182.816
X197.2Y-117.9
X197.3Y-59.4
X197.3Y-60.2
X197.8Y-179.2
X197.8Y-182.7
X198.Y-208.2
X198.225Y-189.43
X198.5Y-196.1
X198.5Y-197.3
X198.7Y-120.8
X199.Y-113.9
X199.Y-115.9
X199.Y-117.9
X199.1Y-59.4
X199.1Y-60.2
X199.1Y-195.5
X199.1Y-196.7
X199.3Y-186.9
X199.45Y-177.1
X199.45Y-178.5
X199.45Y-180.9
X199.45Y-184.5
X199.526Y-191.2
X200.Y-185.724
X200.Y-187.7
X200.093Y-120.4
X200.1Y-118.2
X200.2Y-55.4
X200.2Y-57.4
X200.4Y-116.2
X200.4Y-117.
X200.55Y-177.1
X200.55Y-178.5
X200.55Y-184.5
X200.55Y-186.9
X200.7Y-109.9
X200.83Y-114.1
X200.893Y-118.8
X200.893Y-120.
X201.4Y-191.2
X201.9Y-51.7
X201.9Y-52.9
X201.9Y-55.4
X201.9Y-57.4
X202.Y-69.4
X202.Y-73.6
X202.Y-86.4
X202.Y-90.6
X202.1Y-196.1
X202.1Y-197.3
X202.5Y-109.9
X202.748Y-196.7
X202.8Y-195.5
X203.159Y-178.109
X203.4Y-184.5
X203.4Y-186.9
X203.7Y-69.365
X203.7Y-86.365
X203.952Y-178.5
X204.3Y-167.5
X204.3Y-170.7
X204.5Y-177.1
X205.3Y-170.85
X205.3Y-171.95
X205.3Y-174.9
X205.6Y-187.7
X205.6Y-191.05
X205.6Y-192.15
X205.95Y-197.6
X206.Y-66.6
X206.Y-83.6
X206.3Y-65.2
X206.4Y-60.2
X207.2Y-59.4
X207.2Y-75.226
X207.2Y-55.4
X207.2Y-57.4
X207.207Y-77.507
X207.4Y-170.85
X207.4Y-171.95
X207.4Y-175.7
X207.641Y-197.6
X207.7Y-186.9
X207.7Y-191.05
X207.7Y-192.15
X207.902Y-101.186
X208.73Y-150.8
X208.8Y-59.4
X208.8Y-60.2
X209.1Y-170.85
X209.2Y-187.7
X209.2Y-191.05
X209.2Y-192.15
X209.6Y-65.2
X209.7Y-94.2
X209.9Y-205.3
X209.9Y-207.3
X210.3Y-96.1
X210.3Y-101.6
X210.3Y-170.85
X210.3Y-186.9
X210.3Y-191.05
X210.3Y-192.15
X210.4Y-87.7
X211.2Y-94.2
X211.5Y-187.7
X211.5Y-191.05
X211.5Y-192.15
X211.7Y-171.95
X211.7Y-175.7
X212.Y-53.
X212.Y-55.2
X212.Y-69.7
X212.568Y-157.104
X212.6Y-161.504
X212.8Y-71.1
X212.8Y-73.3
X212.8Y-86.
X213.Y-170.85
X213.Y-186.9
X213.Y-191.05
X213.Y-192.15
X213.6Y-53.
X213.6Y-55.2
X213.6Y-74.1
X214.Y-60.7
X214.Y-64.4
X214.Y-69.7
X214.Y-78.8
X214.Y-82.5
X214.8Y-178.1
X214.8Y-181.3
X214.8Y-184.9
X214.953Y-187.053
X215.Y-191.05
X215.Y-192.15
X215.1Y-157.104
X215.1Y-161.504
X215.4Y-170.85
X215.4Y-171.95
X215.4Y-174.9
X215.646Y-180.1
X215.646Y-183.7
X215.9Y-164.3
X215.9Y-169.1
X216.Y-60.7
X216.Y-78.8
X216.2Y-51.4
X219.Y-57.9
X219.Y-59.8
X219.Y-76.
X219.Y-77.9
X219.495Y-188.7
X219.55Y-178.1
X219.55Y-180.1
X219.55Y-181.3
X219.55Y-184.9
X219.6Y-183.7
X219.7Y-169.7
X219.7Y-170.5
X220.65Y-177.3
X220.65Y-178.9
X220.65Y-180.1
X220.65Y-181.3
X220.65Y-183.7
X220.65Y-184.9
X220.65Y-186.5
X221.776Y-50.776
X222.Y-58.9
X222.Y-77.
X222.1Y-170.5
X222.3Y-179.4
X222.7Y-169.7
X223.8Y-98.8
X224.Y-58.9
X224.Y-64.2
X224.Y-67.9
X224.Y-77.
X224.Y-82.3
X224.4Y-74.
X224.4Y-55.2
X225.Y-196.2
X225.1Y-169.7
X225.2Y-86.
X225.2Y-52.2
X225.2Y-53.
X225.2Y-69.526
X225.207Y-71.807
X225.7Y-170.3
X226.6Y-95.8
X226.8Y-73.4
X226.8Y-52.2
X226.8Y-71.137
X227.1Y-116.1
X227.1Y-120.2
X227.6Y-74.
X227.6Y-53.
X227.6Y-55.2
X228.Y-60.7
X228.Y-64.4
X228.Y-67.9
X228.Y-78.8
X228.Y-82.5
X228.Y-86.
X228.3Y-95.8
X229.Y-188.9
X229.05Y-150.8
X229.5Y-107.8
X230.Y-60.7
X230.Y-78.8
X230.276Y-90.5
X230.7Y-207.5
X232.4Y-51.4
X232.4Y-53.8
X232.7Y-90.3
X233.Y-57.9
X233.Y-59.8
X233.Y-76.
X233.Y-77.9
X233.Y-104.6
X233.Y-106.6
X233.Y-196.8
X233.6Y-51.4
X233.6Y-53.8
X234.156Y-100.244
X234.8Y-108.3
X235.Y-196.8
X235.4Y-159.504
X235.45Y-110.6
X235.6Y-108.6
X236.Y-161.3
X236.Y-58.9
X236.Y-77.
X236.05Y-110.
X236.65Y-109.346
X236.756Y-95.944
X236.8Y-165.6
X236.8Y-167.2
X237.25Y-110.6
X237.6Y-161.3
X237.85Y-110.
X237.9Y-159.504
X238.Y-58.9
X238.Y-64.2
X238.Y-67.9
X238.Y-77.
X238.Y-82.3
X238.398Y-90.1
X238.4Y-55.2
X238.4Y-74.
X238.5Y-109.346
X239.1Y-110.
X239.2Y-52.2
X239.2Y-86.
X239.2Y-53.
X239.2Y-53.
X239.2Y-69.626
X239.207Y-71.907
X239.5Y-108.6
X239.6Y-186.7
X239.9Y-206.2
X240.Y-90.1
X240.2Y-109.3
X240.793Y-70.893
X240.8Y-52.2
X240.8Y-171.9
X240.8Y-73.2
X240.8Y-85.991
X240.856Y-95.544
X240.856Y-97.544
X241.6Y-53.
X241.6Y-55.2
X241.6Y-74.013
X241.7Y-90.1
X242.Y-60.7
X242.Y-64.4
X242.Y-67.9
X242.Y-78.8
X242.Y-82.5
X242.2Y-186.9
X242.4Y-108.4
X242.4Y-110.2
X243.156Y-95.944
X244.Y-60.7
X244.Y-78.8
X244.1Y-192.9
X244.2Y-50.8
X244.4Y-110.2
X245.3Y-51.4
X245.3Y-53.8
X245.956Y-100.344
X246.4Y-108.4
X246.4Y-110.2
X247.Y-57.9
X247.Y-59.8
X247.Y-76.
X247.Y-77.9
X247.1Y-207.5
X247.4Y-90.3
X248.456Y-108.4
X249.056Y-108.998
X249.2Y-162.1
X249.37Y-150.8
X249.4Y-196.8
X249.5Y-118.2
X249.8Y-90.3
X250.Y-58.9
X250.Y-77.
X250.Y-117.1
X250.1Y-167.8
X250.1Y-168.7
X250.6Y-115.
X250.7Y-161.1
X251.2Y-115.6
X251.4Y-196.8
X251.9Y-161.1
X252.Y-58.9
X252.Y-64.2
X252.Y-67.9
X252.Y-77.
X252.Y-82.3
X252.2Y-190.2
X252.4Y-55.2
X252.4Y-74.
X252.5Y-52.2
X253.2Y-53.
X253.2Y-69.6
X253.2Y-72.
X253.2Y-80.5
X253.2Y-86.
X253.2Y-115.
X253.2Y-117.1
X253.8Y-192.1
X253.9Y-118.2
X254.1Y-115.6
X254.8Y-52.2
X254.8Y-70.9
X254.8Y-86.
X254.8Y-73.2
X255.6Y-53.
X255.6Y-55.2
X255.6Y-74.
X256.Y-60.7
X256.Y-64.4
X256.Y-67.9
X256.Y-78.8
X256.Y-82.5
X256.3Y-206.2
X258.Y-60.7
X258.Y-78.8
X258.2Y-52.2
X258.214Y-128.9
X259.9Y-193.9
X261.Y-57.9
X261.Y-59.8
X261.Y-76.
X261.Y-77.9
X261.Y-129.7
X263.3Y-116.3
X263.3Y-118.3
X263.8Y-52.2
X264.Y-58.9
X264.Y-77.
X265.1Y-102.3
X266.Y-58.9
X266.Y-64.2
X266.Y-77.
X266.Y-82.3
X267.2Y-69.341
X267.202Y-71.602
T2
X35.9Y-61.4
X35.9Y-63.4
X35.9Y-78.4
X35.9Y-80.4
X42.1Y-61.4
X42.1Y-63.4
X42.1Y-78.4
X42.1Y-80.4
X47.6Y-103.
X49.6Y-103.
X49.9Y-61.4
X49.9Y-63.4
X49.9Y-78.4
X49.9Y-80.4
X56.1Y-61.4
X56.1Y-63.4
X56.1Y-78.4
X56.1Y-80.4
X56.2Y-96.1
X58.2Y-96.1
X61.8Y-96.1
X63.8Y-96.1
X63.9Y-61.4
X63.9Y-63.4
X63.9Y-78.4
X63.9Y-80.4
X70.1Y-61.4
X70.1Y-63.4
X70.1Y-78.4
X70.1Y-80.4
X70.4Y-103.
X72.4Y-103.
X77.9Y-61.4
X77.9Y-63.4
X77.9Y-78.4
X77.9Y-80.4
X84.1Y-61.4
X84.1Y-63.4
X84.1Y-78.4
X84.1Y-80.4
X90.Y-61.4
X90.Y-63.4
X90.Y-67.
X90.Y-69.
X90.Y-72.6
X90.Y-74.6
X90.Y-78.2
X90.Y-80.2
X90.Y-83.8
X90.Y-85.8
X90.Y-89.4
X90.Y-91.4
X96.2Y-54.2
X96.2Y-56.2
X96.2Y-72.4
X96.2Y-74.4
X101.8Y-54.2
X101.8Y-56.2
X101.8Y-72.4
X101.8Y-74.4
X110.2Y-54.2
X110.2Y-56.2
X110.2Y-72.4
X110.2Y-74.4
X110.3Y-99.9
X110.3Y-101.9
X115.8Y-54.2
X115.8Y-56.2
X115.8Y-72.4
X115.8Y-74.4
X116.8Y-91.3
X116.8Y-93.3
X123.2Y-91.3
X123.2Y-93.3
X124.2Y-54.2
X124.2Y-56.2
X124.2Y-72.4
X124.2Y-74.4
X129.8Y-54.2
X129.8Y-56.2
X129.8Y-72.4
X129.8Y-74.4
X129.9Y-99.9
X129.9Y-101.9
X138.2Y-54.2
X138.2Y-56.2
X138.2Y-72.3
X138.2Y-74.3
X143.8Y-54.2
X143.8Y-56.2
X143.8Y-72.3
X143.8Y-74.3
X155.9Y-61.4
X155.9Y-63.4
X155.9Y-78.4
X155.9Y-80.4
X162.1Y-61.4
X162.1Y-63.4
X162.1Y-78.4
X162.1Y-80.4
X167.6Y-103.
X169.6Y-103.
X169.9Y-61.4
X169.9Y-63.4
X169.9Y-78.4
X169.9Y-80.4
X176.1Y-61.4
X176.1Y-63.4
X176.1Y-78.4
X176.1Y-80.4
X176.2Y-96.1
X178.2Y-96.1
X181.8Y-96.1
X183.8Y-96.1
X183.9Y-61.4
X183.9Y-63.4
X183.9Y-78.4
X183.9Y-80.4
X190.1Y-61.4
X190.1Y-63.4
X190.1Y-78.4
X190.1Y-80.4
X190.4Y-103.
X192.4Y-103.
X197.9Y-61.4
X197.9Y-63.4
X197.9Y-78.4
X197.9Y-80.4
X204.1Y-61.4
X204.1Y-63.4
X204.1Y-78.4
X204.1Y-80.4
X210.Y-61.4
X210.Y-63.4
X210.Y-67.
X210.Y-69.
X210.Y-72.6
X210.Y-74.6
X210.Y-78.2
X210.Y-80.2
X210.Y-83.8
X210.Y-85.8
X210.Y-89.4
X210.Y-91.4
X216.2Y-54.2
X216.2Y-56.2
X216.2Y-72.4
X216.2Y-74.4
X221.8Y-54.2
X221.8Y-56.2
X221.8Y-72.4
X221.8Y-74.4
X230.2Y-54.2
X230.2Y-56.2
X230.2Y-72.4
X230.2Y-74.4
X230.3Y-99.9
X230.3Y-101.9
X235.8Y-54.2
X235.8Y-56.2
X235.8Y-72.4
X235.8Y-74.4
X236.8Y-91.3
X236.8Y-93.3
X243.2Y-91.3
X243.2Y-93.3
X244.2Y-54.2
X244.2Y-56.2
X244.2Y-72.4
X244.2Y-74.4
X249.8Y-54.2
X249.8Y-56.2
X249.8Y-72.4
X249.8Y-74.4
X249.9Y-99.9
X249.9Y-101.9
X258.2Y-54.2
X258.2Y-56.2
X258.2Y-72.3
X258.2Y-74.3
X263.73Y-162.285
X263.73Y-164.825
X263.73Y-167.365
X263.73Y-169.905
X263.73Y-172.445
X263.8Y-54.2
X263.8Y-56.2
X263.8Y-72.3
X263.8Y-74.3
X266.27Y-163.555
X266.27Y-166.095
X266.27Y-168.635
X266.27Y-171.175
X266.27Y-173.715
T3
X257.Y-184.
X257.Y-186.54
X258.999Y-184.
X258.999Y-186.54
T4
X42.2Y-106.4
X42.2Y-114.02
X138.18Y-92.6
X145.8Y-92.6
X162.2Y-106.4
X162.2Y-114.02
X258.18Y-92.6
X265.8Y-92.6
T5
X43.49Y-40.94
X44.76Y-46.16
X44.76Y-48.7
X45.065Y-38.1
X46.284Y-40.94
X47.3Y-46.16
X47.3Y-48.7
X47.605Y-38.1
X48.951Y-40.94
X49.84Y-46.16
X49.84Y-48.7
X50.399Y-38.1
X50.63Y-134.2
X50.63Y-136.74
X50.63Y-143.86
X50.63Y-146.4
X50.63Y-154.
X50.63Y-156.54
X51.745Y-40.94
X52.38Y-46.16
X52.38Y-48.7
X53.142Y-38.1
X53.17Y-134.2
X53.17Y-136.74
X53.17Y-143.86
X53.17Y-146.4
X53.17Y-154.
X53.17Y-156.54
X54.539Y-40.94
X54.92Y-46.16
X54.92Y-48.7
X55.71Y-134.2
X55.71Y-136.74
X55.71Y-143.86
X55.71Y-146.4
X55.71Y-154.
X55.71Y-156.54
X55.885Y-38.1
X57.333Y-40.94
X57.46Y-46.16
X57.46Y-48.7
X58.25Y-134.2
X58.25Y-136.74
X58.25Y-143.86
X58.25Y-146.4
X58.25Y-154.
X58.25Y-156.54
X58.679Y-38.1
X60.Y-40.94
X60.Y-46.16
X60.Y-48.7
X60.79Y-134.2
X60.79Y-136.74
X60.79Y-143.86
X60.79Y-146.4
X60.79Y-154.
X60.79Y-156.54
X61.422Y-38.1
X62.54Y-46.16
X62.54Y-48.7
X62.794Y-40.94
X63.33Y-134.2
X63.33Y-136.74
X63.33Y-143.86
X63.33Y-146.4
X63.33Y-154.
X63.33Y-156.54
X64.166Y-38.1
X65.08Y-46.16
X65.08Y-48.7
X65.588Y-40.94
X65.87Y-134.2
X65.87Y-136.74
X65.87Y-143.86
X65.87Y-146.4
X65.87Y-154.
X65.87Y-156.54
X67.01Y-38.1
X67.62Y-46.16
X67.62Y-48.7
X68.382Y-40.94
X68.41Y-134.2
X68.41Y-136.74
X68.41Y-143.86
X68.41Y-146.4
X68.41Y-154.
X68.41Y-156.54
X69.703Y-38.1
X70.16Y-46.16
X70.16Y-48.7
X70.95Y-134.2
X70.95Y-136.74
X70.95Y-143.86
X70.95Y-146.4
X70.95Y-154.
X70.95Y-156.54
X71.049Y-40.94
X72.446Y-38.1
X72.7Y-46.16
X72.7Y-48.7
X73.49Y-134.2
X73.49Y-136.74
X73.49Y-143.86
X73.49Y-146.4
X73.49Y-154.
X73.49Y-156.54
X73.843Y-40.94
X75.24Y-38.1
X75.24Y-46.16
X75.24Y-48.7
X76.03Y-134.2
X76.03Y-136.74
X76.03Y-143.86
X76.03Y-146.4
X76.03Y-154.
X76.03Y-156.54
X76.637Y-40.94
X78.57Y-134.2
X78.57Y-136.74
X78.57Y-143.86
X78.57Y-146.4
X78.57Y-154.
X78.57Y-156.54
X81.11Y-134.2
X81.11Y-136.74
X81.11Y-143.86
X81.11Y-146.4
X81.11Y-154.
X81.11Y-156.54
X83.65Y-134.2
X83.65Y-136.74
X83.65Y-143.86
X83.65Y-146.4
X83.65Y-154.
X83.65Y-156.54
X86.19Y-134.2
X86.19Y-136.74
X86.19Y-143.86
X86.19Y-146.4
X86.19Y-154.
X86.19Y-156.54
X88.73Y-134.2
X88.73Y-136.74
X88.73Y-143.86
X88.73Y-146.4
X88.73Y-154.
X88.73Y-156.54
X91.27Y-134.2
X91.27Y-136.74
X91.27Y-143.86
X91.27Y-146.4
X91.27Y-154.
X91.27Y-156.54
X93.81Y-134.2
X93.81Y-136.74
X93.81Y-143.86
X93.81Y-146.4
X93.81Y-154.
X93.81Y-156.54
X96.35Y-134.2
X96.35Y-136.74
X96.35Y-143.86
X96.35Y-146.4
X96.35Y-154.
X96.35Y-156.54
X98.89Y-134.2
X98.89Y-136.74
X98.89Y-143.86
X98.89Y-146.4
X98.89Y-154.
X98.89Y-156.54
X99.08Y-200.36
X99.08Y-202.9
X101.43Y-134.2
X101.43Y-136.74
X101.43Y-143.86
X101.43Y-146.4
X101.43Y-154.
X101.43Y-156.54
X101.62Y-200.36
X101.62Y-202.9
X103.49Y-40.94
X103.97Y-134.2
X103.97Y-136.74
X103.97Y-143.86
X103.97Y-146.4
X103.97Y-154.
X103.97Y-156.54
X104.16Y-200.36
X104.16Y-202.9
X104.76Y-46.16
X104.76Y-48.7
X105.065Y-38.1
X106.284Y-40.94
X106.51Y-134.2
X106.51Y-136.74
X106.51Y-143.86
X106.51Y-146.4
X106.51Y-154.
X106.51Y-156.54
X106.7Y-200.36
X106.7Y-202.9
X107.3Y-46.16
X107.3Y-48.7
X107.605Y-38.1
X108.951Y-40.94
X109.05Y-134.2
X109.05Y-136.74
X109.05Y-143.86
X109.05Y-146.4
X109.05Y-154.
X109.05Y-156.54
X109.24Y-200.36
X109.24Y-202.9
X109.84Y-46.16
X109.84Y-48.7
X110.399Y-38.1
X111.59Y-134.2
X111.59Y-136.74
X111.59Y-143.86
X111.59Y-146.4
X111.59Y-154.
X111.59Y-156.54
X111.745Y-40.94
X112.38Y-46.16
X112.38Y-48.7
X113.142Y-38.1
X114.13Y-134.2
X114.13Y-136.74
X114.13Y-143.86
X114.13Y-146.4
X114.13Y-154.
X114.13Y-156.54
X114.539Y-40.94
X114.92Y-46.16
X114.92Y-48.7
X115.885Y-38.1
X116.67Y-134.2
X116.67Y-136.74
X116.67Y-143.86
X116.67Y-146.4
X116.67Y-154.
X116.67Y-156.54
X117.333Y-40.94
X117.46Y-46.16
X117.46Y-48.7
X118.679Y-38.1
X119.21Y-134.2
X119.21Y-136.74
X119.21Y-143.86
X119.21Y-146.4
X119.21Y-154.
X119.21Y-156.54
X119.3Y-194.3
X119.3Y-196.84
X120.Y-40.94
X120.Y-46.16
X120.Y-48.7
X121.422Y-38.1
X121.75Y-134.2
X121.75Y-136.74
X121.75Y-143.86
X121.75Y-146.4
X121.75Y-154.
X121.75Y-156.54
X122.54Y-46.16
X122.54Y-48.7
X122.794Y-40.94
X124.166Y-38.1
X124.29Y-134.2
X124.29Y-136.74
X124.29Y-143.86
X124.29Y-146.4
X124.29Y-154.
X124.29Y-156.54
X125.08Y-46.16
X125.08Y-48.7
X125.588Y-40.94
X126.83Y-134.2
X126.83Y-136.74
X126.83Y-143.86
X126.83Y-146.4
X126.83Y-154.
X126.83Y-156.54
X127.01Y-38.1
X127.62Y-46.16
X127.62Y-48.7
X128.382Y-40.94
X128.46Y-181.86
X128.46Y-184.4
X128.46Y-186.94
X128.46Y-189.48
X129.37Y-134.2
X129.37Y-136.74
X129.37Y-143.86
X129.37Y-146.4
X129.37Y-154.
X129.37Y-156.54
X129.703Y-38.1
X130.16Y-46.16
X130.16Y-48.7
X131.Y-181.86
X131.Y-184.4
X131.Y-186.94
X131.Y-189.48
X131.049Y-40.94
X132.446Y-38.1
X132.7Y-46.16
X132.7Y-48.7
X133.843Y-40.94
X135.24Y-38.1
X135.24Y-46.16
X135.24Y-48.7
X136.637Y-40.94
X163.49Y-40.94
X164.76Y-46.16
X164.76Y-48.7
X165.065Y-38.1
X166.284Y-40.94
X167.3Y-46.16
X167.3Y-48.7
X167.605Y-38.1
X168.951Y-40.94
X169.84Y-46.16
X169.84Y-48.7
X170.399Y-38.1
X170.63Y-134.2
X170.63Y-136.74
X170.63Y-143.86
X170.63Y-146.4
X170.63Y-154.
X170.63Y-156.54
X171.745Y-40.94
X172.38Y-46.16
X172.38Y-48.7
X173.142Y-38.1
X173.17Y-134.2
X173.17Y-136.74
X173.17Y-143.86
X173.17Y-146.4
X173.17Y-154.
X173.17Y-156.54
X174.539Y-40.94
X174.92Y-46.16
X174.92Y-48.7
X175.71Y-134.2
X175.71Y-136.74
X175.71Y-143.86
X175.71Y-146.4
X175.71Y-154.
X175.71Y-156.54
X175.885Y-38.1
X177.333Y-40.94
X177.46Y-46.16
X177.46Y-48.7
X178.25Y-134.2
X178.25Y-136.74
X178.25Y-143.86
X178.25Y-146.4
X178.25Y-154.
X178.25Y-156.54
X178.679Y-38.1
X180.Y-40.94
X180.Y-46.16
X180.Y-48.7
X180.79Y-134.2
X180.79Y-136.74
X180.79Y-143.86
X180.79Y-146.4
X180.79Y-154.
X180.79Y-156.54
X181.422Y-38.1
X182.54Y-46.16
X182.54Y-48.7
X182.794Y-40.94
X183.33Y-134.2
X183.33Y-136.74
X183.33Y-143.86
X183.33Y-146.4
X183.33Y-154.
X183.33Y-156.54
X184.166Y-38.1
X185.08Y-46.16
X185.08Y-48.7
X185.588Y-40.94
X185.87Y-134.2
X185.87Y-136.74
X185.87Y-143.86
X185.87Y-146.4
X185.87Y-154.
X185.87Y-156.54
X187.01Y-38.1
X187.62Y-46.16
X187.62Y-48.7
X188.382Y-40.94
X188.41Y-134.2
X188.41Y-136.74
X188.41Y-143.86
X188.41Y-146.4
X188.41Y-154.
X188.41Y-156.54
X189.703Y-38.1
X190.16Y-46.16
X190.16Y-48.7
X190.95Y-134.2
X190.95Y-136.74
X190.95Y-143.86
X190.95Y-146.4
X190.95Y-154.
X190.95Y-156.54
X191.049Y-40.94
X192.446Y-38.1
X192.7Y-46.16
X192.7Y-48.7
X193.49Y-134.2
X193.49Y-136.74
X193.49Y-143.86
X193.49Y-146.4
X193.49Y-154.
X193.49Y-156.54
X193.843Y-40.94
X195.24Y-38.1
X195.24Y-46.16
X195.24Y-48.7
X196.03Y-134.2
X196.03Y-136.74
X196.03Y-143.86
X196.03Y-146.4
X196.03Y-154.
X196.03Y-156.54
X196.637Y-40.94
X197.48Y-200.
X197.48Y-202.54
X198.57Y-134.2
X198.57Y-136.74
X198.57Y-143.86
X198.57Y-146.4
X198.57Y-154.
X198.57Y-156.54
X200.02Y-200.
X200.02Y-202.54
X201.11Y-134.2
X201.11Y-136.74
X201.11Y-143.86
X201.11Y-146.4
X201.11Y-154.
X201.11Y-156.54
X202.56Y-200.
X202.56Y-202.54
X203.65Y-134.2
X203.65Y-136.74
X203.65Y-143.86
X203.65Y-146.4
X203.65Y-154.
X203.65Y-156.54
X205.1Y-200.
X205.1Y-202.54
X206.19Y-134.2
X206.19Y-136.74
X206.19Y-143.86
X206.19Y-146.4
X206.19Y-154.
X206.19Y-156.54
X207.64Y-200.
X207.64Y-202.54
X208.73Y-134.2
X208.73Y-136.74
X208.73Y-143.86
X208.73Y-146.4
X208.73Y-154.
X208.73Y-156.54
X210.18Y-200.
X210.18Y-202.54
X211.27Y-134.2
X211.27Y-136.74
X211.27Y-143.86
X211.27Y-146.4
X211.27Y-154.
X211.27Y-156.54
X212.72Y-200.
X212.72Y-202.54
X213.81Y-134.2
X213.81Y-136.74
X213.81Y-143.86
X213.81Y-146.4
X213.81Y-154.
X213.81Y-156.54
X215.26Y-200.
X215.26Y-202.54
X216.35Y-134.2
X216.35Y-136.74
X216.35Y-143.86
X216.35Y-146.4
X216.35Y-154.
X216.35Y-156.54
X217.8Y-200.
X217.8Y-202.54
X218.89Y-134.2
X218.89Y-136.74
X218.89Y-143.86
X218.89Y-146.4
X218.89Y-154.
X218.89Y-156.54
X220.34Y-200.
X220.34Y-202.54
X221.43Y-134.2
X221.43Y-136.74
X221.43Y-143.86
X221.43Y-146.4
X221.43Y-154.
X221.43Y-156.54
X223.49Y-40.94
X223.97Y-134.2
X223.97Y-136.74
X223.97Y-143.86
X223.97Y-146.4
X223.97Y-154.
X223.97Y-156.54
X224.76Y-46.16
X224.76Y-48.7
X225.065Y-38.1
X226.284Y-40.94
X226.51Y-134.2
X226.51Y-136.74
X226.51Y-143.86
X226.51Y-146.4
X226.51Y-154.
X226.51Y-156.54
X227.3Y-46.16
X227.3Y-48.7
X227.605Y-38.1
X228.951Y-40.94
X229.05Y-134.2
X229.05Y-136.74
X229.05Y-143.86
X229.05Y-146.4
X229.05Y-154.
X229.05Y-156.54
X229.84Y-46.16
X229.84Y-48.7
X230.399Y-38.1
X231.59Y-134.2
X231.59Y-136.74
X231.59Y-143.86
X231.59Y-146.4
X231.59Y-154.
X231.59Y-156.54
X231.745Y-40.94
X232.38Y-46.16
X232.38Y-48.7
X233.142Y-38.1
X234.13Y-134.2
X234.13Y-136.74
X234.13Y-143.86
X234.13Y-146.4
X234.13Y-154.
X234.13Y-156.54
X234.539Y-40.94
X234.92Y-46.16
X234.92Y-48.7
X235.885Y-38.1
X236.67Y-134.2
X236.67Y-136.74
X236.67Y-143.86
X236.67Y-146.4
X236.67Y-154.
X236.67Y-156.54
X237.333Y-40.94
X237.46Y-46.16
X237.46Y-48.7
X238.679Y-38.1
X239.21Y-134.2
X239.21Y-136.74
X239.21Y-143.86
X239.21Y-146.4
X239.21Y-154.
X239.21Y-156.54
X240.Y-40.94
X240.Y-46.16
X240.Y-48.7
X241.422Y-38.1
X241.75Y-134.2
X241.75Y-136.74
X241.75Y-143.86
X241.75Y-146.4
X241.75Y-154.
X241.75Y-156.54
X242.54Y-46.16
X242.54Y-48.7
X242.794Y-40.94
X244.166Y-38.1
X244.29Y-134.2
X244.29Y-136.74
X244.29Y-143.86
X244.29Y-146.4
X244.29Y-154.
X244.29Y-156.54
X245.08Y-46.16
X245.08Y-48.7
X245.588Y-40.94
X246.83Y-134.2
X246.83Y-136.74
X246.83Y-143.86
X246.83Y-146.4
X246.83Y-154.
X246.83Y-156.54
X247.01Y-38.1
X247.62Y-46.16
X247.62Y-48.7
X248.382Y-40.94
X249.37Y-134.2
X249.37Y-136.74
X249.37Y-143.86
X249.37Y-146.4
X249.37Y-154.
X249.37Y-156.54
X249.703Y-38.1
X250.16Y-46.16
X250.16Y-48.7
X251.049Y-40.94
X252.446Y-38.1
X252.7Y-46.16
X252.7Y-48.7
X253.843Y-40.94
X254.6Y-181.46
X254.6Y-184.
X254.6Y-186.54
X254.6Y-189.08
X255.24Y-38.1
X255.24Y-46.16
X255.24Y-48.7
X256.637Y-40.94
T6
X34.8Y-107.8
X34.8Y-110.8
X37.8Y-107.8
X37.8Y-110.8
X154.8Y-107.8
X154.8Y-110.8
X157.8Y-107.8
X157.8Y-110.8
X263.5Y-199.4
X263.5Y-202.4
X266.5Y-199.4
X266.5Y-202.4
T7
X265.53Y-160.885
T8
X261.699Y-179.271
X261.699Y-191.269
T9
X36.505Y-39.5
X83.495Y-39.5
X96.505Y-39.5
X143.495Y-39.5
X156.505Y-39.5
X203.495Y-39.5
X216.505Y-39.5
X263.495Y-39.5
T10
X35.Y-45.8
X35.Y-145.
X35.Y-155.
X35.Y-219.
X90.Y-45.8
X145.Y-45.8
X145.Y-145.
X150.Y-155.
X150.Y-219.
X155.Y-45.8
X155.Y-145.
X210.Y-45.8
X265.Y-45.8
X265.Y-145.
X265.Y-155.
X265.Y-219.
T11
X60.Y-111.1
X107.85Y-180.5
X120.Y-103.3
X180.Y-111.1
X210.Y-181.5
X240.Y-103.3
T12
X33.8Y-113.8
X33.86Y-104.8
X153.8Y-113.8
X153.86Y-104.8
X267.44Y-205.4
X267.5Y-196.4
T0
M30
