G04 #@! TF.GenerationSoftware,KiCad,Pcbnew,(5.0.0-3-g5ebb6b6)*
G04 #@! TF.CreationDate,2018-09-19T17:15:43+02:00*
G04 #@! TF.ProjectId,infinitas,696E66696E697461732E6B696361645F,rev?*
G04 #@! TF.SameCoordinates,Original*
G04 #@! TF.FileFunction,Soldermask,Top*
G04 #@! TF.FilePolarity,Negative*
%FSLAX46Y46*%
G04 Gerber Fmt 4.6, Leading zero omitted, Abs format (unit mm)*
G04 Created by KiCad (PCBNEW (5.0.0-3-g5ebb6b6)) date Wednesday, 19. September 2018 um 17:15:43*
%MOMM*%
%LPD*%
G01*
G04 APERTURE LIST*
%ADD10C,0.150000*%
%ADD11R,1.850000X0.850000*%
%ADD12C,6.000000*%
%ADD13R,1.700000X1.400000*%
%ADD14R,1.400000X1.700000*%
%ADD15R,0.650000X1.850000*%
%ADD16R,1.850000X0.650000*%
%ADD17R,1.200000X0.900000*%
%ADD18R,1.200000X0.800000*%
%ADD19R,0.900000X1.200000*%
%ADD20R,0.800000X1.200000*%
%ADD21R,2.432000X2.127200*%
%ADD22O,2.432000X2.127200*%
%ADD23R,0.900000X1.000000*%
%ADD24R,1.000000X0.900000*%
%ADD25R,0.630000X1.400000*%
%ADD26R,1.400000X0.630000*%
%ADD27R,5.200000X5.200000*%
%ADD28O,5.200000X5.200000*%
%ADD29R,1.000000X1.950000*%
%ADD30R,0.806400X1.060400*%
%ADD31R,1.900000X2.100000*%
%ADD32R,0.798780X1.149300*%
%ADD33R,1.800000X0.700000*%
%ADD34R,1.050000X1.460000*%
%ADD35R,2.600000X2.600000*%
%ADD36R,1.598880X1.799540*%
%ADD37R,1.400760X1.799540*%
%ADD38R,2.100000X1.050000*%
%ADD39R,2.127200X2.127200*%
%ADD40O,2.127200X2.127200*%
%ADD41R,4.057600X2.432000*%
%ADD42R,1.416000X2.432000*%
%ADD43R,2.051000X3.448000*%
%ADD44R,6.496000X6.496000*%
%ADD45R,2.432000X2.432000*%
%ADD46O,2.432000X2.432000*%
%ADD47R,1.620000X1.310000*%
%ADD48C,2.000000*%
%ADD49C,1.900000*%
%ADD50C,1.500000*%
%ADD51R,5.650000X5.650000*%
%ADD52R,0.950000X0.700000*%
%ADD53R,0.700000X0.950000*%
%ADD54C,1.924000*%
%ADD55C,3.100020*%
G04 APERTURE END LIST*
D10*
X30000000Y-100000000D02*
X30000000Y-30000000D01*
X270000000Y-100000000D02*
X30000000Y-100000000D01*
X270000000Y-30000000D02*
X270000000Y-100000000D01*
X30000000Y-30000000D02*
X270000000Y-30000000D01*
D11*
G04 #@! TO.C,IC103*
X248750000Y-48625000D03*
X248750000Y-47975000D03*
X248750000Y-47325000D03*
X248750000Y-46675000D03*
X248750000Y-46025000D03*
X248750000Y-45375000D03*
X248750000Y-44725000D03*
X248750000Y-44075000D03*
X248750000Y-43425000D03*
X248750000Y-42775000D03*
X242850000Y-42775000D03*
X242850000Y-43425000D03*
X242850000Y-44075000D03*
X242850000Y-44725000D03*
X242850000Y-45375000D03*
X242850000Y-46025000D03*
X242850000Y-46675000D03*
X242850000Y-47325000D03*
X242850000Y-47975000D03*
X242850000Y-48625000D03*
G04 #@! TD*
D12*
G04 #@! TO.C,B101*
X35000000Y-35000000D03*
G04 #@! TD*
G04 #@! TO.C,B102*
X150000000Y-35000000D03*
G04 #@! TD*
G04 #@! TO.C,B103*
X265000000Y-35000000D03*
G04 #@! TD*
G04 #@! TO.C,B104*
X35000000Y-95000000D03*
G04 #@! TD*
G04 #@! TO.C,B105*
X150000000Y-95000000D03*
G04 #@! TD*
G04 #@! TO.C,B106*
X265000000Y-95000000D03*
G04 #@! TD*
D13*
G04 #@! TO.C,C109*
X158500000Y-76100000D03*
X158500000Y-74300000D03*
G04 #@! TD*
D14*
G04 #@! TO.C,C110*
X164700000Y-70300000D03*
X162900000Y-70300000D03*
G04 #@! TD*
D15*
G04 #@! TO.C,IC104*
X141250000Y-71950000D03*
X141750000Y-71950000D03*
X142250000Y-71950000D03*
X142750000Y-71950000D03*
X143250000Y-71950000D03*
X143750000Y-71950000D03*
X144250000Y-71950000D03*
X144750000Y-71950000D03*
X145250000Y-71950000D03*
X145750000Y-71950000D03*
X146250000Y-71950000D03*
X146750000Y-71950000D03*
X147250000Y-71950000D03*
X147750000Y-71950000D03*
X148250000Y-71950000D03*
X148750000Y-71950000D03*
X149250000Y-71950000D03*
X149750000Y-71950000D03*
X150250000Y-71950000D03*
X150750000Y-71950000D03*
X151250000Y-71950000D03*
X151750000Y-71950000D03*
X152250000Y-71950000D03*
X152750000Y-71950000D03*
X153250000Y-71950000D03*
X153750000Y-71950000D03*
X154250000Y-71950000D03*
X154750000Y-71950000D03*
X155250000Y-71950000D03*
X155750000Y-71950000D03*
X156250000Y-71950000D03*
X156750000Y-71950000D03*
X157250000Y-71950000D03*
X157750000Y-71950000D03*
X158250000Y-71950000D03*
X158750000Y-71950000D03*
D16*
X160550000Y-70150000D03*
X160550000Y-69650000D03*
X160550000Y-69150000D03*
X160550000Y-68650000D03*
X160550000Y-68150000D03*
X160550000Y-67650000D03*
X160550000Y-67150000D03*
X160550000Y-66650000D03*
X160550000Y-66150000D03*
X160550000Y-65650000D03*
X160550000Y-65150000D03*
X160550000Y-64650000D03*
X160550000Y-64150000D03*
X160550000Y-63650000D03*
X160550000Y-63150000D03*
X160550000Y-62650000D03*
X160550000Y-62150000D03*
X160550000Y-61650000D03*
X160550000Y-61150000D03*
X160550000Y-60650000D03*
X160550000Y-60150000D03*
X160550000Y-59650000D03*
X160550000Y-59150000D03*
X160550000Y-58650000D03*
X160550000Y-58150000D03*
X160550000Y-57650000D03*
X160550000Y-57150000D03*
X160550000Y-56650000D03*
X160550000Y-56150000D03*
X160550000Y-55650000D03*
X160550000Y-55150000D03*
X160550000Y-54650000D03*
X160550000Y-54150000D03*
X160550000Y-53650000D03*
X160550000Y-53150000D03*
X160550000Y-52650000D03*
D15*
X158750000Y-50850000D03*
X158250000Y-50850000D03*
X157750000Y-50850000D03*
X157250000Y-50850000D03*
X156750000Y-50850000D03*
X156250000Y-50850000D03*
X155750000Y-50850000D03*
X155250000Y-50850000D03*
X154750000Y-50850000D03*
X154250000Y-50850000D03*
X153750000Y-50850000D03*
X153250000Y-50850000D03*
X152750000Y-50850000D03*
X152250000Y-50850000D03*
X151750000Y-50850000D03*
X151250000Y-50850000D03*
X150750000Y-50850000D03*
X150250000Y-50850000D03*
X149750000Y-50850000D03*
X149250000Y-50850000D03*
X148750000Y-50850000D03*
X148250000Y-50850000D03*
X147750000Y-50850000D03*
X147250000Y-50850000D03*
X146750000Y-50850000D03*
X146250000Y-50850000D03*
X145750000Y-50850000D03*
X145250000Y-50850000D03*
X144750000Y-50850000D03*
X144250000Y-50850000D03*
X143750000Y-50850000D03*
X143250000Y-50850000D03*
X142750000Y-50850000D03*
X142250000Y-50850000D03*
X141750000Y-50850000D03*
X141250000Y-50850000D03*
D16*
X139450000Y-52650000D03*
X139450000Y-53150000D03*
X139450000Y-53650000D03*
X139450000Y-54150000D03*
X139450000Y-54650000D03*
X139450000Y-55150000D03*
X139450000Y-55650000D03*
X139450000Y-56150000D03*
X139450000Y-56650000D03*
X139450000Y-57150000D03*
X139450000Y-57650000D03*
X139450000Y-58150000D03*
X139450000Y-58650000D03*
X139450000Y-59150000D03*
X139450000Y-59650000D03*
X139450000Y-60150000D03*
X139450000Y-60650000D03*
X139450000Y-61150000D03*
X139450000Y-61650000D03*
X139450000Y-62150000D03*
X139450000Y-62650000D03*
X139450000Y-63150000D03*
X139450000Y-63650000D03*
X139450000Y-64150000D03*
X139450000Y-64650000D03*
X139450000Y-65150000D03*
X139450000Y-65650000D03*
X139450000Y-66150000D03*
X139450000Y-66650000D03*
X139450000Y-67150000D03*
X139450000Y-67650000D03*
X139450000Y-68150000D03*
X139450000Y-68650000D03*
X139450000Y-69150000D03*
X139450000Y-69650000D03*
X139450000Y-70150000D03*
G04 #@! TD*
D14*
G04 #@! TO.C,R118*
X127500000Y-59100000D03*
X129300000Y-59100000D03*
G04 #@! TD*
D17*
G04 #@! TO.C,R123*
X136000000Y-53500000D03*
D18*
X136000000Y-51900000D03*
X136000000Y-52700000D03*
D17*
X136000000Y-51100000D03*
D18*
X134200000Y-52700000D03*
D17*
X134200000Y-53500000D03*
D18*
X134200000Y-51900000D03*
D17*
X134200000Y-51100000D03*
G04 #@! TD*
D19*
G04 #@! TO.C,R139*
X139700000Y-47200000D03*
D20*
X141300000Y-47200000D03*
X140500000Y-47200000D03*
D19*
X142100000Y-47200000D03*
D20*
X140500000Y-45400000D03*
D19*
X139700000Y-45400000D03*
D20*
X141300000Y-45400000D03*
D19*
X142100000Y-45400000D03*
G04 #@! TD*
G04 #@! TO.C,R141*
X143300000Y-47200000D03*
D20*
X144900000Y-47200000D03*
X144100000Y-47200000D03*
D19*
X145700000Y-47200000D03*
D20*
X144100000Y-45400000D03*
D19*
X143300000Y-45400000D03*
D20*
X144900000Y-45400000D03*
D19*
X145700000Y-45400000D03*
G04 #@! TD*
G04 #@! TO.C,R143*
X146900000Y-47200000D03*
D20*
X148500000Y-47200000D03*
X147700000Y-47200000D03*
D19*
X149300000Y-47200000D03*
D20*
X147700000Y-45400000D03*
D19*
X146900000Y-45400000D03*
D20*
X148500000Y-45400000D03*
D19*
X149300000Y-45400000D03*
G04 #@! TD*
G04 #@! TO.C,R145*
X152500000Y-47200000D03*
D20*
X154100000Y-47200000D03*
X153300000Y-47200000D03*
D19*
X154900000Y-47200000D03*
D20*
X153300000Y-45400000D03*
D19*
X152500000Y-45400000D03*
D20*
X154100000Y-45400000D03*
D19*
X154900000Y-45400000D03*
G04 #@! TD*
G04 #@! TO.C,R147*
X156100000Y-47200000D03*
D20*
X157700000Y-47200000D03*
X156900000Y-47200000D03*
D19*
X158500000Y-47200000D03*
D20*
X156900000Y-45400000D03*
D19*
X156100000Y-45400000D03*
D20*
X157700000Y-45400000D03*
D19*
X158500000Y-45400000D03*
G04 #@! TD*
G04 #@! TO.C,R148*
X159700000Y-47200000D03*
D20*
X161300000Y-47200000D03*
X160500000Y-47200000D03*
D19*
X162100000Y-47200000D03*
D20*
X160500000Y-45400000D03*
D19*
X159700000Y-45400000D03*
D20*
X161300000Y-45400000D03*
D19*
X162100000Y-45400000D03*
G04 #@! TD*
D17*
G04 #@! TO.C,R152*
X164000000Y-53600000D03*
D18*
X164000000Y-55200000D03*
X164000000Y-54400000D03*
D17*
X164000000Y-56000000D03*
D18*
X165800000Y-54400000D03*
D17*
X165800000Y-53600000D03*
D18*
X165800000Y-55200000D03*
D17*
X165800000Y-56000000D03*
G04 #@! TD*
D14*
G04 #@! TO.C,R149*
X169500000Y-57000000D03*
X167700000Y-57000000D03*
G04 #@! TD*
D21*
G04 #@! TO.C,X203*
X254600000Y-61460000D03*
D22*
X254600000Y-64000000D03*
X254600000Y-66540000D03*
X254600000Y-69080000D03*
G04 #@! TD*
D13*
G04 #@! TO.C,C202*
X197800000Y-57400000D03*
X197800000Y-59200000D03*
G04 #@! TD*
D23*
G04 #@! TO.C,C224*
X209100000Y-71050000D03*
X209100000Y-72150000D03*
G04 #@! TD*
D13*
G04 #@! TO.C,C207*
X252200000Y-70200000D03*
X252200000Y-68400000D03*
G04 #@! TD*
D14*
G04 #@! TO.C,C208*
X259900000Y-73900000D03*
X261700000Y-73900000D03*
G04 #@! TD*
G04 #@! TO.C,C203*
X225000000Y-76200000D03*
X223200000Y-76200000D03*
G04 #@! TD*
D23*
G04 #@! TO.C,C209*
X207700000Y-71050000D03*
X207700000Y-72150000D03*
G04 #@! TD*
G04 #@! TO.C,C210*
X210300000Y-71050000D03*
X210300000Y-72150000D03*
G04 #@! TD*
G04 #@! TO.C,C211*
X213000000Y-71050000D03*
X213000000Y-72150000D03*
G04 #@! TD*
D24*
G04 #@! TO.C,C212*
X219550000Y-66500000D03*
X220650000Y-66500000D03*
G04 #@! TD*
G04 #@! TO.C,C213*
X219550000Y-64900000D03*
X220650000Y-64900000D03*
G04 #@! TD*
G04 #@! TO.C,C214*
X219550000Y-61300000D03*
X220650000Y-61300000D03*
G04 #@! TD*
G04 #@! TO.C,C215*
X219550000Y-58900000D03*
X220650000Y-58900000D03*
G04 #@! TD*
G04 #@! TO.C,C216*
X219550000Y-57300000D03*
X220650000Y-57300000D03*
G04 #@! TD*
D23*
G04 #@! TO.C,C217*
X213000000Y-51950000D03*
X213000000Y-50850000D03*
G04 #@! TD*
G04 #@! TO.C,C218*
X210300000Y-51950000D03*
X210300000Y-50850000D03*
G04 #@! TD*
G04 #@! TO.C,C219*
X207400000Y-51950000D03*
X207400000Y-50850000D03*
G04 #@! TD*
D24*
G04 #@! TO.C,C220*
X200550000Y-57100000D03*
X199450000Y-57100000D03*
G04 #@! TD*
G04 #@! TO.C,C221*
X200550000Y-64500000D03*
X199450000Y-64500000D03*
G04 #@! TD*
D23*
G04 #@! TO.C,C223*
X205600000Y-71050000D03*
X205600000Y-72150000D03*
G04 #@! TD*
G04 #@! TO.C,C225*
X211500000Y-71050000D03*
X211500000Y-72150000D03*
G04 #@! TD*
G04 #@! TO.C,C226*
X215000000Y-71050000D03*
X215000000Y-72150000D03*
G04 #@! TD*
D24*
G04 #@! TO.C,C227*
X219550000Y-63700000D03*
X220650000Y-63700000D03*
G04 #@! TD*
G04 #@! TO.C,C228*
X219550000Y-60100000D03*
X220650000Y-60100000D03*
G04 #@! TD*
D23*
G04 #@! TO.C,C229*
X215400000Y-51950000D03*
X215400000Y-50850000D03*
G04 #@! TD*
G04 #@! TO.C,C230*
X209100000Y-51950000D03*
X209100000Y-50850000D03*
G04 #@! TD*
G04 #@! TO.C,C231*
X205300000Y-51950000D03*
X205300000Y-50850000D03*
G04 #@! TD*
D24*
G04 #@! TO.C,C232*
X200550000Y-58500000D03*
X199450000Y-58500000D03*
G04 #@! TD*
G04 #@! TO.C,C233*
X200550000Y-60900000D03*
X199450000Y-60900000D03*
G04 #@! TD*
D25*
G04 #@! TO.C,IC201*
X203800000Y-69200000D03*
X204200000Y-69200000D03*
X204600000Y-69200000D03*
X205000000Y-69200000D03*
X205400000Y-69200000D03*
X205800000Y-69200000D03*
X206200000Y-69200000D03*
X206600000Y-69200000D03*
X207000000Y-69200000D03*
X207400000Y-69200000D03*
X207800000Y-69200000D03*
X208200000Y-69200000D03*
X208600000Y-69200000D03*
X209000000Y-69200000D03*
X209400000Y-69200000D03*
X209800000Y-69200000D03*
X210200000Y-69200000D03*
X210600000Y-69200000D03*
X211000000Y-69200000D03*
X211400000Y-69200000D03*
X211800000Y-69200000D03*
X212200000Y-69200000D03*
X212600000Y-69200000D03*
X213000000Y-69200000D03*
X213400000Y-69200000D03*
X213800000Y-69200000D03*
X214200000Y-69200000D03*
X214600000Y-69200000D03*
X215000000Y-69200000D03*
X215400000Y-69200000D03*
X215800000Y-69200000D03*
X216200000Y-69200000D03*
D26*
X217700000Y-67700000D03*
X217700000Y-67300000D03*
X217700000Y-66900000D03*
X217700000Y-66500000D03*
X217700000Y-66100000D03*
X217700000Y-65700000D03*
X217700000Y-65300000D03*
X217700000Y-64900000D03*
X217700000Y-64500000D03*
X217700000Y-64100000D03*
X217700000Y-63700000D03*
X217700000Y-63300000D03*
X217700000Y-62900000D03*
X217700000Y-62500000D03*
X217700000Y-62100000D03*
X217700000Y-61700000D03*
X217700000Y-61300000D03*
X217700000Y-60900000D03*
X217700000Y-60500000D03*
X217700000Y-60100000D03*
X217700000Y-59700000D03*
X217700000Y-59300000D03*
X217700000Y-58900000D03*
X217700000Y-58500000D03*
X217700000Y-58100000D03*
X217700000Y-57700000D03*
X217700000Y-57300000D03*
X217700000Y-56900000D03*
X217700000Y-56500000D03*
X217700000Y-56100000D03*
X217700000Y-55700000D03*
X217700000Y-55300000D03*
D25*
X216200000Y-53800000D03*
X215800000Y-53800000D03*
X215400000Y-53800000D03*
X215000000Y-53800000D03*
X214600000Y-53800000D03*
X214200000Y-53800000D03*
X213800000Y-53800000D03*
X213400000Y-53800000D03*
X213000000Y-53800000D03*
X212600000Y-53800000D03*
X212200000Y-53800000D03*
X211800000Y-53800000D03*
X211400000Y-53800000D03*
X211000000Y-53800000D03*
X210600000Y-53800000D03*
X210200000Y-53800000D03*
X209800000Y-53800000D03*
X209400000Y-53800000D03*
X209000000Y-53800000D03*
X208600000Y-53800000D03*
X208200000Y-53800000D03*
X207800000Y-53800000D03*
X207400000Y-53800000D03*
X207000000Y-53800000D03*
X206600000Y-53800000D03*
X206200000Y-53800000D03*
X205800000Y-53800000D03*
X205400000Y-53800000D03*
X205000000Y-53800000D03*
X204600000Y-53800000D03*
X204200000Y-53800000D03*
X203800000Y-53800000D03*
D26*
X202300000Y-55300000D03*
X202300000Y-55700000D03*
X202300000Y-56100000D03*
X202300000Y-56500000D03*
X202300000Y-56900000D03*
X202300000Y-57300000D03*
X202300000Y-57700000D03*
X202300000Y-58100000D03*
X202300000Y-58500000D03*
X202300000Y-58900000D03*
X202300000Y-59300000D03*
X202300000Y-59700000D03*
X202300000Y-60100000D03*
X202300000Y-60500000D03*
X202300000Y-60900000D03*
X202300000Y-61300000D03*
X202300000Y-61700000D03*
X202300000Y-62100000D03*
X202300000Y-62500000D03*
X202300000Y-62900000D03*
X202300000Y-63300000D03*
X202300000Y-63700000D03*
X202300000Y-64100000D03*
X202300000Y-64500000D03*
X202300000Y-64900000D03*
X202300000Y-65300000D03*
X202300000Y-65700000D03*
X202300000Y-66100000D03*
X202300000Y-66500000D03*
X202300000Y-66900000D03*
X202300000Y-67300000D03*
X202300000Y-67700000D03*
D27*
X210000000Y-61500000D03*
D28*
X210000000Y-61500000D03*
G04 #@! TD*
D29*
G04 #@! TO.C,IC203*
X223305000Y-68700000D03*
X222035000Y-68700000D03*
X220765000Y-68700000D03*
X219495000Y-68700000D03*
X219495000Y-74100000D03*
X220765000Y-74100000D03*
X222035000Y-74100000D03*
X223305000Y-74100000D03*
G04 #@! TD*
D14*
G04 #@! TO.C,R201*
X198000000Y-74400000D03*
X196200000Y-74400000D03*
G04 #@! TD*
G04 #@! TO.C,R202*
X198000000Y-66900000D03*
X196200000Y-66900000D03*
G04 #@! TD*
G04 #@! TO.C,R203*
X198800000Y-55400000D03*
X200600000Y-55400000D03*
G04 #@! TD*
D13*
G04 #@! TO.C,R205*
X208100000Y-74400000D03*
X208100000Y-76200000D03*
G04 #@! TD*
G04 #@! TO.C,R206*
X210100000Y-74400000D03*
X210100000Y-76200000D03*
G04 #@! TD*
D14*
G04 #@! TO.C,R207*
X217000000Y-73800000D03*
X215200000Y-73800000D03*
G04 #@! TD*
D13*
G04 #@! TO.C,R208*
X222300000Y-59400000D03*
X222300000Y-61200000D03*
G04 #@! TD*
D14*
G04 #@! TO.C,R215*
X253800000Y-72100000D03*
X252000000Y-72100000D03*
G04 #@! TD*
D24*
G04 #@! TO.C,C222*
X200550000Y-66900000D03*
X199450000Y-66900000D03*
G04 #@! TD*
D13*
G04 #@! TO.C,C201*
X194000000Y-70200000D03*
X194000000Y-72000000D03*
G04 #@! TD*
D19*
G04 #@! TO.C,R204*
X203600000Y-75300000D03*
D20*
X205200000Y-75300000D03*
X204400000Y-75300000D03*
D19*
X206000000Y-75300000D03*
D20*
X204400000Y-73500000D03*
D19*
X203600000Y-73500000D03*
D20*
X205200000Y-73500000D03*
D19*
X206000000Y-73500000D03*
G04 #@! TD*
D14*
G04 #@! TO.C,R209*
X219300000Y-55700000D03*
X221100000Y-55700000D03*
G04 #@! TD*
G04 #@! TO.C,R210*
X219300000Y-53700000D03*
X221100000Y-53700000D03*
G04 #@! TD*
D13*
G04 #@! TO.C,C205*
X195400000Y-57400000D03*
X195400000Y-59200000D03*
G04 #@! TD*
G04 #@! TO.C,C206*
X197800000Y-62700000D03*
X197800000Y-60900000D03*
G04 #@! TD*
D30*
G04 #@! TO.C,IC202*
X194939600Y-62816000D03*
X196260400Y-62816000D03*
X195600000Y-62816000D03*
X196260400Y-60784000D03*
X194939600Y-60784000D03*
G04 #@! TD*
D31*
G04 #@! TO.C,OSC201*
X198200000Y-71970000D03*
X198200000Y-69430000D03*
X196000000Y-69430000D03*
X196000000Y-71970000D03*
G04 #@! TD*
D32*
G04 #@! TO.C,IC204*
X195249760Y-88249960D03*
X195900000Y-88249960D03*
X196550240Y-88249960D03*
X196550240Y-86350040D03*
X195900000Y-86350040D03*
X195249760Y-86350040D03*
G04 #@! TD*
D13*
G04 #@! TO.C,R213*
X193500000Y-88200000D03*
X193500000Y-86400000D03*
G04 #@! TD*
G04 #@! TO.C,R214*
X193500000Y-82900000D03*
X193500000Y-84700000D03*
G04 #@! TD*
G04 #@! TO.C,C204*
X198000000Y-88200000D03*
X198000000Y-86400000D03*
G04 #@! TD*
D17*
G04 #@! TO.C,R150*
X164000000Y-61600000D03*
D18*
X164000000Y-63200000D03*
X164000000Y-62400000D03*
D17*
X164000000Y-64000000D03*
D18*
X165800000Y-62400000D03*
D17*
X165800000Y-61600000D03*
D18*
X165800000Y-63200000D03*
D17*
X165800000Y-64000000D03*
G04 #@! TD*
G04 #@! TO.C,R151*
X164000000Y-58000000D03*
D18*
X164000000Y-59600000D03*
X164000000Y-58800000D03*
D17*
X164000000Y-60400000D03*
D18*
X165800000Y-58800000D03*
D17*
X165800000Y-58000000D03*
D18*
X165800000Y-59600000D03*
D17*
X165800000Y-60400000D03*
G04 #@! TD*
D13*
G04 #@! TO.C,C102*
X163100000Y-78000000D03*
X163100000Y-79800000D03*
G04 #@! TD*
G04 #@! TO.C,C103*
X161100000Y-78000000D03*
X161100000Y-79800000D03*
G04 #@! TD*
G04 #@! TO.C,C104*
X148200000Y-78900000D03*
X148200000Y-80700000D03*
G04 #@! TD*
D33*
G04 #@! TO.C,IC101*
X159100000Y-79800000D03*
X159100000Y-79300000D03*
X159100000Y-78800000D03*
X159100000Y-78300000D03*
X159100000Y-77800000D03*
X154700000Y-77800000D03*
X154700000Y-78300000D03*
X154700000Y-78800000D03*
X154700000Y-79300000D03*
X154700000Y-79800000D03*
G04 #@! TD*
D31*
G04 #@! TO.C,OSC101*
X152400000Y-80840000D03*
X152400000Y-78300000D03*
X150200000Y-78300000D03*
X150200000Y-80840000D03*
G04 #@! TD*
D14*
G04 #@! TO.C,R101*
X152200000Y-83200000D03*
X150400000Y-83200000D03*
G04 #@! TD*
D13*
G04 #@! TO.C,R116*
X154200000Y-74300000D03*
X154200000Y-76100000D03*
G04 #@! TD*
G04 #@! TO.C,R117*
X150200000Y-76100000D03*
X150200000Y-74300000D03*
G04 #@! TD*
G04 #@! TO.C,R144*
X152200000Y-76100000D03*
X152200000Y-74300000D03*
G04 #@! TD*
G04 #@! TO.C,R146*
X156500000Y-76100000D03*
X156500000Y-74300000D03*
G04 #@! TD*
G04 #@! TO.C,C105*
X240700000Y-50900000D03*
X240700000Y-49100000D03*
G04 #@! TD*
D14*
G04 #@! TO.C,R124*
X251000000Y-42300000D03*
X252800000Y-42300000D03*
G04 #@! TD*
G04 #@! TO.C,R125*
X254500000Y-42300000D03*
X256300000Y-42300000D03*
G04 #@! TD*
G04 #@! TO.C,R126*
X254500000Y-46300000D03*
X256300000Y-46300000D03*
G04 #@! TD*
G04 #@! TO.C,R127*
X251000000Y-46300000D03*
X252800000Y-46300000D03*
G04 #@! TD*
G04 #@! TO.C,R128*
X251000000Y-44300000D03*
X252800000Y-44300000D03*
G04 #@! TD*
D13*
G04 #@! TO.C,R129*
X247200000Y-50100000D03*
X247200000Y-51900000D03*
G04 #@! TD*
G04 #@! TO.C,R132*
X244700000Y-50100000D03*
X244700000Y-51900000D03*
G04 #@! TD*
D14*
G04 #@! TO.C,R133*
X242700000Y-41100000D03*
X244500000Y-41100000D03*
G04 #@! TD*
D13*
G04 #@! TO.C,R136*
X238800000Y-43100000D03*
X238800000Y-41300000D03*
G04 #@! TD*
G04 #@! TO.C,R137*
X240800000Y-43100000D03*
X240800000Y-41300000D03*
G04 #@! TD*
G04 #@! TO.C,R134*
X240800000Y-46600000D03*
X240800000Y-44800000D03*
G04 #@! TD*
G04 #@! TO.C,R135*
X238800000Y-46600000D03*
X238800000Y-44800000D03*
G04 #@! TD*
G04 #@! TO.C,C125*
X255100000Y-86200000D03*
X255100000Y-88000000D03*
G04 #@! TD*
G04 #@! TO.C,C126*
X251400000Y-76800000D03*
X251400000Y-78600000D03*
G04 #@! TD*
G04 #@! TO.C,C129*
X235000000Y-76800000D03*
X235000000Y-78600000D03*
G04 #@! TD*
G04 #@! TO.C,C128*
X238700000Y-86200000D03*
X238700000Y-88000000D03*
G04 #@! TD*
G04 #@! TO.C,C130*
X233000000Y-76800000D03*
X233000000Y-78600000D03*
G04 #@! TD*
G04 #@! TO.C,C127*
X249400000Y-76800000D03*
X249400000Y-78600000D03*
G04 #@! TD*
G04 #@! TO.C,C122*
X242200000Y-67900000D03*
X242200000Y-69700000D03*
G04 #@! TD*
G04 #@! TO.C,C123*
X229000000Y-71700000D03*
X229000000Y-69900000D03*
G04 #@! TD*
D34*
G04 #@! TO.C,IC105*
X240550000Y-67700000D03*
X239600000Y-67700000D03*
X238650000Y-67700000D03*
X238650000Y-69900000D03*
X240550000Y-69900000D03*
G04 #@! TD*
D35*
G04 #@! TO.C,L101*
X234000000Y-65900000D03*
X234000000Y-71700000D03*
G04 #@! TD*
D14*
G04 #@! TO.C,R154*
X238800000Y-71700000D03*
X240600000Y-71700000D03*
G04 #@! TD*
G04 #@! TO.C,R156*
X244100000Y-71700000D03*
X242300000Y-71700000D03*
G04 #@! TD*
D13*
G04 #@! TO.C,C131*
X179700000Y-86200000D03*
X179700000Y-88000000D03*
G04 #@! TD*
G04 #@! TO.C,C132*
X176000000Y-76800000D03*
X176000000Y-78600000D03*
G04 #@! TD*
G04 #@! TO.C,C133*
X174000000Y-76800000D03*
X174000000Y-78600000D03*
G04 #@! TD*
D14*
G04 #@! TO.C,C124*
X188400000Y-84000000D03*
X186600000Y-84000000D03*
G04 #@! TD*
D36*
G04 #@! TO.C,IC106*
X186730380Y-88199820D03*
D37*
X188449960Y-88199820D03*
X188449960Y-86000180D03*
X186550040Y-86000180D03*
G04 #@! TD*
D13*
G04 #@! TO.C,R153*
X184600000Y-85300000D03*
X184600000Y-87100000D03*
G04 #@! TD*
G04 #@! TO.C,R155*
X190300000Y-86400000D03*
X190300000Y-88200000D03*
G04 #@! TD*
D14*
G04 #@! TO.C,R211*
X218700000Y-49700000D03*
X216900000Y-49700000D03*
G04 #@! TD*
G04 #@! TO.C,R212*
X218700000Y-51700000D03*
X216900000Y-51700000D03*
G04 #@! TD*
G04 #@! TO.C,C302*
X98694668Y-59200000D03*
X100494668Y-59200000D03*
G04 #@! TD*
G04 #@! TO.C,C303*
X100500000Y-63200000D03*
X98700000Y-63200000D03*
G04 #@! TD*
G04 #@! TO.C,C305*
X98700000Y-61200000D03*
X100500000Y-61200000D03*
G04 #@! TD*
G04 #@! TO.C,C306*
X97000000Y-61200000D03*
X95200000Y-61200000D03*
G04 #@! TD*
G04 #@! TO.C,C307*
X119000000Y-71500000D03*
X117200000Y-71500000D03*
G04 #@! TD*
D13*
G04 #@! TO.C,C309*
X103900000Y-68800000D03*
X103900000Y-67000000D03*
G04 #@! TD*
G04 #@! TO.C,C310*
X112100000Y-68800000D03*
X112100000Y-67000000D03*
G04 #@! TD*
G04 #@! TO.C,C311*
X116100000Y-52100000D03*
X116100000Y-53900000D03*
G04 #@! TD*
G04 #@! TO.C,C312*
X103600000Y-52100000D03*
X103600000Y-53900000D03*
G04 #@! TD*
G04 #@! TO.C,C314*
X101600000Y-52100000D03*
X101600000Y-53900000D03*
G04 #@! TD*
D14*
G04 #@! TO.C,C315*
X98700000Y-65200000D03*
X100500000Y-65200000D03*
G04 #@! TD*
D13*
G04 #@! TO.C,C316*
X116100000Y-68800000D03*
X116100000Y-67000000D03*
G04 #@! TD*
G04 #@! TO.C,C317*
X112100000Y-52100000D03*
X112100000Y-53900000D03*
G04 #@! TD*
G04 #@! TO.C,FER301*
X97600000Y-52100000D03*
X97600000Y-53900000D03*
G04 #@! TD*
D14*
G04 #@! TO.C,FER302*
X95200000Y-57200000D03*
X97000000Y-57200000D03*
G04 #@! TD*
D38*
G04 #@! TO.C,IC302*
X107850000Y-71495000D03*
X107850000Y-72765000D03*
X107850000Y-74035000D03*
X107850000Y-75305000D03*
X115150000Y-75305000D03*
X115150000Y-74035000D03*
X115150000Y-72765000D03*
X115150000Y-71495000D03*
G04 #@! TD*
D14*
G04 #@! TO.C,R301*
X95200000Y-65200000D03*
X97000000Y-65200000D03*
G04 #@! TD*
G04 #@! TO.C,R307*
X97000000Y-63200000D03*
X95200000Y-63200000D03*
G04 #@! TD*
D13*
G04 #@! TO.C,R308*
X118100000Y-68800000D03*
X118100000Y-67000000D03*
G04 #@! TD*
D14*
G04 #@! TO.C,R311*
X116500000Y-83400000D03*
X114700000Y-83400000D03*
G04 #@! TD*
G04 #@! TO.C,R312*
X116500000Y-81400000D03*
X114700000Y-81400000D03*
G04 #@! TD*
G04 #@! TO.C,R313*
X104100000Y-72400000D03*
X105900000Y-72400000D03*
G04 #@! TD*
G04 #@! TO.C,R314*
X104100000Y-74400000D03*
X105900000Y-74400000D03*
G04 #@! TD*
D13*
G04 #@! TO.C,C301*
X99600000Y-52100000D03*
X99600000Y-53900000D03*
G04 #@! TD*
D14*
G04 #@! TO.C,C304*
X95194668Y-59200000D03*
X96994668Y-59200000D03*
G04 #@! TD*
D13*
G04 #@! TO.C,C308*
X114100000Y-68800000D03*
X114100000Y-67000000D03*
G04 #@! TD*
G04 #@! TO.C,C313*
X114100000Y-52100000D03*
X114100000Y-53900000D03*
G04 #@! TD*
D14*
G04 #@! TO.C,R309*
X116500000Y-79400000D03*
X114700000Y-79400000D03*
G04 #@! TD*
G04 #@! TO.C,R310*
X116500000Y-77400000D03*
X114700000Y-77400000D03*
G04 #@! TD*
D17*
G04 #@! TO.C,R119*
X134200000Y-67600000D03*
D18*
X134200000Y-69200000D03*
X134200000Y-68400000D03*
D17*
X134200000Y-70000000D03*
D18*
X136000000Y-68400000D03*
D17*
X136000000Y-67600000D03*
D18*
X136000000Y-69200000D03*
D17*
X136000000Y-70000000D03*
G04 #@! TD*
G04 #@! TO.C,R120*
X134200000Y-61600000D03*
D18*
X134200000Y-63200000D03*
X134200000Y-62400000D03*
D17*
X134200000Y-64000000D03*
D18*
X136000000Y-62400000D03*
D17*
X136000000Y-61600000D03*
D18*
X136000000Y-63200000D03*
D17*
X136000000Y-64000000D03*
G04 #@! TD*
G04 #@! TO.C,R121*
X134200000Y-56700000D03*
D18*
X134200000Y-58300000D03*
X134200000Y-57500000D03*
D17*
X134200000Y-59100000D03*
D18*
X136000000Y-57500000D03*
D17*
X136000000Y-56700000D03*
D18*
X136000000Y-58300000D03*
D17*
X136000000Y-59100000D03*
G04 #@! TD*
D19*
G04 #@! TO.C,R138*
X142400000Y-74900000D03*
D20*
X140800000Y-74900000D03*
X141600000Y-74900000D03*
D19*
X140000000Y-74900000D03*
D20*
X141600000Y-76700000D03*
D19*
X142400000Y-76700000D03*
D20*
X140800000Y-76700000D03*
D19*
X140000000Y-76700000D03*
G04 #@! TD*
G04 #@! TO.C,R140*
X146200000Y-74900000D03*
D20*
X144600000Y-74900000D03*
X145400000Y-74900000D03*
D19*
X143800000Y-74900000D03*
D20*
X145400000Y-76700000D03*
D19*
X146200000Y-76700000D03*
D20*
X144600000Y-76700000D03*
D19*
X143800000Y-76700000D03*
G04 #@! TD*
D14*
G04 #@! TO.C,R122*
X134200000Y-55100000D03*
X136000000Y-55100000D03*
G04 #@! TD*
G04 #@! TO.C,R303*
X100500000Y-57200000D03*
X98700000Y-57200000D03*
G04 #@! TD*
G04 #@! TO.C,R302*
X117700000Y-56200000D03*
X115900000Y-56200000D03*
G04 #@! TD*
G04 #@! TO.C,R305*
X117700000Y-61000000D03*
X115900000Y-61000000D03*
G04 #@! TD*
G04 #@! TO.C,R306*
X117700000Y-63400000D03*
X115900000Y-63400000D03*
G04 #@! TD*
G04 #@! TO.C,R304*
X117700000Y-58600000D03*
X115900000Y-58600000D03*
G04 #@! TD*
D13*
G04 #@! TO.C,R142*
X148200000Y-76100000D03*
X148200000Y-74300000D03*
G04 #@! TD*
G04 #@! TO.C,C101*
X60200000Y-51700000D03*
X60200000Y-49900000D03*
G04 #@! TD*
D11*
G04 #@! TO.C,IC102*
X66150000Y-48425000D03*
X66150000Y-47775000D03*
X66150000Y-47125000D03*
X66150000Y-46475000D03*
X66150000Y-45825000D03*
X66150000Y-45175000D03*
X66150000Y-44525000D03*
X66150000Y-43875000D03*
X66150000Y-43225000D03*
X66150000Y-42575000D03*
X60250000Y-42575000D03*
X60250000Y-43225000D03*
X60250000Y-43875000D03*
X60250000Y-44525000D03*
X60250000Y-45175000D03*
X60250000Y-45825000D03*
X60250000Y-46475000D03*
X60250000Y-47125000D03*
X60250000Y-47775000D03*
X60250000Y-48425000D03*
G04 #@! TD*
D13*
G04 #@! TO.C,R102*
X73500000Y-41000000D03*
X73500000Y-42800000D03*
G04 #@! TD*
G04 #@! TO.C,R103*
X71500000Y-41000000D03*
X71500000Y-42800000D03*
G04 #@! TD*
G04 #@! TO.C,R104*
X57700000Y-40900000D03*
X57700000Y-42700000D03*
G04 #@! TD*
G04 #@! TO.C,R105*
X55700000Y-40900000D03*
X55700000Y-42700000D03*
G04 #@! TD*
D14*
G04 #@! TO.C,R106*
X69000000Y-44900000D03*
X70800000Y-44900000D03*
G04 #@! TD*
G04 #@! TO.C,R107*
X69000000Y-46900000D03*
X70800000Y-46900000D03*
G04 #@! TD*
D13*
G04 #@! TO.C,R110*
X64800000Y-50600000D03*
X64800000Y-52400000D03*
G04 #@! TD*
G04 #@! TO.C,R111*
X66800000Y-50600000D03*
X66800000Y-52400000D03*
G04 #@! TD*
G04 #@! TO.C,R112*
X57700000Y-47900000D03*
X57700000Y-49700000D03*
G04 #@! TD*
G04 #@! TO.C,R113*
X55700000Y-47900000D03*
X55700000Y-49700000D03*
G04 #@! TD*
G04 #@! TO.C,R114*
X57700000Y-44400000D03*
X57700000Y-46200000D03*
G04 #@! TD*
G04 #@! TO.C,R115*
X55700000Y-44400000D03*
X55700000Y-46200000D03*
G04 #@! TD*
D14*
G04 #@! TO.C,R108*
X69000000Y-48900000D03*
X70800000Y-48900000D03*
G04 #@! TD*
D13*
G04 #@! TO.C,R109*
X62800000Y-50600000D03*
X62800000Y-52400000D03*
G04 #@! TD*
G04 #@! TO.C,R130*
X249200000Y-50100000D03*
X249200000Y-51900000D03*
G04 #@! TD*
G04 #@! TO.C,R131*
X242700000Y-50100000D03*
X242700000Y-51900000D03*
G04 #@! TD*
D39*
G04 #@! TO.C,X102*
X129370000Y-34000000D03*
D40*
X129370000Y-36540000D03*
X126830000Y-34000000D03*
X126830000Y-36540000D03*
X124290000Y-34000000D03*
X124290000Y-36540000D03*
X121750000Y-34000000D03*
X121750000Y-36540000D03*
X119210000Y-34000000D03*
X119210000Y-36540000D03*
X116670000Y-34000000D03*
X116670000Y-36540000D03*
X114130000Y-34000000D03*
X114130000Y-36540000D03*
X111590000Y-34000000D03*
X111590000Y-36540000D03*
X109050000Y-34000000D03*
X109050000Y-36540000D03*
X106510000Y-34000000D03*
X106510000Y-36540000D03*
X103970000Y-34000000D03*
X103970000Y-36540000D03*
X101430000Y-34000000D03*
X101430000Y-36540000D03*
X98890000Y-34000000D03*
X98890000Y-36540000D03*
X96350000Y-34000000D03*
X96350000Y-36540000D03*
X93810000Y-34000000D03*
X93810000Y-36540000D03*
X91270000Y-34000000D03*
X91270000Y-36540000D03*
X88730000Y-34000000D03*
X88730000Y-36540000D03*
X86190000Y-34000000D03*
X86190000Y-36540000D03*
X83650000Y-34000000D03*
X83650000Y-36540000D03*
X81110000Y-34000000D03*
X81110000Y-36540000D03*
X78570000Y-34000000D03*
X78570000Y-36540000D03*
X76030000Y-34000000D03*
X76030000Y-36540000D03*
X73490000Y-34000000D03*
X73490000Y-36540000D03*
X70950000Y-34000000D03*
X70950000Y-36540000D03*
X68410000Y-34000000D03*
X68410000Y-36540000D03*
X65870000Y-34000000D03*
X65870000Y-36540000D03*
X63330000Y-34000000D03*
X63330000Y-36540000D03*
X60790000Y-34000000D03*
X60790000Y-36540000D03*
X58250000Y-34000000D03*
X58250000Y-36540000D03*
X55710000Y-34000000D03*
X55710000Y-36540000D03*
X53170000Y-34000000D03*
X53170000Y-36540000D03*
X50630000Y-34000000D03*
X50630000Y-36540000D03*
G04 #@! TD*
D39*
G04 #@! TO.C,X103*
X249370000Y-34000000D03*
D40*
X249370000Y-36540000D03*
X246830000Y-34000000D03*
X246830000Y-36540000D03*
X244290000Y-34000000D03*
X244290000Y-36540000D03*
X241750000Y-34000000D03*
X241750000Y-36540000D03*
X239210000Y-34000000D03*
X239210000Y-36540000D03*
X236670000Y-34000000D03*
X236670000Y-36540000D03*
X234130000Y-34000000D03*
X234130000Y-36540000D03*
X231590000Y-34000000D03*
X231590000Y-36540000D03*
X229050000Y-34000000D03*
X229050000Y-36540000D03*
X226510000Y-34000000D03*
X226510000Y-36540000D03*
X223970000Y-34000000D03*
X223970000Y-36540000D03*
X221430000Y-34000000D03*
X221430000Y-36540000D03*
X218890000Y-34000000D03*
X218890000Y-36540000D03*
X216350000Y-34000000D03*
X216350000Y-36540000D03*
X213810000Y-34000000D03*
X213810000Y-36540000D03*
X211270000Y-34000000D03*
X211270000Y-36540000D03*
X208730000Y-34000000D03*
X208730000Y-36540000D03*
X206190000Y-34000000D03*
X206190000Y-36540000D03*
X203650000Y-34000000D03*
X203650000Y-36540000D03*
X201110000Y-34000000D03*
X201110000Y-36540000D03*
X198570000Y-34000000D03*
X198570000Y-36540000D03*
X196030000Y-34000000D03*
X196030000Y-36540000D03*
X193490000Y-34000000D03*
X193490000Y-36540000D03*
X190950000Y-34000000D03*
X190950000Y-36540000D03*
X188410000Y-34000000D03*
X188410000Y-36540000D03*
X185870000Y-34000000D03*
X185870000Y-36540000D03*
X183330000Y-34000000D03*
X183330000Y-36540000D03*
X180790000Y-34000000D03*
X180790000Y-36540000D03*
X178250000Y-34000000D03*
X178250000Y-36540000D03*
X175710000Y-34000000D03*
X175710000Y-36540000D03*
X173170000Y-34000000D03*
X173170000Y-36540000D03*
X170630000Y-34000000D03*
X170630000Y-36540000D03*
G04 #@! TD*
D39*
G04 #@! TO.C,X301*
X112100000Y-82200000D03*
D40*
X112100000Y-84740000D03*
X109560000Y-82200000D03*
X109560000Y-84740000D03*
X107020000Y-82200000D03*
X107020000Y-84740000D03*
X104480000Y-82200000D03*
X104480000Y-84740000D03*
X101940000Y-82200000D03*
X101940000Y-84740000D03*
G04 #@! TD*
D39*
G04 #@! TO.C,X101*
X128460000Y-61860000D03*
D40*
X131000000Y-61860000D03*
X128460000Y-64400000D03*
X131000000Y-64400000D03*
X128460000Y-66940000D03*
X131000000Y-66940000D03*
X128460000Y-69480000D03*
X131000000Y-69480000D03*
G04 #@! TD*
D39*
G04 #@! TO.C,X201*
X197480000Y-82540000D03*
D40*
X197480000Y-80000000D03*
X200020000Y-82540000D03*
X200020000Y-80000000D03*
X202560000Y-82540000D03*
X202560000Y-80000000D03*
X205100000Y-82540000D03*
X205100000Y-80000000D03*
X207640000Y-82540000D03*
X207640000Y-80000000D03*
X210180000Y-82540000D03*
X210180000Y-80000000D03*
X212720000Y-82540000D03*
X212720000Y-80000000D03*
X215260000Y-82540000D03*
X215260000Y-80000000D03*
X217800000Y-82540000D03*
X217800000Y-80000000D03*
X220340000Y-82540000D03*
X220340000Y-80000000D03*
G04 #@! TD*
D41*
G04 #@! TO.C,IC109*
X175000000Y-80898000D03*
D42*
X175000000Y-87502000D03*
X177286000Y-87502000D03*
X172714000Y-87502000D03*
G04 #@! TD*
D41*
G04 #@! TO.C,IC108*
X234000000Y-80898000D03*
D42*
X234000000Y-87502000D03*
X236286000Y-87502000D03*
X231714000Y-87502000D03*
G04 #@! TD*
D41*
G04 #@! TO.C,IC107*
X250400000Y-80898000D03*
D42*
X250400000Y-87502000D03*
X252686000Y-87502000D03*
X248114000Y-87502000D03*
G04 #@! TD*
D43*
G04 #@! TO.C,Q301*
X101286000Y-68000000D03*
D44*
X99000000Y-74350000D03*
D43*
X96714000Y-68000000D03*
G04 #@! TD*
D45*
G04 #@! TO.C,JP301*
X119300000Y-74300000D03*
D46*
X119300000Y-76840000D03*
G04 #@! TD*
D47*
G04 #@! TO.C,D201*
X252200000Y-66935000D03*
X252200000Y-63665000D03*
G04 #@! TD*
D48*
G04 #@! TO.C,X104*
X263730000Y-42285000D03*
X266270000Y-43555000D03*
X263730000Y-44825000D03*
X266270000Y-46095000D03*
X263730000Y-47365000D03*
X266270000Y-48635000D03*
X263730000Y-49905000D03*
X266270000Y-51175000D03*
X263730000Y-52445000D03*
X266270000Y-53715000D03*
D49*
X265530000Y-40885000D03*
G04 #@! TD*
D50*
G04 #@! TO.C,X105*
X267500000Y-76400000D03*
D48*
X263500000Y-82400000D03*
X263500000Y-79400000D03*
X266500000Y-82400000D03*
X266500000Y-79400000D03*
D50*
X267440000Y-85400000D03*
G04 #@! TD*
D51*
G04 #@! TO.C,IC301*
X107850000Y-60500000D03*
D52*
X102850000Y-56250000D03*
X102850000Y-56750000D03*
X102850000Y-57250000D03*
X102850000Y-57750000D03*
X102850000Y-58250000D03*
X102850000Y-58750000D03*
X102850000Y-59250000D03*
X102850000Y-59750000D03*
X102850000Y-60250000D03*
X102850000Y-60750000D03*
X102850000Y-61250000D03*
X102850000Y-61750000D03*
X102850000Y-62250000D03*
X102850000Y-62750000D03*
X102850000Y-63250000D03*
X102850000Y-63750000D03*
X102850000Y-64250000D03*
X102850000Y-64750000D03*
D53*
X103600000Y-65500000D03*
X104100000Y-65500000D03*
X104600000Y-65500000D03*
X105100000Y-65500000D03*
X105600000Y-65500000D03*
X106100000Y-65500000D03*
X106600000Y-65500000D03*
X107100000Y-65500000D03*
X107600000Y-65500000D03*
X108100000Y-65500000D03*
X108600000Y-65500000D03*
X109100000Y-65500000D03*
X109600000Y-65500000D03*
X110100000Y-65500000D03*
X110600000Y-65500000D03*
X111100000Y-65500000D03*
X111600000Y-65500000D03*
X112100000Y-65500000D03*
D52*
X112850000Y-64750000D03*
X112850000Y-64250000D03*
X112850000Y-63750000D03*
X112850000Y-63250000D03*
X112850000Y-62750000D03*
X112850000Y-62250000D03*
X112850000Y-61750000D03*
X112850000Y-61250000D03*
X112850000Y-60750000D03*
X112850000Y-60250000D03*
X112850000Y-59750000D03*
X112850000Y-59250000D03*
X112850000Y-58750000D03*
X112850000Y-58250000D03*
X112850000Y-57750000D03*
X112850000Y-57250000D03*
X112850000Y-56750000D03*
X112850000Y-56250000D03*
D53*
X112100000Y-55500000D03*
X111600000Y-55500000D03*
X111100000Y-55500000D03*
X110600000Y-55500000D03*
X110100000Y-55500000D03*
X109600000Y-55500000D03*
X109100000Y-55500000D03*
X108600000Y-55500000D03*
X108100000Y-55500000D03*
X107600000Y-55500000D03*
X107100000Y-55500000D03*
X106600000Y-55500000D03*
X106100000Y-55500000D03*
X105600000Y-55500000D03*
X105100000Y-55500000D03*
X104600000Y-55500000D03*
X104100000Y-55500000D03*
X103600000Y-55500000D03*
G04 #@! TD*
D54*
G04 #@! TO.C,X202*
X257000000Y-66540000D03*
X257000000Y-64000000D03*
X258998980Y-64000000D03*
X258998980Y-66540000D03*
D55*
X261699000Y-71269480D03*
X261699000Y-59270520D03*
G04 #@! TD*
D14*
G04 #@! TO.C,R315*
X107400000Y-79400000D03*
X109200000Y-79400000D03*
G04 #@! TD*
G04 #@! TO.C,R316*
X114700000Y-85400000D03*
X116500000Y-85400000D03*
G04 #@! TD*
D13*
G04 #@! TO.C,R317*
X99100000Y-84000000D03*
X99100000Y-82200000D03*
G04 #@! TD*
D14*
G04 #@! TO.C,R318*
X102700000Y-87500000D03*
X104500000Y-87500000D03*
G04 #@! TD*
M02*
