G04 #@! TF.GenerationSoftware,KiCad,Pcbnew,(5.0.0-3-g5ebb6b6)*
G04 #@! TF.CreationDate,2018-09-19T17:15:43+02:00*
G04 #@! TF.ProjectId,infinitas,696E66696E697461732E6B696361645F,rev?*
G04 #@! TF.SameCoordinates,Original*
G04 #@! TF.FileFunction,Soldermask,Bot*
G04 #@! TF.FilePolarity,Negative*
%FSLAX46Y46*%
G04 Gerber Fmt 4.6, Leading zero omitted, Abs format (unit mm)*
G04 Created by KiCad (PCBNEW (5.0.0-3-g5ebb6b6)) date Wednesday, 19. September 2018 um 17:15:43*
%MOMM*%
%LPD*%
G01*
G04 APERTURE LIST*
%ADD10C,0.150000*%
%ADD11C,6.000000*%
%ADD12R,1.700000X1.400000*%
%ADD13R,1.400000X1.700000*%
%ADD14R,2.432000X2.127200*%
%ADD15O,2.432000X2.127200*%
%ADD16O,5.200000X5.200000*%
%ADD17R,2.127200X2.127200*%
%ADD18O,2.127200X2.127200*%
%ADD19R,2.432000X2.432000*%
%ADD20O,2.432000X2.432000*%
%ADD21C,2.000000*%
%ADD22C,1.900000*%
%ADD23C,1.500000*%
%ADD24R,5.650000X5.650000*%
%ADD25C,1.924000*%
%ADD26C,3.100020*%
G04 APERTURE END LIST*
D10*
X30000000Y-100000000D02*
X30000000Y-30000000D01*
X270000000Y-100000000D02*
X30000000Y-100000000D01*
X270000000Y-30000000D02*
X270000000Y-100000000D01*
X30000000Y-30000000D02*
X270000000Y-30000000D01*
D11*
G04 #@! TO.C,B101*
X35000000Y-35000000D03*
G04 #@! TD*
G04 #@! TO.C,B102*
X150000000Y-35000000D03*
G04 #@! TD*
G04 #@! TO.C,B103*
X265000000Y-35000000D03*
G04 #@! TD*
G04 #@! TO.C,B104*
X35000000Y-95000000D03*
G04 #@! TD*
G04 #@! TO.C,B105*
X150000000Y-95000000D03*
G04 #@! TD*
G04 #@! TO.C,B106*
X265000000Y-95000000D03*
G04 #@! TD*
D12*
G04 #@! TO.C,C106*
X144400000Y-70300000D03*
X144400000Y-72100000D03*
G04 #@! TD*
G04 #@! TO.C,C107*
X148700000Y-70300000D03*
X148700000Y-72100000D03*
G04 #@! TD*
G04 #@! TO.C,C108*
X156400000Y-70300000D03*
X156400000Y-72100000D03*
G04 #@! TD*
D13*
G04 #@! TO.C,C111*
X158900000Y-63300000D03*
X160700000Y-63300000D03*
G04 #@! TD*
G04 #@! TO.C,C112*
X158900000Y-55500000D03*
X160700000Y-55500000D03*
G04 #@! TD*
G04 #@! TO.C,C113*
X158900000Y-53100000D03*
X160700000Y-53100000D03*
G04 #@! TD*
D12*
G04 #@! TO.C,C114*
X156400000Y-52500000D03*
X156400000Y-50700000D03*
G04 #@! TD*
G04 #@! TO.C,C115*
X151400000Y-52500000D03*
X151400000Y-50700000D03*
G04 #@! TD*
G04 #@! TO.C,C116*
X143600000Y-52500000D03*
X143600000Y-50700000D03*
G04 #@! TD*
G04 #@! TO.C,C117*
X140900000Y-52500000D03*
X140900000Y-50700000D03*
G04 #@! TD*
D13*
G04 #@! TO.C,C118*
X141000000Y-57100000D03*
X139200000Y-57100000D03*
G04 #@! TD*
G04 #@! TO.C,C119*
X141000000Y-59700000D03*
X139200000Y-59700000D03*
G04 #@! TD*
G04 #@! TO.C,C120*
X140400000Y-66000000D03*
X138600000Y-66000000D03*
G04 #@! TD*
G04 #@! TO.C,C121*
X140400000Y-69600000D03*
X138600000Y-69600000D03*
G04 #@! TD*
D14*
G04 #@! TO.C,X203*
X254600000Y-61460000D03*
D15*
X254600000Y-64000000D03*
X254600000Y-66540000D03*
X254600000Y-69080000D03*
G04 #@! TD*
D16*
G04 #@! TO.C,IC201*
X210000000Y-61500000D03*
G04 #@! TD*
D17*
G04 #@! TO.C,X102*
X129370000Y-34000000D03*
D18*
X129370000Y-36540000D03*
X126830000Y-34000000D03*
X126830000Y-36540000D03*
X124290000Y-34000000D03*
X124290000Y-36540000D03*
X121750000Y-34000000D03*
X121750000Y-36540000D03*
X119210000Y-34000000D03*
X119210000Y-36540000D03*
X116670000Y-34000000D03*
X116670000Y-36540000D03*
X114130000Y-34000000D03*
X114130000Y-36540000D03*
X111590000Y-34000000D03*
X111590000Y-36540000D03*
X109050000Y-34000000D03*
X109050000Y-36540000D03*
X106510000Y-34000000D03*
X106510000Y-36540000D03*
X103970000Y-34000000D03*
X103970000Y-36540000D03*
X101430000Y-34000000D03*
X101430000Y-36540000D03*
X98890000Y-34000000D03*
X98890000Y-36540000D03*
X96350000Y-34000000D03*
X96350000Y-36540000D03*
X93810000Y-34000000D03*
X93810000Y-36540000D03*
X91270000Y-34000000D03*
X91270000Y-36540000D03*
X88730000Y-34000000D03*
X88730000Y-36540000D03*
X86190000Y-34000000D03*
X86190000Y-36540000D03*
X83650000Y-34000000D03*
X83650000Y-36540000D03*
X81110000Y-34000000D03*
X81110000Y-36540000D03*
X78570000Y-34000000D03*
X78570000Y-36540000D03*
X76030000Y-34000000D03*
X76030000Y-36540000D03*
X73490000Y-34000000D03*
X73490000Y-36540000D03*
X70950000Y-34000000D03*
X70950000Y-36540000D03*
X68410000Y-34000000D03*
X68410000Y-36540000D03*
X65870000Y-34000000D03*
X65870000Y-36540000D03*
X63330000Y-34000000D03*
X63330000Y-36540000D03*
X60790000Y-34000000D03*
X60790000Y-36540000D03*
X58250000Y-34000000D03*
X58250000Y-36540000D03*
X55710000Y-34000000D03*
X55710000Y-36540000D03*
X53170000Y-34000000D03*
X53170000Y-36540000D03*
X50630000Y-34000000D03*
X50630000Y-36540000D03*
G04 #@! TD*
D17*
G04 #@! TO.C,X103*
X249370000Y-34000000D03*
D18*
X249370000Y-36540000D03*
X246830000Y-34000000D03*
X246830000Y-36540000D03*
X244290000Y-34000000D03*
X244290000Y-36540000D03*
X241750000Y-34000000D03*
X241750000Y-36540000D03*
X239210000Y-34000000D03*
X239210000Y-36540000D03*
X236670000Y-34000000D03*
X236670000Y-36540000D03*
X234130000Y-34000000D03*
X234130000Y-36540000D03*
X231590000Y-34000000D03*
X231590000Y-36540000D03*
X229050000Y-34000000D03*
X229050000Y-36540000D03*
X226510000Y-34000000D03*
X226510000Y-36540000D03*
X223970000Y-34000000D03*
X223970000Y-36540000D03*
X221430000Y-34000000D03*
X221430000Y-36540000D03*
X218890000Y-34000000D03*
X218890000Y-36540000D03*
X216350000Y-34000000D03*
X216350000Y-36540000D03*
X213810000Y-34000000D03*
X213810000Y-36540000D03*
X211270000Y-34000000D03*
X211270000Y-36540000D03*
X208730000Y-34000000D03*
X208730000Y-36540000D03*
X206190000Y-34000000D03*
X206190000Y-36540000D03*
X203650000Y-34000000D03*
X203650000Y-36540000D03*
X201110000Y-34000000D03*
X201110000Y-36540000D03*
X198570000Y-34000000D03*
X198570000Y-36540000D03*
X196030000Y-34000000D03*
X196030000Y-36540000D03*
X193490000Y-34000000D03*
X193490000Y-36540000D03*
X190950000Y-34000000D03*
X190950000Y-36540000D03*
X188410000Y-34000000D03*
X188410000Y-36540000D03*
X185870000Y-34000000D03*
X185870000Y-36540000D03*
X183330000Y-34000000D03*
X183330000Y-36540000D03*
X180790000Y-34000000D03*
X180790000Y-36540000D03*
X178250000Y-34000000D03*
X178250000Y-36540000D03*
X175710000Y-34000000D03*
X175710000Y-36540000D03*
X173170000Y-34000000D03*
X173170000Y-36540000D03*
X170630000Y-34000000D03*
X170630000Y-36540000D03*
G04 #@! TD*
D17*
G04 #@! TO.C,X301*
X112100000Y-82200000D03*
D18*
X112100000Y-84740000D03*
X109560000Y-82200000D03*
X109560000Y-84740000D03*
X107020000Y-82200000D03*
X107020000Y-84740000D03*
X104480000Y-82200000D03*
X104480000Y-84740000D03*
X101940000Y-82200000D03*
X101940000Y-84740000D03*
G04 #@! TD*
D17*
G04 #@! TO.C,X101*
X128460000Y-61860000D03*
D18*
X131000000Y-61860000D03*
X128460000Y-64400000D03*
X131000000Y-64400000D03*
X128460000Y-66940000D03*
X131000000Y-66940000D03*
X128460000Y-69480000D03*
X131000000Y-69480000D03*
G04 #@! TD*
D17*
G04 #@! TO.C,X201*
X197480000Y-82540000D03*
D18*
X197480000Y-80000000D03*
X200020000Y-82540000D03*
X200020000Y-80000000D03*
X202560000Y-82540000D03*
X202560000Y-80000000D03*
X205100000Y-82540000D03*
X205100000Y-80000000D03*
X207640000Y-82540000D03*
X207640000Y-80000000D03*
X210180000Y-82540000D03*
X210180000Y-80000000D03*
X212720000Y-82540000D03*
X212720000Y-80000000D03*
X215260000Y-82540000D03*
X215260000Y-80000000D03*
X217800000Y-82540000D03*
X217800000Y-80000000D03*
X220340000Y-82540000D03*
X220340000Y-80000000D03*
G04 #@! TD*
D19*
G04 #@! TO.C,JP301*
X119300000Y-74300000D03*
D20*
X119300000Y-76840000D03*
G04 #@! TD*
D21*
G04 #@! TO.C,X104*
X263730000Y-42285000D03*
X266270000Y-43555000D03*
X263730000Y-44825000D03*
X266270000Y-46095000D03*
X263730000Y-47365000D03*
X266270000Y-48635000D03*
X263730000Y-49905000D03*
X266270000Y-51175000D03*
X263730000Y-52445000D03*
X266270000Y-53715000D03*
D22*
X265530000Y-40885000D03*
G04 #@! TD*
D23*
G04 #@! TO.C,X105*
X267500000Y-76400000D03*
D21*
X263500000Y-82400000D03*
X263500000Y-79400000D03*
X266500000Y-82400000D03*
X266500000Y-79400000D03*
D23*
X267440000Y-85400000D03*
G04 #@! TD*
D24*
G04 #@! TO.C,IC301*
X107850000Y-60500000D03*
G04 #@! TD*
D25*
G04 #@! TO.C,X202*
X257000000Y-66540000D03*
X257000000Y-64000000D03*
X258998980Y-64000000D03*
X258998980Y-66540000D03*
D26*
X261699000Y-71269480D03*
X261699000Y-59270520D03*
G04 #@! TD*
M02*
