G04 #@! TF.GenerationSoftware,KiCad,Pcbnew,(5.0.0-3-g5ebb6b6)*
G04 #@! TF.CreationDate,2018-10-15T21:33:50+02:00*
G04 #@! TF.ProjectId,infinitas,696E66696E697461732E6B696361645F,rev?*
G04 #@! TF.SameCoordinates,Original*
G04 #@! TF.FileFunction,Legend,Bot*
G04 #@! TF.FilePolarity,Positive*
%FSLAX46Y46*%
G04 Gerber Fmt 4.6, Leading zero omitted, Abs format (unit mm)*
G04 Created by KiCad (PCBNEW (5.0.0-3-g5ebb6b6)) date Monday, 15. October 2018 um 21:33:50*
%MOMM*%
%LPD*%
G01*
G04 APERTURE LIST*
%ADD10C,0.150000*%
G04 APERTURE END LIST*
D10*
X30000000Y-100000000D02*
X30000000Y-30000000D01*
X270000000Y-100000000D02*
X30000000Y-100000000D01*
X270000000Y-30000000D02*
X270000000Y-100000000D01*
X30000000Y-30000000D02*
X270000000Y-30000000D01*
G04 #@! TO.C,C106*
X143550000Y-71700000D02*
X143550000Y-70700000D01*
X145250000Y-70700000D02*
X145250000Y-71700000D01*
G04 #@! TO.C,C107*
X147850000Y-71700000D02*
X147850000Y-70700000D01*
X149550000Y-70700000D02*
X149550000Y-71700000D01*
G04 #@! TO.C,C108*
X155550000Y-71700000D02*
X155550000Y-70700000D01*
X157250000Y-70700000D02*
X157250000Y-71700000D01*
G04 #@! TO.C,C111*
X160300000Y-64150000D02*
X159300000Y-64150000D01*
X159300000Y-62450000D02*
X160300000Y-62450000D01*
G04 #@! TO.C,C112*
X160300000Y-56350000D02*
X159300000Y-56350000D01*
X159300000Y-54650000D02*
X160300000Y-54650000D01*
G04 #@! TO.C,C113*
X160300000Y-53950000D02*
X159300000Y-53950000D01*
X159300000Y-52250000D02*
X160300000Y-52250000D01*
G04 #@! TO.C,C114*
X157250000Y-51100000D02*
X157250000Y-52100000D01*
X155550000Y-52100000D02*
X155550000Y-51100000D01*
G04 #@! TO.C,C115*
X152250000Y-51100000D02*
X152250000Y-52100000D01*
X150550000Y-52100000D02*
X150550000Y-51100000D01*
G04 #@! TO.C,C116*
X144450000Y-51100000D02*
X144450000Y-52100000D01*
X142750000Y-52100000D02*
X142750000Y-51100000D01*
G04 #@! TO.C,C117*
X141750000Y-51100000D02*
X141750000Y-52100000D01*
X140050000Y-52100000D02*
X140050000Y-51100000D01*
G04 #@! TO.C,C118*
X139600000Y-56250000D02*
X140600000Y-56250000D01*
X140600000Y-57950000D02*
X139600000Y-57950000D01*
G04 #@! TO.C,C119*
X139600000Y-58850000D02*
X140600000Y-58850000D01*
X140600000Y-60550000D02*
X139600000Y-60550000D01*
G04 #@! TO.C,C120*
X139000000Y-65150000D02*
X140000000Y-65150000D01*
X140000000Y-66850000D02*
X139000000Y-66850000D01*
G04 #@! TO.C,C121*
X139000000Y-68750000D02*
X140000000Y-68750000D01*
X140000000Y-70450000D02*
X139000000Y-70450000D01*
G04 #@! TD*
G04 #@! TO.C,C106*
X143057142Y-70080952D02*
X143104761Y-70033333D01*
X143152380Y-69890476D01*
X143152380Y-69795238D01*
X143104761Y-69652380D01*
X143009523Y-69557142D01*
X142914285Y-69509523D01*
X142723809Y-69461904D01*
X142580952Y-69461904D01*
X142390476Y-69509523D01*
X142295238Y-69557142D01*
X142200000Y-69652380D01*
X142152380Y-69795238D01*
X142152380Y-69890476D01*
X142200000Y-70033333D01*
X142247619Y-70080952D01*
X143152380Y-71033333D02*
X143152380Y-70461904D01*
X143152380Y-70747619D02*
X142152380Y-70747619D01*
X142295238Y-70652380D01*
X142390476Y-70557142D01*
X142438095Y-70461904D01*
X142152380Y-71652380D02*
X142152380Y-71747619D01*
X142200000Y-71842857D01*
X142247619Y-71890476D01*
X142342857Y-71938095D01*
X142533333Y-71985714D01*
X142771428Y-71985714D01*
X142961904Y-71938095D01*
X143057142Y-71890476D01*
X143104761Y-71842857D01*
X143152380Y-71747619D01*
X143152380Y-71652380D01*
X143104761Y-71557142D01*
X143057142Y-71509523D01*
X142961904Y-71461904D01*
X142771428Y-71414285D01*
X142533333Y-71414285D01*
X142342857Y-71461904D01*
X142247619Y-71509523D01*
X142200000Y-71557142D01*
X142152380Y-71652380D01*
X142152380Y-72842857D02*
X142152380Y-72652380D01*
X142200000Y-72557142D01*
X142247619Y-72509523D01*
X142390476Y-72414285D01*
X142580952Y-72366666D01*
X142961904Y-72366666D01*
X143057142Y-72414285D01*
X143104761Y-72461904D01*
X143152380Y-72557142D01*
X143152380Y-72747619D01*
X143104761Y-72842857D01*
X143057142Y-72890476D01*
X142961904Y-72938095D01*
X142723809Y-72938095D01*
X142628571Y-72890476D01*
X142580952Y-72842857D01*
X142533333Y-72747619D01*
X142533333Y-72557142D01*
X142580952Y-72461904D01*
X142628571Y-72414285D01*
X142723809Y-72366666D01*
G04 #@! TO.C,C107*
X147557142Y-70080952D02*
X147604761Y-70033333D01*
X147652380Y-69890476D01*
X147652380Y-69795238D01*
X147604761Y-69652380D01*
X147509523Y-69557142D01*
X147414285Y-69509523D01*
X147223809Y-69461904D01*
X147080952Y-69461904D01*
X146890476Y-69509523D01*
X146795238Y-69557142D01*
X146700000Y-69652380D01*
X146652380Y-69795238D01*
X146652380Y-69890476D01*
X146700000Y-70033333D01*
X146747619Y-70080952D01*
X147652380Y-71033333D02*
X147652380Y-70461904D01*
X147652380Y-70747619D02*
X146652380Y-70747619D01*
X146795238Y-70652380D01*
X146890476Y-70557142D01*
X146938095Y-70461904D01*
X146652380Y-71652380D02*
X146652380Y-71747619D01*
X146700000Y-71842857D01*
X146747619Y-71890476D01*
X146842857Y-71938095D01*
X147033333Y-71985714D01*
X147271428Y-71985714D01*
X147461904Y-71938095D01*
X147557142Y-71890476D01*
X147604761Y-71842857D01*
X147652380Y-71747619D01*
X147652380Y-71652380D01*
X147604761Y-71557142D01*
X147557142Y-71509523D01*
X147461904Y-71461904D01*
X147271428Y-71414285D01*
X147033333Y-71414285D01*
X146842857Y-71461904D01*
X146747619Y-71509523D01*
X146700000Y-71557142D01*
X146652380Y-71652380D01*
X146652380Y-72319047D02*
X146652380Y-72985714D01*
X147652380Y-72557142D01*
G04 #@! TO.C,C108*
X156757142Y-73580952D02*
X156804761Y-73533333D01*
X156852380Y-73390476D01*
X156852380Y-73295238D01*
X156804761Y-73152380D01*
X156709523Y-73057142D01*
X156614285Y-73009523D01*
X156423809Y-72961904D01*
X156280952Y-72961904D01*
X156090476Y-73009523D01*
X155995238Y-73057142D01*
X155900000Y-73152380D01*
X155852380Y-73295238D01*
X155852380Y-73390476D01*
X155900000Y-73533333D01*
X155947619Y-73580952D01*
X156852380Y-74533333D02*
X156852380Y-73961904D01*
X156852380Y-74247619D02*
X155852380Y-74247619D01*
X155995238Y-74152380D01*
X156090476Y-74057142D01*
X156138095Y-73961904D01*
X155852380Y-75152380D02*
X155852380Y-75247619D01*
X155900000Y-75342857D01*
X155947619Y-75390476D01*
X156042857Y-75438095D01*
X156233333Y-75485714D01*
X156471428Y-75485714D01*
X156661904Y-75438095D01*
X156757142Y-75390476D01*
X156804761Y-75342857D01*
X156852380Y-75247619D01*
X156852380Y-75152380D01*
X156804761Y-75057142D01*
X156757142Y-75009523D01*
X156661904Y-74961904D01*
X156471428Y-74914285D01*
X156233333Y-74914285D01*
X156042857Y-74961904D01*
X155947619Y-75009523D01*
X155900000Y-75057142D01*
X155852380Y-75152380D01*
X156280952Y-76057142D02*
X156233333Y-75961904D01*
X156185714Y-75914285D01*
X156090476Y-75866666D01*
X156042857Y-75866666D01*
X155947619Y-75914285D01*
X155900000Y-75961904D01*
X155852380Y-76057142D01*
X155852380Y-76247619D01*
X155900000Y-76342857D01*
X155947619Y-76390476D01*
X156042857Y-76438095D01*
X156090476Y-76438095D01*
X156185714Y-76390476D01*
X156233333Y-76342857D01*
X156280952Y-76247619D01*
X156280952Y-76057142D01*
X156328571Y-75961904D01*
X156376190Y-75914285D01*
X156471428Y-75866666D01*
X156661904Y-75866666D01*
X156757142Y-75914285D01*
X156804761Y-75961904D01*
X156852380Y-76057142D01*
X156852380Y-76247619D01*
X156804761Y-76342857D01*
X156757142Y-76390476D01*
X156661904Y-76438095D01*
X156471428Y-76438095D01*
X156376190Y-76390476D01*
X156328571Y-76342857D01*
X156280952Y-76247619D01*
G04 #@! TO.C,C111*
X157419047Y-63657142D02*
X157466666Y-63704761D01*
X157609523Y-63752380D01*
X157704761Y-63752380D01*
X157847619Y-63704761D01*
X157942857Y-63609523D01*
X157990476Y-63514285D01*
X158038095Y-63323809D01*
X158038095Y-63180952D01*
X157990476Y-62990476D01*
X157942857Y-62895238D01*
X157847619Y-62800000D01*
X157704761Y-62752380D01*
X157609523Y-62752380D01*
X157466666Y-62800000D01*
X157419047Y-62847619D01*
X156466666Y-63752380D02*
X157038095Y-63752380D01*
X156752380Y-63752380D02*
X156752380Y-62752380D01*
X156847619Y-62895238D01*
X156942857Y-62990476D01*
X157038095Y-63038095D01*
X155514285Y-63752380D02*
X156085714Y-63752380D01*
X155800000Y-63752380D02*
X155800000Y-62752380D01*
X155895238Y-62895238D01*
X155990476Y-62990476D01*
X156085714Y-63038095D01*
X154561904Y-63752380D02*
X155133333Y-63752380D01*
X154847619Y-63752380D02*
X154847619Y-62752380D01*
X154942857Y-62895238D01*
X155038095Y-62990476D01*
X155133333Y-63038095D01*
G04 #@! TO.C,C112*
X157419047Y-55857142D02*
X157466666Y-55904761D01*
X157609523Y-55952380D01*
X157704761Y-55952380D01*
X157847619Y-55904761D01*
X157942857Y-55809523D01*
X157990476Y-55714285D01*
X158038095Y-55523809D01*
X158038095Y-55380952D01*
X157990476Y-55190476D01*
X157942857Y-55095238D01*
X157847619Y-55000000D01*
X157704761Y-54952380D01*
X157609523Y-54952380D01*
X157466666Y-55000000D01*
X157419047Y-55047619D01*
X156466666Y-55952380D02*
X157038095Y-55952380D01*
X156752380Y-55952380D02*
X156752380Y-54952380D01*
X156847619Y-55095238D01*
X156942857Y-55190476D01*
X157038095Y-55238095D01*
X155514285Y-55952380D02*
X156085714Y-55952380D01*
X155800000Y-55952380D02*
X155800000Y-54952380D01*
X155895238Y-55095238D01*
X155990476Y-55190476D01*
X156085714Y-55238095D01*
X155133333Y-55047619D02*
X155085714Y-55000000D01*
X154990476Y-54952380D01*
X154752380Y-54952380D01*
X154657142Y-55000000D01*
X154609523Y-55047619D01*
X154561904Y-55142857D01*
X154561904Y-55238095D01*
X154609523Y-55380952D01*
X155180952Y-55952380D01*
X154561904Y-55952380D01*
G04 #@! TO.C,C113*
X160919047Y-51957142D02*
X160966666Y-52004761D01*
X161109523Y-52052380D01*
X161204761Y-52052380D01*
X161347619Y-52004761D01*
X161442857Y-51909523D01*
X161490476Y-51814285D01*
X161538095Y-51623809D01*
X161538095Y-51480952D01*
X161490476Y-51290476D01*
X161442857Y-51195238D01*
X161347619Y-51100000D01*
X161204761Y-51052380D01*
X161109523Y-51052380D01*
X160966666Y-51100000D01*
X160919047Y-51147619D01*
X159966666Y-52052380D02*
X160538095Y-52052380D01*
X160252380Y-52052380D02*
X160252380Y-51052380D01*
X160347619Y-51195238D01*
X160442857Y-51290476D01*
X160538095Y-51338095D01*
X159014285Y-52052380D02*
X159585714Y-52052380D01*
X159300000Y-52052380D02*
X159300000Y-51052380D01*
X159395238Y-51195238D01*
X159490476Y-51290476D01*
X159585714Y-51338095D01*
X158680952Y-51052380D02*
X158061904Y-51052380D01*
X158395238Y-51433333D01*
X158252380Y-51433333D01*
X158157142Y-51480952D01*
X158109523Y-51528571D01*
X158061904Y-51623809D01*
X158061904Y-51861904D01*
X158109523Y-51957142D01*
X158157142Y-52004761D01*
X158252380Y-52052380D01*
X158538095Y-52052380D01*
X158633333Y-52004761D01*
X158680952Y-51957142D01*
G04 #@! TO.C,C114*
X155157142Y-50480952D02*
X155204761Y-50433333D01*
X155252380Y-50290476D01*
X155252380Y-50195238D01*
X155204761Y-50052380D01*
X155109523Y-49957142D01*
X155014285Y-49909523D01*
X154823809Y-49861904D01*
X154680952Y-49861904D01*
X154490476Y-49909523D01*
X154395238Y-49957142D01*
X154300000Y-50052380D01*
X154252380Y-50195238D01*
X154252380Y-50290476D01*
X154300000Y-50433333D01*
X154347619Y-50480952D01*
X155252380Y-51433333D02*
X155252380Y-50861904D01*
X155252380Y-51147619D02*
X154252380Y-51147619D01*
X154395238Y-51052380D01*
X154490476Y-50957142D01*
X154538095Y-50861904D01*
X155252380Y-52385714D02*
X155252380Y-51814285D01*
X155252380Y-52100000D02*
X154252380Y-52100000D01*
X154395238Y-52004761D01*
X154490476Y-51909523D01*
X154538095Y-51814285D01*
X154585714Y-53242857D02*
X155252380Y-53242857D01*
X154204761Y-53004761D02*
X154919047Y-52766666D01*
X154919047Y-53385714D01*
G04 #@! TO.C,C115*
X151757142Y-53980952D02*
X151804761Y-53933333D01*
X151852380Y-53790476D01*
X151852380Y-53695238D01*
X151804761Y-53552380D01*
X151709523Y-53457142D01*
X151614285Y-53409523D01*
X151423809Y-53361904D01*
X151280952Y-53361904D01*
X151090476Y-53409523D01*
X150995238Y-53457142D01*
X150900000Y-53552380D01*
X150852380Y-53695238D01*
X150852380Y-53790476D01*
X150900000Y-53933333D01*
X150947619Y-53980952D01*
X151852380Y-54933333D02*
X151852380Y-54361904D01*
X151852380Y-54647619D02*
X150852380Y-54647619D01*
X150995238Y-54552380D01*
X151090476Y-54457142D01*
X151138095Y-54361904D01*
X151852380Y-55885714D02*
X151852380Y-55314285D01*
X151852380Y-55600000D02*
X150852380Y-55600000D01*
X150995238Y-55504761D01*
X151090476Y-55409523D01*
X151138095Y-55314285D01*
X150852380Y-56790476D02*
X150852380Y-56314285D01*
X151328571Y-56266666D01*
X151280952Y-56314285D01*
X151233333Y-56409523D01*
X151233333Y-56647619D01*
X151280952Y-56742857D01*
X151328571Y-56790476D01*
X151423809Y-56838095D01*
X151661904Y-56838095D01*
X151757142Y-56790476D01*
X151804761Y-56742857D01*
X151852380Y-56647619D01*
X151852380Y-56409523D01*
X151804761Y-56314285D01*
X151757142Y-56266666D01*
G04 #@! TO.C,C116*
X143957142Y-53980952D02*
X144004761Y-53933333D01*
X144052380Y-53790476D01*
X144052380Y-53695238D01*
X144004761Y-53552380D01*
X143909523Y-53457142D01*
X143814285Y-53409523D01*
X143623809Y-53361904D01*
X143480952Y-53361904D01*
X143290476Y-53409523D01*
X143195238Y-53457142D01*
X143100000Y-53552380D01*
X143052380Y-53695238D01*
X143052380Y-53790476D01*
X143100000Y-53933333D01*
X143147619Y-53980952D01*
X144052380Y-54933333D02*
X144052380Y-54361904D01*
X144052380Y-54647619D02*
X143052380Y-54647619D01*
X143195238Y-54552380D01*
X143290476Y-54457142D01*
X143338095Y-54361904D01*
X144052380Y-55885714D02*
X144052380Y-55314285D01*
X144052380Y-55600000D02*
X143052380Y-55600000D01*
X143195238Y-55504761D01*
X143290476Y-55409523D01*
X143338095Y-55314285D01*
X143052380Y-56742857D02*
X143052380Y-56552380D01*
X143100000Y-56457142D01*
X143147619Y-56409523D01*
X143290476Y-56314285D01*
X143480952Y-56266666D01*
X143861904Y-56266666D01*
X143957142Y-56314285D01*
X144004761Y-56361904D01*
X144052380Y-56457142D01*
X144052380Y-56647619D01*
X144004761Y-56742857D01*
X143957142Y-56790476D01*
X143861904Y-56838095D01*
X143623809Y-56838095D01*
X143528571Y-56790476D01*
X143480952Y-56742857D01*
X143433333Y-56647619D01*
X143433333Y-56457142D01*
X143480952Y-56361904D01*
X143528571Y-56314285D01*
X143623809Y-56266666D01*
G04 #@! TO.C,C117*
X139657142Y-50480952D02*
X139704761Y-50433333D01*
X139752380Y-50290476D01*
X139752380Y-50195238D01*
X139704761Y-50052380D01*
X139609523Y-49957142D01*
X139514285Y-49909523D01*
X139323809Y-49861904D01*
X139180952Y-49861904D01*
X138990476Y-49909523D01*
X138895238Y-49957142D01*
X138800000Y-50052380D01*
X138752380Y-50195238D01*
X138752380Y-50290476D01*
X138800000Y-50433333D01*
X138847619Y-50480952D01*
X139752380Y-51433333D02*
X139752380Y-50861904D01*
X139752380Y-51147619D02*
X138752380Y-51147619D01*
X138895238Y-51052380D01*
X138990476Y-50957142D01*
X139038095Y-50861904D01*
X139752380Y-52385714D02*
X139752380Y-51814285D01*
X139752380Y-52100000D02*
X138752380Y-52100000D01*
X138895238Y-52004761D01*
X138990476Y-51909523D01*
X139038095Y-51814285D01*
X138752380Y-52719047D02*
X138752380Y-53385714D01*
X139752380Y-52957142D01*
G04 #@! TO.C,C118*
X141219047Y-55957142D02*
X141266666Y-56004761D01*
X141409523Y-56052380D01*
X141504761Y-56052380D01*
X141647619Y-56004761D01*
X141742857Y-55909523D01*
X141790476Y-55814285D01*
X141838095Y-55623809D01*
X141838095Y-55480952D01*
X141790476Y-55290476D01*
X141742857Y-55195238D01*
X141647619Y-55100000D01*
X141504761Y-55052380D01*
X141409523Y-55052380D01*
X141266666Y-55100000D01*
X141219047Y-55147619D01*
X140266666Y-56052380D02*
X140838095Y-56052380D01*
X140552380Y-56052380D02*
X140552380Y-55052380D01*
X140647619Y-55195238D01*
X140742857Y-55290476D01*
X140838095Y-55338095D01*
X139314285Y-56052380D02*
X139885714Y-56052380D01*
X139600000Y-56052380D02*
X139600000Y-55052380D01*
X139695238Y-55195238D01*
X139790476Y-55290476D01*
X139885714Y-55338095D01*
X138742857Y-55480952D02*
X138838095Y-55433333D01*
X138885714Y-55385714D01*
X138933333Y-55290476D01*
X138933333Y-55242857D01*
X138885714Y-55147619D01*
X138838095Y-55100000D01*
X138742857Y-55052380D01*
X138552380Y-55052380D01*
X138457142Y-55100000D01*
X138409523Y-55147619D01*
X138361904Y-55242857D01*
X138361904Y-55290476D01*
X138409523Y-55385714D01*
X138457142Y-55433333D01*
X138552380Y-55480952D01*
X138742857Y-55480952D01*
X138838095Y-55528571D01*
X138885714Y-55576190D01*
X138933333Y-55671428D01*
X138933333Y-55861904D01*
X138885714Y-55957142D01*
X138838095Y-56004761D01*
X138742857Y-56052380D01*
X138552380Y-56052380D01*
X138457142Y-56004761D01*
X138409523Y-55957142D01*
X138361904Y-55861904D01*
X138361904Y-55671428D01*
X138409523Y-55576190D01*
X138457142Y-55528571D01*
X138552380Y-55480952D01*
G04 #@! TO.C,C119*
X141219047Y-58557142D02*
X141266666Y-58604761D01*
X141409523Y-58652380D01*
X141504761Y-58652380D01*
X141647619Y-58604761D01*
X141742857Y-58509523D01*
X141790476Y-58414285D01*
X141838095Y-58223809D01*
X141838095Y-58080952D01*
X141790476Y-57890476D01*
X141742857Y-57795238D01*
X141647619Y-57700000D01*
X141504761Y-57652380D01*
X141409523Y-57652380D01*
X141266666Y-57700000D01*
X141219047Y-57747619D01*
X140266666Y-58652380D02*
X140838095Y-58652380D01*
X140552380Y-58652380D02*
X140552380Y-57652380D01*
X140647619Y-57795238D01*
X140742857Y-57890476D01*
X140838095Y-57938095D01*
X139314285Y-58652380D02*
X139885714Y-58652380D01*
X139600000Y-58652380D02*
X139600000Y-57652380D01*
X139695238Y-57795238D01*
X139790476Y-57890476D01*
X139885714Y-57938095D01*
X138838095Y-58652380D02*
X138647619Y-58652380D01*
X138552380Y-58604761D01*
X138504761Y-58557142D01*
X138409523Y-58414285D01*
X138361904Y-58223809D01*
X138361904Y-57842857D01*
X138409523Y-57747619D01*
X138457142Y-57700000D01*
X138552380Y-57652380D01*
X138742857Y-57652380D01*
X138838095Y-57700000D01*
X138885714Y-57747619D01*
X138933333Y-57842857D01*
X138933333Y-58080952D01*
X138885714Y-58176190D01*
X138838095Y-58223809D01*
X138742857Y-58271428D01*
X138552380Y-58271428D01*
X138457142Y-58223809D01*
X138409523Y-58176190D01*
X138361904Y-58080952D01*
G04 #@! TO.C,C120*
X140619047Y-64757142D02*
X140666666Y-64804761D01*
X140809523Y-64852380D01*
X140904761Y-64852380D01*
X141047619Y-64804761D01*
X141142857Y-64709523D01*
X141190476Y-64614285D01*
X141238095Y-64423809D01*
X141238095Y-64280952D01*
X141190476Y-64090476D01*
X141142857Y-63995238D01*
X141047619Y-63900000D01*
X140904761Y-63852380D01*
X140809523Y-63852380D01*
X140666666Y-63900000D01*
X140619047Y-63947619D01*
X139666666Y-64852380D02*
X140238095Y-64852380D01*
X139952380Y-64852380D02*
X139952380Y-63852380D01*
X140047619Y-63995238D01*
X140142857Y-64090476D01*
X140238095Y-64138095D01*
X139285714Y-63947619D02*
X139238095Y-63900000D01*
X139142857Y-63852380D01*
X138904761Y-63852380D01*
X138809523Y-63900000D01*
X138761904Y-63947619D01*
X138714285Y-64042857D01*
X138714285Y-64138095D01*
X138761904Y-64280952D01*
X139333333Y-64852380D01*
X138714285Y-64852380D01*
X138095238Y-63852380D02*
X138000000Y-63852380D01*
X137904761Y-63900000D01*
X137857142Y-63947619D01*
X137809523Y-64042857D01*
X137761904Y-64233333D01*
X137761904Y-64471428D01*
X137809523Y-64661904D01*
X137857142Y-64757142D01*
X137904761Y-64804761D01*
X138000000Y-64852380D01*
X138095238Y-64852380D01*
X138190476Y-64804761D01*
X138238095Y-64757142D01*
X138285714Y-64661904D01*
X138333333Y-64471428D01*
X138333333Y-64233333D01*
X138285714Y-64042857D01*
X138238095Y-63947619D01*
X138190476Y-63900000D01*
X138095238Y-63852380D01*
G04 #@! TO.C,C121*
X140619047Y-71557142D02*
X140666666Y-71604761D01*
X140809523Y-71652380D01*
X140904761Y-71652380D01*
X141047619Y-71604761D01*
X141142857Y-71509523D01*
X141190476Y-71414285D01*
X141238095Y-71223809D01*
X141238095Y-71080952D01*
X141190476Y-70890476D01*
X141142857Y-70795238D01*
X141047619Y-70700000D01*
X140904761Y-70652380D01*
X140809523Y-70652380D01*
X140666666Y-70700000D01*
X140619047Y-70747619D01*
X139666666Y-71652380D02*
X140238095Y-71652380D01*
X139952380Y-71652380D02*
X139952380Y-70652380D01*
X140047619Y-70795238D01*
X140142857Y-70890476D01*
X140238095Y-70938095D01*
X139285714Y-70747619D02*
X139238095Y-70700000D01*
X139142857Y-70652380D01*
X138904761Y-70652380D01*
X138809523Y-70700000D01*
X138761904Y-70747619D01*
X138714285Y-70842857D01*
X138714285Y-70938095D01*
X138761904Y-71080952D01*
X139333333Y-71652380D01*
X138714285Y-71652380D01*
X137761904Y-71652380D02*
X138333333Y-71652380D01*
X138047619Y-71652380D02*
X138047619Y-70652380D01*
X138142857Y-70795238D01*
X138238095Y-70890476D01*
X138333333Y-70938095D01*
G04 #@! TD*
M02*
