G04 #@! TF.FileFunction,Soldermask,Top*
%FSLAX46Y46*%
G04 Gerber Fmt 4.6, Leading zero omitted, Abs format (unit mm)*
G04 Created by KiCad (PCBNEW 4.0.2-stable) date Montag, 04. Dezember 2017 'u31' 15:31:44*
%MOMM*%
G01*
G04 APERTURE LIST*
%ADD10C,0.100000*%
%ADD11C,0.150000*%
%ADD12R,1.900000X0.700000*%
%ADD13R,0.700000X1.900000*%
%ADD14C,6.000000*%
%ADD15R,1.700000X1.400000*%
%ADD16R,1.400000X1.700000*%
%ADD17R,1.700480X2.099260*%
%ADD18R,2.432000X4.057600*%
%ADD19R,2.432000X1.416000*%
%ADD20C,2.600000*%
%ADD21R,3.900120X3.900120*%
%ADD22R,2.127200X2.127200*%
%ADD23O,2.127200X2.127200*%
%ADD24C,1.800000*%
%ADD25C,3.400000*%
%ADD26R,5.650000X5.650000*%
%ADD27R,0.700000X0.950000*%
%ADD28R,0.950000X0.700000*%
%ADD29R,1.050000X2.100000*%
%ADD30R,1.598880X1.799540*%
%ADD31R,1.400760X1.799540*%
%ADD32R,2.432000X2.432000*%
%ADD33O,2.432000X2.432000*%
%ADD34R,3.448000X2.051000*%
%ADD35R,6.496000X6.496000*%
%ADD36R,0.900000X1.200000*%
%ADD37R,0.800000X1.200000*%
%ADD38R,0.700000X1.800000*%
%ADD39R,1.900000X1.000000*%
%ADD40R,2.127200X2.432000*%
%ADD41O,2.127200X2.432000*%
%ADD42R,1.000000X0.900000*%
%ADD43R,0.900000X1.000000*%
%ADD44R,1.310000X1.620000*%
%ADD45R,1.400000X0.630000*%
%ADD46R,0.630000X1.400000*%
%ADD47R,5.200000X5.200000*%
%ADD48O,5.200000X5.200000*%
%ADD49R,1.950000X1.000000*%
%ADD50C,1.924000*%
%ADD51C,3.100020*%
%ADD52R,1.200000X0.900000*%
%ADD53R,1.200000X0.800000*%
%ADD54R,1.060400X0.806400*%
%ADD55R,1.050000X1.460000*%
%ADD56R,2.600000X2.600000*%
%ADD57R,1.200100X1.200100*%
%ADD58R,1.200000X1.200000*%
%ADD59O,1.200000X1.200000*%
%ADD60R,2.100000X1.900000*%
%ADD61C,1.500000*%
%ADD62C,2.000000*%
%ADD63R,1.149300X0.798780*%
G04 APERTURE END LIST*
D10*
D11*
X100000000Y-150000000D02*
X100000000Y-50000000D01*
X200000000Y-150000000D02*
X100000000Y-150000000D01*
X200000000Y-50000000D02*
X200000000Y-150000000D01*
X100000000Y-50000000D02*
X200000000Y-50000000D01*
D12*
X152500000Y-68000000D03*
X152500000Y-68500000D03*
X152500000Y-69000000D03*
X152500000Y-69500000D03*
X152500000Y-70000000D03*
X152500000Y-70500000D03*
X152500000Y-71000000D03*
X152500000Y-71500000D03*
X152500000Y-72000000D03*
X152500000Y-72500000D03*
X152500000Y-73000000D03*
X152500000Y-73500000D03*
X152500000Y-74000000D03*
X152500000Y-74500000D03*
X152500000Y-75000000D03*
X152500000Y-75500000D03*
X152500000Y-76000000D03*
X152500000Y-76500000D03*
X152500000Y-77000000D03*
X152500000Y-77500000D03*
X152500000Y-78000000D03*
X152500000Y-78500000D03*
X152500000Y-79000000D03*
X152500000Y-79500000D03*
X152500000Y-80000000D03*
D13*
X154200000Y-81700000D03*
X154700000Y-81700000D03*
X155200000Y-81700000D03*
X155700000Y-81700000D03*
X156200000Y-81700000D03*
X156700000Y-81700000D03*
X157200000Y-81700000D03*
X157700000Y-81700000D03*
X158200000Y-81700000D03*
X158700000Y-81700000D03*
X159200000Y-81700000D03*
X159700000Y-81700000D03*
X160200000Y-81700000D03*
X160700000Y-81700000D03*
X161200000Y-81700000D03*
X161700000Y-81700000D03*
X162200000Y-81700000D03*
X162700000Y-81700000D03*
X163200000Y-81700000D03*
X163700000Y-81700000D03*
X164200000Y-81700000D03*
X164700000Y-81700000D03*
X165200000Y-81700000D03*
X165700000Y-81700000D03*
X166200000Y-81700000D03*
D12*
X167900000Y-80000000D03*
X167900000Y-79500000D03*
X167900000Y-79000000D03*
X167900000Y-78500000D03*
X167900000Y-78000000D03*
X167900000Y-77500000D03*
X167900000Y-77000000D03*
X167900000Y-76500000D03*
X167900000Y-76000000D03*
X167900000Y-75500000D03*
X167900000Y-75000000D03*
X167900000Y-74500000D03*
X167900000Y-74000000D03*
X167900000Y-73500000D03*
X167900000Y-73000000D03*
X167900000Y-72500000D03*
X167900000Y-72000000D03*
X167900000Y-71500000D03*
X167900000Y-71000000D03*
X167900000Y-70500000D03*
X167900000Y-70000000D03*
X167900000Y-69500000D03*
X167900000Y-69000000D03*
X167900000Y-68500000D03*
X167900000Y-68000000D03*
D13*
X166200000Y-66300000D03*
X165700000Y-66300000D03*
X165200000Y-66300000D03*
X164700000Y-66300000D03*
X164200000Y-66300000D03*
X163700000Y-66300000D03*
X163200000Y-66300000D03*
X162700000Y-66300000D03*
X162200000Y-66300000D03*
X161700000Y-66300000D03*
X161200000Y-66300000D03*
X160700000Y-66300000D03*
X160200000Y-66300000D03*
X159700000Y-66300000D03*
X159200000Y-66300000D03*
X158700000Y-66300000D03*
X158200000Y-66300000D03*
X157700000Y-66300000D03*
X157200000Y-66300000D03*
X156700000Y-66300000D03*
X156200000Y-66300000D03*
X155700000Y-66300000D03*
X155200000Y-66300000D03*
X154700000Y-66300000D03*
X154200000Y-66300000D03*
D14*
X105000000Y-55000000D03*
X195000000Y-55000000D03*
X195000000Y-145000000D03*
X105000000Y-145000000D03*
D15*
X103600000Y-127300000D03*
X103600000Y-125500000D03*
D16*
X114900000Y-126000000D03*
X116700000Y-126000000D03*
X114900000Y-109000000D03*
X116700000Y-109000000D03*
D15*
X128300000Y-130900000D03*
X128300000Y-129100000D03*
D16*
X150100000Y-70500000D03*
X148300000Y-70500000D03*
X150500000Y-79000000D03*
X148700000Y-79000000D03*
X150500000Y-81400000D03*
X148700000Y-81400000D03*
D15*
X166500000Y-85300000D03*
X166500000Y-87100000D03*
X168500000Y-85300000D03*
X168500000Y-87100000D03*
D16*
X171000000Y-79700000D03*
X172800000Y-79700000D03*
X171000000Y-66900000D03*
X172800000Y-66900000D03*
D15*
X164200000Y-64000000D03*
X164200000Y-62200000D03*
X158100000Y-64300000D03*
X158100000Y-62500000D03*
X152700000Y-64300000D03*
X152700000Y-62500000D03*
D17*
X127649940Y-135000000D03*
X131150060Y-135000000D03*
X131150060Y-132800000D03*
X127649940Y-132800000D03*
D18*
X112602000Y-125000000D03*
D19*
X105998000Y-125000000D03*
X105998000Y-127286000D03*
X105998000Y-122714000D03*
D18*
X112602000Y-108000000D03*
D19*
X105998000Y-108000000D03*
X105998000Y-110286000D03*
X105998000Y-105714000D03*
D15*
X152900000Y-57100000D03*
X152900000Y-55300000D03*
X155700000Y-85300000D03*
X155700000Y-87100000D03*
X142500000Y-140100000D03*
X142500000Y-138300000D03*
X142500000Y-134800000D03*
X142500000Y-136600000D03*
X133000000Y-133400000D03*
X133000000Y-135200000D03*
D16*
X139400000Y-127100000D03*
X137600000Y-127100000D03*
D15*
X135000000Y-135200000D03*
X135000000Y-133400000D03*
D20*
X147000000Y-138240000D03*
X147000000Y-134430000D03*
X147000000Y-130620000D03*
X144775000Y-148400000D03*
X149225000Y-148400000D03*
D21*
X113000000Y-138299860D03*
X113000000Y-144299340D03*
X117699000Y-141299600D03*
D22*
X155660000Y-58800000D03*
D23*
X155660000Y-56260000D03*
X158200000Y-58800000D03*
X158200000Y-56260000D03*
X160740000Y-58800000D03*
X160740000Y-56260000D03*
X163280000Y-58800000D03*
X163280000Y-56260000D03*
D24*
X133000000Y-137550000D03*
X135540000Y-137550000D03*
D25*
X127920000Y-142630000D03*
X138080000Y-142630000D03*
D15*
X136632062Y-65394668D03*
X136632062Y-67194668D03*
X132300000Y-67200000D03*
X132300000Y-65400000D03*
X134300000Y-67200000D03*
X134300000Y-65400000D03*
X134300000Y-63700000D03*
X134300000Y-61900000D03*
X124000000Y-83200000D03*
X124000000Y-85000000D03*
D16*
X117100000Y-71700000D03*
X115300000Y-71700000D03*
X128500000Y-69600000D03*
X126700000Y-69600000D03*
X128500000Y-78100000D03*
X126700000Y-78100000D03*
X141600000Y-80100000D03*
X143400000Y-80100000D03*
X141600000Y-69305332D03*
X143400000Y-69305332D03*
D15*
X141100000Y-67200000D03*
X141100000Y-65400000D03*
X130300000Y-67200000D03*
X130300000Y-65400000D03*
D16*
X128500000Y-82100000D03*
X126700000Y-82100000D03*
X141600000Y-78100000D03*
X143400000Y-78100000D03*
D15*
X141100000Y-61900000D03*
X141100000Y-63700000D03*
X139100000Y-61900000D03*
X139100000Y-63700000D03*
D26*
X135000000Y-73850000D03*
D27*
X139250000Y-68850000D03*
X138750000Y-68850000D03*
X138250000Y-68850000D03*
X137750000Y-68850000D03*
X137250000Y-68850000D03*
X136750000Y-68850000D03*
X136250000Y-68850000D03*
X135750000Y-68850000D03*
X135250000Y-68850000D03*
X134750000Y-68850000D03*
X134250000Y-68850000D03*
X133750000Y-68850000D03*
X133250000Y-68850000D03*
X132750000Y-68850000D03*
X132250000Y-68850000D03*
X131750000Y-68850000D03*
X131250000Y-68850000D03*
X130750000Y-68850000D03*
D28*
X130000000Y-69600000D03*
X130000000Y-70100000D03*
X130000000Y-70600000D03*
X130000000Y-71100000D03*
X130000000Y-71600000D03*
X130000000Y-72100000D03*
X130000000Y-72600000D03*
X130000000Y-73100000D03*
X130000000Y-73600000D03*
X130000000Y-74100000D03*
X130000000Y-74600000D03*
X130000000Y-75100000D03*
X130000000Y-75600000D03*
X130000000Y-76100000D03*
X130000000Y-76600000D03*
X130000000Y-77100000D03*
X130000000Y-77600000D03*
X130000000Y-78100000D03*
D27*
X130750000Y-78850000D03*
X131250000Y-78850000D03*
X131750000Y-78850000D03*
X132250000Y-78850000D03*
X132750000Y-78850000D03*
X133250000Y-78850000D03*
X133750000Y-78850000D03*
X134250000Y-78850000D03*
X134750000Y-78850000D03*
X135250000Y-78850000D03*
X135750000Y-78850000D03*
X136250000Y-78850000D03*
X136750000Y-78850000D03*
X137250000Y-78850000D03*
X137750000Y-78850000D03*
X138250000Y-78850000D03*
X138750000Y-78850000D03*
X139250000Y-78850000D03*
D28*
X140000000Y-78100000D03*
X140000000Y-77600000D03*
X140000000Y-77100000D03*
X140000000Y-76600000D03*
X140000000Y-76100000D03*
X140000000Y-75600000D03*
X140000000Y-75100000D03*
X140000000Y-74600000D03*
X140000000Y-74100000D03*
X140000000Y-73600000D03*
X140000000Y-73100000D03*
X140000000Y-72600000D03*
X140000000Y-72100000D03*
X140000000Y-71600000D03*
X140000000Y-71100000D03*
X140000000Y-70600000D03*
X140000000Y-70100000D03*
X140000000Y-69600000D03*
D29*
X124005000Y-73850000D03*
X122735000Y-73850000D03*
X121465000Y-73850000D03*
X120195000Y-73850000D03*
X120195000Y-81150000D03*
X121465000Y-81150000D03*
X122735000Y-81150000D03*
X124005000Y-81150000D03*
D30*
X116869620Y-67500180D03*
D31*
X115150040Y-67500180D03*
X115150040Y-69699820D03*
X117049960Y-69699820D03*
D32*
X117467938Y-81505332D03*
D33*
X114927938Y-81505332D03*
D34*
X127500000Y-67386000D03*
D35*
X121150000Y-65100000D03*
D34*
X127500000Y-62814000D03*
D15*
X130300000Y-63700000D03*
X130300000Y-61900000D03*
X132300000Y-63700000D03*
X132300000Y-61900000D03*
D16*
X128500000Y-84100000D03*
X126700000Y-84100000D03*
D15*
X116100000Y-78900000D03*
X116100000Y-77100000D03*
X118100000Y-78900000D03*
X118100000Y-77100000D03*
X116100000Y-75400000D03*
X116100000Y-73600000D03*
X118100000Y-75400000D03*
X118100000Y-73600000D03*
D16*
X117100000Y-63500000D03*
X115300000Y-63500000D03*
X115300000Y-65500000D03*
X117100000Y-65500000D03*
D15*
X139100000Y-65400000D03*
X139100000Y-67200000D03*
X136632062Y-63694668D03*
X136632062Y-61894668D03*
D36*
X136600000Y-81500000D03*
D37*
X135000000Y-81500000D03*
X135800000Y-81500000D03*
D36*
X134200000Y-81500000D03*
D37*
X135800000Y-83300000D03*
D36*
X136600000Y-83300000D03*
D37*
X135000000Y-83300000D03*
D36*
X134200000Y-83300000D03*
X133000000Y-81500000D03*
D37*
X131400000Y-81500000D03*
X132200000Y-81500000D03*
D36*
X130600000Y-81500000D03*
D37*
X132200000Y-83300000D03*
D36*
X133000000Y-83300000D03*
D37*
X131400000Y-83300000D03*
D36*
X130600000Y-83300000D03*
D16*
X128500000Y-80100000D03*
X126700000Y-80100000D03*
X141600000Y-82100000D03*
X143400000Y-82100000D03*
D15*
X103600000Y-110300000D03*
X103600000Y-108500000D03*
D16*
X114900000Y-107000000D03*
X116700000Y-107000000D03*
X114900000Y-124000000D03*
X116700000Y-124000000D03*
D22*
X127660000Y-54000000D03*
D23*
X127660000Y-56540000D03*
X125120000Y-54000000D03*
X125120000Y-56540000D03*
X122580000Y-54000000D03*
X122580000Y-56540000D03*
X120040000Y-54000000D03*
X120040000Y-56540000D03*
X117500000Y-54000000D03*
X117500000Y-56540000D03*
D15*
X166200000Y-62200000D03*
X166200000Y-64000000D03*
X168200000Y-62200000D03*
X168200000Y-64000000D03*
D38*
X168000000Y-60400000D03*
X168500000Y-60400000D03*
X169000000Y-60400000D03*
X169500000Y-60400000D03*
X170000000Y-60400000D03*
X170000000Y-56000000D03*
X169500000Y-56000000D03*
X169000000Y-56000000D03*
X168500000Y-56000000D03*
X168000000Y-56000000D03*
D15*
X166100000Y-60500000D03*
X166100000Y-58700000D03*
X162100000Y-64000000D03*
X162100000Y-62200000D03*
X162700000Y-124100000D03*
X162700000Y-125900000D03*
X161000000Y-135200000D03*
X161000000Y-133400000D03*
X159000000Y-135200000D03*
X159000000Y-133400000D03*
X157000000Y-135200000D03*
X157000000Y-133400000D03*
X155000000Y-135200000D03*
X155000000Y-133400000D03*
D24*
X161000000Y-137550000D03*
X163540000Y-137550000D03*
D25*
X155920000Y-142630000D03*
X166080000Y-142630000D03*
D39*
X135700000Y-130910000D03*
X135700000Y-129640000D03*
X135700000Y-128370000D03*
X135700000Y-127100000D03*
X135700000Y-125830000D03*
X135700000Y-124560000D03*
X135700000Y-123290000D03*
X130300000Y-123290000D03*
X130300000Y-124560000D03*
X130300000Y-125830000D03*
X130300000Y-127100000D03*
X130300000Y-128370000D03*
X130300000Y-129640000D03*
X130300000Y-130910000D03*
X155300000Y-124090000D03*
X155300000Y-125360000D03*
X155300000Y-126630000D03*
X155300000Y-127900000D03*
X155300000Y-129170000D03*
X155300000Y-130440000D03*
X155300000Y-131710000D03*
X160700000Y-131710000D03*
X160700000Y-130440000D03*
X160700000Y-129170000D03*
X160700000Y-127900000D03*
X160700000Y-126630000D03*
X160700000Y-125360000D03*
X160700000Y-124090000D03*
D22*
X184600000Y-80950000D03*
D23*
X187140000Y-80950000D03*
X184600000Y-83490000D03*
X187140000Y-83490000D03*
X184600000Y-86030000D03*
X187140000Y-86030000D03*
X184600000Y-88570000D03*
X187140000Y-88570000D03*
X184600000Y-91110000D03*
X187140000Y-91110000D03*
X184600000Y-93650000D03*
X187140000Y-93650000D03*
X184600000Y-96190000D03*
X187140000Y-96190000D03*
X184600000Y-98730000D03*
X187140000Y-98730000D03*
X184600000Y-101270000D03*
X187140000Y-101270000D03*
X184600000Y-103810000D03*
X187140000Y-103810000D03*
X184600000Y-106350000D03*
X187140000Y-106350000D03*
X184600000Y-108890000D03*
X187140000Y-108890000D03*
X184600000Y-111430000D03*
X187140000Y-111430000D03*
X184600000Y-113970000D03*
X187140000Y-113970000D03*
X184600000Y-116510000D03*
X187140000Y-116510000D03*
X184600000Y-119050000D03*
X187140000Y-119050000D03*
X184600000Y-121590000D03*
X187140000Y-121590000D03*
D22*
X194160000Y-80950000D03*
D23*
X196700000Y-80950000D03*
X194160000Y-83490000D03*
X196700000Y-83490000D03*
X194160000Y-86030000D03*
X196700000Y-86030000D03*
X194160000Y-88570000D03*
X196700000Y-88570000D03*
X194160000Y-91110000D03*
X196700000Y-91110000D03*
X194160000Y-93650000D03*
X196700000Y-93650000D03*
X194160000Y-96190000D03*
X196700000Y-96190000D03*
X194160000Y-98730000D03*
X196700000Y-98730000D03*
X194160000Y-101270000D03*
X196700000Y-101270000D03*
X194160000Y-103810000D03*
X196700000Y-103810000D03*
X194160000Y-106350000D03*
X196700000Y-106350000D03*
X194160000Y-108890000D03*
X196700000Y-108890000D03*
X194160000Y-111430000D03*
X196700000Y-111430000D03*
X194160000Y-113970000D03*
X196700000Y-113970000D03*
X194160000Y-116510000D03*
X196700000Y-116510000D03*
X194160000Y-119050000D03*
X196700000Y-119050000D03*
X194160000Y-121590000D03*
X196700000Y-121590000D03*
D22*
X144860000Y-94280000D03*
D23*
X147400000Y-94280000D03*
X144860000Y-96820000D03*
X147400000Y-96820000D03*
X144860000Y-99360000D03*
X147400000Y-99360000D03*
X144860000Y-101900000D03*
X147400000Y-101900000D03*
X144860000Y-104440000D03*
X147400000Y-104440000D03*
X144860000Y-106980000D03*
X147400000Y-106980000D03*
X144860000Y-109520000D03*
X147400000Y-109520000D03*
X144860000Y-112060000D03*
X147400000Y-112060000D03*
X144860000Y-114600000D03*
X147400000Y-114600000D03*
X144860000Y-117140000D03*
X147400000Y-117140000D03*
D40*
X188040000Y-134600000D03*
D41*
X185500000Y-134600000D03*
X182960000Y-134600000D03*
X180420000Y-134600000D03*
D16*
X168200000Y-94600000D03*
X170000000Y-94600000D03*
D42*
X156350000Y-105900000D03*
X155250000Y-105900000D03*
D16*
X181100000Y-132200000D03*
X179300000Y-132200000D03*
D15*
X175600000Y-141700000D03*
X175600000Y-139900000D03*
X151200000Y-120000000D03*
X151200000Y-121800000D03*
D42*
X156350000Y-104500000D03*
X155250000Y-104500000D03*
X156350000Y-107100000D03*
X155250000Y-107100000D03*
X156350000Y-109800000D03*
X155250000Y-109800000D03*
D43*
X160900000Y-116350000D03*
X160900000Y-117450000D03*
X162500000Y-116350000D03*
X162500000Y-117450000D03*
X166100000Y-116350000D03*
X166100000Y-117450000D03*
X168500000Y-116350000D03*
X168500000Y-117450000D03*
X170100000Y-116350000D03*
X170100000Y-117450000D03*
D42*
X175450000Y-109800000D03*
X176550000Y-109800000D03*
X175450000Y-107100000D03*
X176550000Y-107100000D03*
X175450000Y-104200000D03*
X176550000Y-104200000D03*
D43*
X170300000Y-97350000D03*
X170300000Y-96250000D03*
X162900000Y-97350000D03*
X162900000Y-96250000D03*
D42*
X156350000Y-102400000D03*
X155250000Y-102400000D03*
X156350000Y-108300000D03*
X155250000Y-108300000D03*
X156350000Y-111800000D03*
X155250000Y-111800000D03*
D43*
X163700000Y-116350000D03*
X163700000Y-117450000D03*
X167300000Y-116350000D03*
X167300000Y-117450000D03*
D42*
X175450000Y-112200000D03*
X176550000Y-112200000D03*
X175450000Y-105900000D03*
X176550000Y-105900000D03*
X175450000Y-102100000D03*
X176550000Y-102100000D03*
D43*
X168900000Y-97350000D03*
X168900000Y-96250000D03*
X166500000Y-97350000D03*
X166500000Y-96250000D03*
D44*
X182565000Y-132200000D03*
X185835000Y-132200000D03*
D45*
X158200000Y-100600000D03*
X158200000Y-101000000D03*
X158200000Y-101400000D03*
X158200000Y-101800000D03*
X158200000Y-102200000D03*
X158200000Y-102600000D03*
X158200000Y-103000000D03*
X158200000Y-103400000D03*
X158200000Y-103800000D03*
X158200000Y-104200000D03*
X158200000Y-104600000D03*
X158200000Y-105000000D03*
X158200000Y-105400000D03*
X158200000Y-105800000D03*
X158200000Y-106200000D03*
X158200000Y-106600000D03*
X158200000Y-107000000D03*
X158200000Y-107400000D03*
X158200000Y-107800000D03*
X158200000Y-108200000D03*
X158200000Y-108600000D03*
X158200000Y-109000000D03*
X158200000Y-109400000D03*
X158200000Y-109800000D03*
X158200000Y-110200000D03*
X158200000Y-110600000D03*
X158200000Y-111000000D03*
X158200000Y-111400000D03*
X158200000Y-111800000D03*
X158200000Y-112200000D03*
X158200000Y-112600000D03*
X158200000Y-113000000D03*
D46*
X159700000Y-114500000D03*
X160100000Y-114500000D03*
X160500000Y-114500000D03*
X160900000Y-114500000D03*
X161300000Y-114500000D03*
X161700000Y-114500000D03*
X162100000Y-114500000D03*
X162500000Y-114500000D03*
X162900000Y-114500000D03*
X163300000Y-114500000D03*
X163700000Y-114500000D03*
X164100000Y-114500000D03*
X164500000Y-114500000D03*
X164900000Y-114500000D03*
X165300000Y-114500000D03*
X165700000Y-114500000D03*
X166100000Y-114500000D03*
X166500000Y-114500000D03*
X166900000Y-114500000D03*
X167300000Y-114500000D03*
X167700000Y-114500000D03*
X168100000Y-114500000D03*
X168500000Y-114500000D03*
X168900000Y-114500000D03*
X169300000Y-114500000D03*
X169700000Y-114500000D03*
X170100000Y-114500000D03*
X170500000Y-114500000D03*
X170900000Y-114500000D03*
X171300000Y-114500000D03*
X171700000Y-114500000D03*
X172100000Y-114500000D03*
D45*
X173600000Y-113000000D03*
X173600000Y-112600000D03*
X173600000Y-112200000D03*
X173600000Y-111800000D03*
X173600000Y-111400000D03*
X173600000Y-111000000D03*
X173600000Y-110600000D03*
X173600000Y-110200000D03*
X173600000Y-109800000D03*
X173600000Y-109400000D03*
X173600000Y-109000000D03*
X173600000Y-108600000D03*
X173600000Y-108200000D03*
X173600000Y-107800000D03*
X173600000Y-107400000D03*
X173600000Y-107000000D03*
X173600000Y-106600000D03*
X173600000Y-106200000D03*
X173600000Y-105800000D03*
X173600000Y-105400000D03*
X173600000Y-105000000D03*
X173600000Y-104600000D03*
X173600000Y-104200000D03*
X173600000Y-103800000D03*
X173600000Y-103400000D03*
X173600000Y-103000000D03*
X173600000Y-102600000D03*
X173600000Y-102200000D03*
X173600000Y-101800000D03*
X173600000Y-101400000D03*
X173600000Y-101000000D03*
X173600000Y-100600000D03*
D46*
X172100000Y-99100000D03*
X171700000Y-99100000D03*
X171300000Y-99100000D03*
X170900000Y-99100000D03*
X170500000Y-99100000D03*
X170100000Y-99100000D03*
X169700000Y-99100000D03*
X169300000Y-99100000D03*
X168900000Y-99100000D03*
X168500000Y-99100000D03*
X168100000Y-99100000D03*
X167700000Y-99100000D03*
X167300000Y-99100000D03*
X166900000Y-99100000D03*
X166500000Y-99100000D03*
X166100000Y-99100000D03*
X165700000Y-99100000D03*
X165300000Y-99100000D03*
X164900000Y-99100000D03*
X164500000Y-99100000D03*
X164100000Y-99100000D03*
X163700000Y-99100000D03*
X163300000Y-99100000D03*
X162900000Y-99100000D03*
X162500000Y-99100000D03*
X162100000Y-99100000D03*
X161700000Y-99100000D03*
X161300000Y-99100000D03*
X160900000Y-99100000D03*
X160500000Y-99100000D03*
X160100000Y-99100000D03*
X159700000Y-99100000D03*
D47*
X165900000Y-106800000D03*
D48*
X165900000Y-106800000D03*
D49*
X158700000Y-120105000D03*
X158700000Y-118835000D03*
X158700000Y-117565000D03*
X158700000Y-116295000D03*
X153300000Y-116295000D03*
X153300000Y-117565000D03*
X153300000Y-118835000D03*
X153300000Y-120105000D03*
D15*
X153000000Y-93000000D03*
X153000000Y-94800000D03*
X160500000Y-94800000D03*
X160500000Y-93000000D03*
X172000000Y-95600000D03*
X172000000Y-97400000D03*
D16*
X153000000Y-104900000D03*
X151200000Y-104900000D03*
X153000000Y-106900000D03*
X151200000Y-106900000D03*
D15*
X153600000Y-113800000D03*
X153600000Y-112000000D03*
D16*
X166200000Y-119100000D03*
X168000000Y-119100000D03*
D15*
X177400000Y-132000000D03*
X177400000Y-133800000D03*
D50*
X182960000Y-137000000D03*
X185500000Y-137000000D03*
X185500000Y-138998980D03*
X182960000Y-138998980D03*
D51*
X178230520Y-141699000D03*
X190229480Y-141699000D03*
D43*
X160500000Y-97350000D03*
X160500000Y-96250000D03*
D16*
X155400000Y-90800000D03*
X157200000Y-90800000D03*
D52*
X152100000Y-100400000D03*
D53*
X152100000Y-102000000D03*
X152100000Y-101200000D03*
D52*
X152100000Y-102800000D03*
D53*
X153900000Y-101200000D03*
D52*
X153900000Y-100400000D03*
D53*
X153900000Y-102000000D03*
D52*
X153900000Y-102800000D03*
D15*
X171700000Y-116100000D03*
X171700000Y-117900000D03*
X173700000Y-116100000D03*
X173700000Y-117900000D03*
D16*
X168200000Y-92200000D03*
X170000000Y-92200000D03*
X166500000Y-94600000D03*
X164700000Y-94600000D03*
D54*
X164584000Y-91739600D03*
X164584000Y-93060400D03*
X164584000Y-92400000D03*
X166616000Y-93060400D03*
X166616000Y-91739600D03*
D52*
X171000000Y-68500000D03*
D53*
X171000000Y-70100000D03*
X171000000Y-69300000D03*
D52*
X171000000Y-70900000D03*
D53*
X172800000Y-69300000D03*
D52*
X172800000Y-68500000D03*
D53*
X172800000Y-70100000D03*
D52*
X172800000Y-70900000D03*
X171000000Y-72100000D03*
D53*
X171000000Y-73700000D03*
X171000000Y-72900000D03*
D52*
X171000000Y-74500000D03*
D53*
X172800000Y-72900000D03*
D52*
X172800000Y-72100000D03*
D53*
X172800000Y-73700000D03*
D52*
X172800000Y-74500000D03*
X171000000Y-75700000D03*
D53*
X171000000Y-77300000D03*
X171000000Y-76500000D03*
D52*
X171000000Y-78100000D03*
D53*
X172800000Y-76500000D03*
D52*
X172800000Y-75700000D03*
D53*
X172800000Y-77300000D03*
D52*
X172800000Y-78100000D03*
X171000000Y-81300000D03*
D53*
X171000000Y-82900000D03*
X171000000Y-82100000D03*
D52*
X171000000Y-83700000D03*
D53*
X172800000Y-82100000D03*
D52*
X172800000Y-81300000D03*
D53*
X172800000Y-82900000D03*
D52*
X172800000Y-83700000D03*
D36*
X158500000Y-87100000D03*
D37*
X160100000Y-87100000D03*
X159300000Y-87100000D03*
D36*
X160900000Y-87100000D03*
D37*
X159300000Y-85300000D03*
D36*
X158500000Y-85300000D03*
D37*
X160100000Y-85300000D03*
D36*
X160900000Y-85300000D03*
D15*
X162500000Y-85300000D03*
X162500000Y-87100000D03*
X164500000Y-85300000D03*
X164500000Y-87100000D03*
X124839568Y-114333786D03*
X124839568Y-116133786D03*
X138000000Y-112300000D03*
X138000000Y-114100000D03*
D55*
X126489568Y-116333786D03*
X127439568Y-116333786D03*
X128389568Y-116333786D03*
X128389568Y-114133786D03*
X126489568Y-114133786D03*
D56*
X133039568Y-118133786D03*
X133039568Y-112333786D03*
D16*
X128239568Y-112333786D03*
X126439568Y-112333786D03*
X124739568Y-112333786D03*
X122939568Y-112333786D03*
D36*
X140200000Y-81500000D03*
D37*
X138600000Y-81500000D03*
X139400000Y-81500000D03*
D36*
X137800000Y-81500000D03*
D37*
X139400000Y-83300000D03*
D36*
X140200000Y-83300000D03*
D37*
X138600000Y-83300000D03*
D36*
X137800000Y-83300000D03*
D15*
X154700000Y-62500000D03*
X154700000Y-64300000D03*
D57*
X139800760Y-56250000D03*
X139800760Y-54350000D03*
X137801780Y-55300000D03*
X134200760Y-56250000D03*
X134200760Y-54350000D03*
X132201780Y-55300000D03*
D15*
X136000000Y-56200000D03*
X136000000Y-54400000D03*
X130400000Y-56200000D03*
X130400000Y-54400000D03*
D58*
X144700000Y-56600000D03*
D59*
X143450000Y-56600000D03*
X142200000Y-56600000D03*
D15*
X150700000Y-64300000D03*
X150700000Y-62500000D03*
X148300000Y-58500000D03*
X148300000Y-60300000D03*
D16*
X147500000Y-66200000D03*
X145700000Y-66200000D03*
D15*
X164100000Y-53600000D03*
X164100000Y-51800000D03*
X166100000Y-53600000D03*
X166100000Y-51800000D03*
X103600000Y-93300000D03*
X103600000Y-91500000D03*
D16*
X114900000Y-92000000D03*
X116700000Y-92000000D03*
X114900000Y-90000000D03*
X116700000Y-90000000D03*
D18*
X112602000Y-91000000D03*
D19*
X105998000Y-91000000D03*
X105998000Y-93286000D03*
X105998000Y-88714000D03*
D60*
X155430000Y-95000000D03*
X157970000Y-95000000D03*
X157970000Y-92800000D03*
X155430000Y-92800000D03*
X148270000Y-62075000D03*
X145730000Y-62075000D03*
X145730000Y-64275000D03*
X148270000Y-64275000D03*
D61*
X109360000Y-130200000D03*
D62*
X105360000Y-136200000D03*
X105360000Y-133200000D03*
X108360000Y-136200000D03*
X108360000Y-133200000D03*
D61*
X109300000Y-139200000D03*
D63*
X139150040Y-92049760D03*
X139150040Y-92700000D03*
X139150040Y-93350240D03*
X141049960Y-93350240D03*
X141049960Y-92700000D03*
X141049960Y-92049760D03*
D16*
X141000000Y-90300000D03*
X139200000Y-90300000D03*
X142700000Y-90300000D03*
X144500000Y-90300000D03*
X141000000Y-94800000D03*
X139200000Y-94800000D03*
M02*
