G04 #@! TF.FileFunction,Soldermask,Bot*
%FSLAX46Y46*%
G04 Gerber Fmt 4.6, Leading zero omitted, Abs format (unit mm)*
G04 Created by KiCad (PCBNEW 4.0.2-stable) date Montag, 04. Dezember 2017 'u31' 15:31:44*
%MOMM*%
G01*
G04 APERTURE LIST*
%ADD10C,0.100000*%
%ADD11C,0.150000*%
%ADD12C,6.000000*%
%ADD13C,2.600000*%
%ADD14R,3.900120X3.900120*%
%ADD15R,2.127200X2.127200*%
%ADD16O,2.127200X2.127200*%
%ADD17C,1.800000*%
%ADD18C,3.400000*%
%ADD19R,5.650000X5.650000*%
%ADD20R,2.432000X2.432000*%
%ADD21O,2.432000X2.432000*%
%ADD22R,2.127200X2.432000*%
%ADD23O,2.127200X2.432000*%
%ADD24O,5.200000X5.200000*%
%ADD25C,1.924000*%
%ADD26C,3.100020*%
%ADD27R,1.200000X1.200000*%
%ADD28O,1.200000X1.200000*%
%ADD29C,1.500000*%
%ADD30C,2.000000*%
G04 APERTURE END LIST*
D10*
D11*
X100000000Y-150000000D02*
X100000000Y-50000000D01*
X200000000Y-150000000D02*
X100000000Y-150000000D01*
X200000000Y-50000000D02*
X200000000Y-150000000D01*
X100000000Y-50000000D02*
X200000000Y-50000000D01*
D12*
X105000000Y-55000000D03*
X195000000Y-55000000D03*
X195000000Y-145000000D03*
X105000000Y-145000000D03*
D13*
X147000000Y-138240000D03*
X147000000Y-134430000D03*
X147000000Y-130620000D03*
X144775000Y-148400000D03*
X149225000Y-148400000D03*
D14*
X113000000Y-138299860D03*
X113000000Y-144299340D03*
X117699000Y-141299600D03*
D15*
X155660000Y-58800000D03*
D16*
X155660000Y-56260000D03*
X158200000Y-58800000D03*
X158200000Y-56260000D03*
X160740000Y-58800000D03*
X160740000Y-56260000D03*
X163280000Y-58800000D03*
X163280000Y-56260000D03*
D17*
X133000000Y-137550000D03*
X135540000Y-137550000D03*
D18*
X127920000Y-142630000D03*
X138080000Y-142630000D03*
D19*
X135000000Y-73850000D03*
D20*
X117467938Y-81505332D03*
D21*
X114927938Y-81505332D03*
D15*
X127660000Y-54000000D03*
D16*
X127660000Y-56540000D03*
X125120000Y-54000000D03*
X125120000Y-56540000D03*
X122580000Y-54000000D03*
X122580000Y-56540000D03*
X120040000Y-54000000D03*
X120040000Y-56540000D03*
X117500000Y-54000000D03*
X117500000Y-56540000D03*
D17*
X161000000Y-137550000D03*
X163540000Y-137550000D03*
D18*
X155920000Y-142630000D03*
X166080000Y-142630000D03*
D15*
X184600000Y-80950000D03*
D16*
X187140000Y-80950000D03*
X184600000Y-83490000D03*
X187140000Y-83490000D03*
X184600000Y-86030000D03*
X187140000Y-86030000D03*
X184600000Y-88570000D03*
X187140000Y-88570000D03*
X184600000Y-91110000D03*
X187140000Y-91110000D03*
X184600000Y-93650000D03*
X187140000Y-93650000D03*
X184600000Y-96190000D03*
X187140000Y-96190000D03*
X184600000Y-98730000D03*
X187140000Y-98730000D03*
X184600000Y-101270000D03*
X187140000Y-101270000D03*
X184600000Y-103810000D03*
X187140000Y-103810000D03*
X184600000Y-106350000D03*
X187140000Y-106350000D03*
X184600000Y-108890000D03*
X187140000Y-108890000D03*
X184600000Y-111430000D03*
X187140000Y-111430000D03*
X184600000Y-113970000D03*
X187140000Y-113970000D03*
X184600000Y-116510000D03*
X187140000Y-116510000D03*
X184600000Y-119050000D03*
X187140000Y-119050000D03*
X184600000Y-121590000D03*
X187140000Y-121590000D03*
D15*
X194160000Y-80950000D03*
D16*
X196700000Y-80950000D03*
X194160000Y-83490000D03*
X196700000Y-83490000D03*
X194160000Y-86030000D03*
X196700000Y-86030000D03*
X194160000Y-88570000D03*
X196700000Y-88570000D03*
X194160000Y-91110000D03*
X196700000Y-91110000D03*
X194160000Y-93650000D03*
X196700000Y-93650000D03*
X194160000Y-96190000D03*
X196700000Y-96190000D03*
X194160000Y-98730000D03*
X196700000Y-98730000D03*
X194160000Y-101270000D03*
X196700000Y-101270000D03*
X194160000Y-103810000D03*
X196700000Y-103810000D03*
X194160000Y-106350000D03*
X196700000Y-106350000D03*
X194160000Y-108890000D03*
X196700000Y-108890000D03*
X194160000Y-111430000D03*
X196700000Y-111430000D03*
X194160000Y-113970000D03*
X196700000Y-113970000D03*
X194160000Y-116510000D03*
X196700000Y-116510000D03*
X194160000Y-119050000D03*
X196700000Y-119050000D03*
X194160000Y-121590000D03*
X196700000Y-121590000D03*
D15*
X144860000Y-94280000D03*
D16*
X147400000Y-94280000D03*
X144860000Y-96820000D03*
X147400000Y-96820000D03*
X144860000Y-99360000D03*
X147400000Y-99360000D03*
X144860000Y-101900000D03*
X147400000Y-101900000D03*
X144860000Y-104440000D03*
X147400000Y-104440000D03*
X144860000Y-106980000D03*
X147400000Y-106980000D03*
X144860000Y-109520000D03*
X147400000Y-109520000D03*
X144860000Y-112060000D03*
X147400000Y-112060000D03*
X144860000Y-114600000D03*
X147400000Y-114600000D03*
X144860000Y-117140000D03*
X147400000Y-117140000D03*
D22*
X188040000Y-134600000D03*
D23*
X185500000Y-134600000D03*
X182960000Y-134600000D03*
X180420000Y-134600000D03*
D24*
X165900000Y-106800000D03*
D25*
X182960000Y-137000000D03*
X185500000Y-137000000D03*
X185500000Y-138998980D03*
X182960000Y-138998980D03*
D26*
X178230520Y-141699000D03*
X190229480Y-141699000D03*
D27*
X144700000Y-56600000D03*
D28*
X143450000Y-56600000D03*
X142200000Y-56600000D03*
D29*
X109360000Y-130200000D03*
D30*
X105360000Y-136200000D03*
X105360000Y-133200000D03*
X108360000Y-136200000D03*
X108360000Y-133200000D03*
D29*
X109300000Y-139200000D03*
M02*
