M48
;DRILL file {KiCad 4.0.2-stable} date Montag, 04. Dezember 2017 'u32' 15:32:41
;FORMAT={-:-/ absolute / metric / decimal}
FMAT,2
METRIC,TZ
T1C0.300
T2C0.500
T3C0.813
T4C0.900
T5C1.001
T6C1.016
T7C1.100
T8C1.850
T9C2.000
T10C2.301
T11C3.200
T12C4.000
T13C1.100
%
G90
G05
M71
T1
X103.6Y-91.5
X103.6Y-108.5
X103.6Y-125.5
X105.998Y-88.714
X105.998Y-105.714
X106.Y-122.7
X110.5Y-62.2
X110.5Y-79.7
X111.544Y-73.6
X112.544Y-79.7
X113.344Y-62.2
X113.344Y-73.6
X115.3Y-71.7
X116.7Y-90.
X116.7Y-92.
X116.7Y-107.
X116.7Y-109.
X116.7Y-124.
X116.7Y-126.
X116.87Y-67.5
X117.1Y-65.5
X120.195Y-73.85
X120.465Y-77.1
X120.465Y-77.9
X122.065Y-77.1
X122.105Y-77.899
X122.4Y-85.2
X122.4Y-86.8
X122.735Y-74.4
X122.735Y-76.2
X122.94Y-112.334
X124.Y-85.
X124.84Y-116.134
X126.7Y-69.6
X126.7Y-78.1
X126.7Y-80.1
X126.8Y-82.095
X127.44Y-116.334
X127.5Y-60.813
X127.5Y-62.814
X127.65Y-132.8
X128.3Y-129.1
X128.5Y-78.1
X128.6Y-63.7
X128.6Y-65.9
X128.724Y-61.413
X129.2Y-70.8
X129.2Y-71.6
X129.7Y-68.8
X130.Y-78.85
X130.3Y-61.9
X130.3Y-63.7
X130.3Y-65.4
X130.3Y-67.2
X130.3Y-124.56
X130.3Y-127.1
X130.3Y-129.64
X130.632Y-79.845
X130.632Y-72.6
X130.659Y-76.072
X130.665Y-76.634
X130.8Y-69.7
X130.9Y-78.
X131.465Y-71.6
X131.762Y-69.638
X132.1Y-78.
X132.75Y-69.482
X134.3Y-63.7
X134.3Y-65.4
X134.3Y-67.2
X135.Y-133.4
X135.16Y-68.114
X135.629Y-58.8
X135.7Y-123.29
X136.632Y-61.895
X136.632Y-67.195
X136.65Y-63.7
X136.65Y-65.4
X136.75Y-69.482
X137.Y-92.
X138.Y-112.3
X138.Y-114.1
X138.3Y-69.7
X138.3Y-76.4
X138.3Y-78.
X138.3Y-108.
X138.3Y-108.
X138.5Y-117.597
X138.6Y-92.032
X138.7Y-63.7
X138.7Y-65.4
X139.1Y-57.5
X139.1Y-59.6
X139.1Y-61.9
X139.1Y-67.2
X139.1Y-69.7
X139.1Y-78.
X139.2Y-94.8
X140.Y-68.85
X140.Y-78.85
X140.1Y-106.7
X140.4Y-108.
X140.4Y-117.597
X141.Y-67.2
X141.1Y-65.4
X141.6Y-69.3
X141.6Y-78.1
X141.6Y-80.1
X141.6Y-112.3
X142.1Y-106.7
X142.5Y-134.8
X143.4Y-69.305
X143.4Y-78.1
X143.4Y-80.1
X143.4Y-82.1
X144.7Y-54.
X145.73Y-62.05
X148.3Y-70.5
X148.7Y-79.
X148.7Y-81.4
X149.Y-93.
X149.2Y-66.6
X149.2Y-69.4
X149.8Y-102.75
X149.8Y-104.441
X150.1Y-70.5
X150.1Y-95.3
X150.1Y-98.9
X150.484Y-58.716
X150.5Y-60.
X150.5Y-79.
X150.5Y-81.4
X150.7Y-62.5
X150.7Y-95.9
X150.7Y-99.548
X151.2Y-121.8
X151.3Y-95.3
X151.3Y-98.9
X151.7Y-61.4
X151.7Y-64.3
X151.9Y-95.9
X151.9Y-99.6
X152.7Y-62.5
X152.7Y-64.3
X152.9Y-55.3
X152.9Y-57.1
X153.Y-93.
X153.607Y-78.5
X153.607Y-70.5
X154.Y-66.3
X154.5Y-69.7
X154.5Y-68.3
X154.5Y-79.3
X155.25Y-102.4
X155.25Y-104.5
X155.25Y-106.
X155.25Y-107.1
X155.25Y-108.3
X155.25Y-109.8
X155.25Y-111.8
X155.3Y-131.71
X155.4Y-90.8
X156.2Y-96.326
X156.2Y-98.2
X156.35Y-102.4
X156.35Y-104.5
X156.35Y-106.
X156.35Y-107.1
X156.35Y-108.3
X156.35Y-109.8
X156.35Y-111.8
X157.2Y-90.8
X157.7Y-80.593
X157.97Y-95.025
X158.1Y-62.5
X158.1Y-64.3
X158.2Y-67.407
X158.7Y-116.295
X159.Y-68.3
X159.3Y-105.9
X159.3Y-108.3
X159.7Y-96.8
X159.7Y-102.4
X159.894Y-111.8
X160.194Y-65.148
X160.2Y-107.1
X160.2Y-109.8
X160.5Y-96.1
X160.5Y-97.35
X160.5Y-100.2
X160.5Y-104.5
X160.7Y-67.407
X160.7Y-125.36
X160.7Y-127.9
X160.7Y-130.44
X160.85Y-63.1
X160.9Y-111.965
X160.9Y-116.35
X160.9Y-117.45
X161.Y-133.4
X161.676Y-96.8
X162.Y-64.
X162.5Y-111.965
X162.5Y-116.35
X162.5Y-117.45
X162.7Y-125.9
X162.9Y-96.25
X162.9Y-97.35
X162.9Y-100.2
X163.2Y-80.593
X163.7Y-112.765
X163.7Y-116.4
X163.7Y-117.45
X163.9Y-68.3
X164.2Y-62.2
X164.2Y-64.
X164.584Y-93.103
X164.7Y-67.407
X164.7Y-94.6
X166.1Y-111.965
X166.1Y-116.35
X166.1Y-117.45
X166.2Y-62.2
X166.2Y-64.
X166.5Y-87.1
X166.5Y-96.25
X166.793Y-77.5
X166.793Y-69.5
X167.3Y-59.3
X167.3Y-112.765
X167.3Y-116.35
X167.3Y-117.45
X167.7Y-57.6
X168.Y-119.1
X168.2Y-64.
X168.2Y-94.6
X168.5Y-87.1
X168.5Y-117.45
X168.9Y-96.25
X168.9Y-97.35
X168.9Y-100.752
X169.1Y-54.7
X169.291Y-99.959
X169.3Y-111.965
X169.3Y-116.35
X169.5Y-57.057
X170.Y-92.2
X170.1Y-117.45
X170.3Y-96.25
X170.3Y-97.35
X170.3Y-101.3
X171.Y-66.9
X171.009Y-65.3
X171.7Y-104.2
X171.7Y-108.5
X172.5Y-102.2
X172.5Y-112.2
X172.8Y-66.9
X172.8Y-79.7
X175.45Y-102.1
X175.45Y-104.2
X175.45Y-108.5
X175.45Y-112.2
X175.6Y-139.9
X176.55Y-102.1
X176.55Y-104.2
X176.55Y-105.9
X176.55Y-107.1
X176.55Y-109.8
X176.55Y-112.2
X176.7Y-101.1
X177.4Y-133.8
X178.3Y-114.4
X178.3Y-113.6
X179.3Y-132.2
X179.9Y-101.1
X180.7Y-113.6
X181.3Y-114.4
X182.436Y-113.97
X182.436Y-116.5
X187.704Y-102.512
X189.4Y-102.5
X189.9Y-115.
X189.9Y-115.8
X190.7Y-101.3
X191.996Y-115.8
X192.001Y-115.
X199.3Y-79.6
T2
X142.2Y-56.6
X143.45Y-56.6
X144.7Y-56.6
T3
X182.96Y-137.
X182.96Y-138.999
X185.5Y-137.
X185.5Y-138.999
T4
X133.Y-137.55
X135.54Y-137.55
X161.Y-137.55
X163.54Y-137.55
T6
X114.928Y-81.505
X117.468Y-81.505
X117.5Y-54.
X117.5Y-56.54
X120.04Y-54.
X120.04Y-56.54
X122.58Y-54.
X122.58Y-56.54
X125.12Y-54.
X125.12Y-56.54
X127.66Y-54.
X127.66Y-56.54
X144.86Y-94.28
X144.86Y-96.82
X144.86Y-99.36
X144.86Y-101.9
X144.86Y-104.44
X144.86Y-106.98
X144.86Y-109.52
X144.86Y-112.06
X144.86Y-114.6
X144.86Y-117.14
X147.4Y-94.28
X147.4Y-96.82
X147.4Y-99.36
X147.4Y-101.9
X147.4Y-104.44
X147.4Y-106.98
X147.4Y-109.52
X147.4Y-112.06
X147.4Y-114.6
X147.4Y-117.14
X155.66Y-56.26
X155.66Y-58.8
X158.2Y-56.26
X158.2Y-58.8
X160.74Y-56.26
X160.74Y-58.8
X163.28Y-56.26
X163.28Y-58.8
X180.42Y-134.6
X182.96Y-134.6
X184.6Y-80.95
X184.6Y-83.49
X184.6Y-86.03
X184.6Y-88.57
X184.6Y-91.11
X184.6Y-93.65
X184.6Y-96.19
X184.6Y-98.73
X184.6Y-101.27
X184.6Y-103.81
X184.6Y-106.35
X184.6Y-108.89
X184.6Y-111.43
X184.6Y-113.97
X184.6Y-116.51
X184.6Y-119.05
X184.6Y-121.59
X185.5Y-134.6
X187.14Y-80.95
X187.14Y-83.49
X187.14Y-86.03
X187.14Y-88.57
X187.14Y-91.11
X187.14Y-93.65
X187.14Y-96.19
X187.14Y-98.73
X187.14Y-101.27
X187.14Y-103.81
X187.14Y-106.35
X187.14Y-108.89
X187.14Y-111.43
X187.14Y-113.97
X187.14Y-116.51
X187.14Y-119.05
X187.14Y-121.59
X188.04Y-134.6
X194.16Y-80.95
X194.16Y-83.49
X194.16Y-86.03
X194.16Y-88.57
X194.16Y-91.11
X194.16Y-93.65
X194.16Y-96.19
X194.16Y-98.73
X194.16Y-101.27
X194.16Y-103.81
X194.16Y-106.35
X194.16Y-108.89
X194.16Y-111.43
X194.16Y-113.97
X194.16Y-116.51
X194.16Y-119.05
X194.16Y-121.59
X196.7Y-80.95
X196.7Y-83.49
X196.7Y-86.03
X196.7Y-88.57
X196.7Y-91.11
X196.7Y-93.65
X196.7Y-96.19
X196.7Y-98.73
X196.7Y-101.27
X196.7Y-103.81
X196.7Y-106.35
X196.7Y-108.89
X196.7Y-111.43
X196.7Y-113.97
X196.7Y-116.51
X196.7Y-119.05
X196.7Y-121.59
T7
X105.36Y-133.2
X105.36Y-136.2
X108.36Y-133.2
X108.36Y-136.2
T8
X144.775Y-148.4
X147.Y-130.62
X147.Y-134.43
X147.Y-138.24
X149.225Y-148.4
T9
X127.92Y-142.63
X138.08Y-142.63
X155.92Y-142.63
X166.08Y-142.63
T10
X178.231Y-141.699
X190.229Y-141.699
T11
X105.Y-55.
X105.Y-145.
X195.Y-55.
X195.Y-145.
T12
X135.Y-73.85
X165.9Y-106.8
T13
X109.3Y-139.2
X109.36Y-130.2
T5
X112.001Y-138.3G85X113.999Y-138.3
G05
X112.001Y-144.299G85X113.999Y-144.299
G05
X117.699Y-142.299G85X117.699Y-140.3
G05
T0
M30
