M48
;DRILL file {KiCad (5.0.0-3-g5ebb6b6)} date Wednesday, 19. September 2018 um 17:16:01
;FORMAT={-:-/ absolute / metric / decimal}
FMAT,2
METRIC,TZ
T1C0.300
T2C0.800
T3C0.813
T4C1.016
T5C1.100
T6C1.500
T7C2.301
T8C3.200
T9C4.000
T10C1.100
%
G90
G05
M71
T1
X54.312Y-46.788
X54.316Y-49.054
X55.146Y-38.1
X60.2Y-52.7
X67.4Y-42.575
X67.4Y-48.4
X68.41Y-30.8
X74.7Y-40.304
X74.732Y-37.104
X77.3Y-37.104
X77.3Y-40.304
X88.73Y-30.8
X94.9Y-77.996
X94.9Y-80.
X95.195Y-59.2
X95.4Y-52.1
X96.1Y-55.9
X96.2Y-80.9
X96.2Y-83.1
X97.Y-60.2
X97.6Y-52.1
X97.8Y-80.9
X97.9Y-83.1
X97.929Y-55.071
X98.695Y-59.2
X98.7Y-61.2
X98.7Y-65.2
X99.1Y-85.
X99.6Y-52.1
X99.6Y-55.2
X100.495Y-59.2
X100.5Y-61.2
X100.5Y-65.2
X101.6Y-52.1
X101.6Y-53.9
X101.7Y-87.5
X102.85Y-55.5
X102.95Y-65.5
X103.239Y-76.8
X103.239Y-78.4
X103.482Y-58.75
X103.482Y-62.75
X103.6Y-52.1
X103.6Y-53.9
X103.7Y-56.4
X103.7Y-63.7
X103.7Y-64.7
X103.9Y-69.8
X104.5Y-57.2
X104.5Y-64.3
X104.791Y-70.791
X106.Y-70.8
X106.6Y-64.868
X107.85Y-75.305
X108.4Y-72.765
X109.05Y-30.8
X110.2Y-72.765
X110.815Y-73.42
X110.815Y-76.9
X111.2Y-57.2
X111.413Y-72.888
X111.415Y-76.3
X112.Y-56.4
X112.Y-63.4
X112.Y-64.6
X112.1Y-52.1
X112.1Y-67.
X112.1Y-68.8
X112.1Y-73.435
X112.1Y-75.635
X112.7Y-72.851
X112.7Y-75.035
X112.85Y-55.5
X112.85Y-65.5
X113.7Y-64.35
X114.1Y-52.1
X114.1Y-53.9
X114.1Y-68.8
X114.871Y-87.871
X116.095Y-68.7
X116.1Y-52.1
X116.1Y-53.9
X116.335Y-89.235
X117.5Y-70.1
X117.5Y-81.4
X118.2Y-82.5
X118.7Y-70.1
X119.Y-71.5
X119.232Y-89.232
X120.Y-88.6
X121.8Y-81.3
X121.8Y-82.9
X123.75Y-80.7
X123.75Y-83.3
X127.5Y-57.9
X128.4Y-72.444
X128.4Y-74.044
X129.37Y-30.8
X129.8Y-73.044
X129.824Y-61.
X136.085Y-65.3
X136.7Y-64.7
X137.364Y-65.157
X137.549Y-65.94
X137.7Y-76.1
X137.7Y-81.7
X137.927Y-60.402
X138.1Y-62.8
X138.1Y-63.65
X138.2Y-57.15
X138.2Y-59.65
X138.3Y-75.534
X138.3Y-82.3
X138.377Y-70.777
X140.588Y-49.612
X140.7Y-55.9
X140.7Y-58.4
X141.525Y-64.7
X141.525Y-68.3
X142.25Y-52.1
X143.25Y-70.7
X144.25Y-49.594
X144.424Y-73.276
X144.75Y-52.1
X144.8Y-78.2
X145.6Y-70.7
X146.195Y-81.3
X146.2Y-83.3
X146.4Y-78.2
X147.55Y-70.7
X148.4Y-77.9
X148.75Y-73.2
X149.75Y-73.2
X150.25Y-52.1
X151.25Y-49.594
X152.55Y-52.1
X153.473Y-78.797
X155.25Y-52.1
X155.25Y-70.7
X155.75Y-49.594
X155.75Y-73.2
X157.55Y-52.1
X157.55Y-70.7
X157.9Y-79.4
X159.3Y-54.3
X159.3Y-56.65
X159.3Y-62.15
X159.3Y-64.5
X159.3Y-65.65
X159.7Y-76.1
X160.7Y-52.
X161.1Y-77.
X161.806Y-55.65
X161.806Y-63.15
X163.1Y-77.
X164.6Y-79.8
X164.6Y-81.9
X164.7Y-71.5
X167.1Y-63.2
X167.1Y-66.966
X167.9Y-63.2
X167.9Y-68.3
X168.5Y-63.766
X168.5Y-67.766
X172.7Y-86.
X174.Y-76.8
X176.Y-76.8
X180.9Y-86.2
X182.3Y-47.5
X182.3Y-52.1
X183.Y-46.9
X183.Y-51.5
X185.3Y-46.9
X185.3Y-50.7
X185.6Y-88.2
X185.9Y-47.5
X185.9Y-51.3
X188.41Y-30.8
X189.4Y-84.
X190.3Y-85.4
X194.Y-70.2
X194.Y-72.
X195.4Y-57.4
X196.2Y-74.4
X196.2Y-78.4
X196.303Y-62.816
X197.8Y-59.2
X197.8Y-62.7
X198.Y-88.2
X198.225Y-69.43
X198.5Y-76.1
X198.5Y-77.3
X199.1Y-75.5
X199.1Y-76.7
X199.3Y-66.9
X199.45Y-57.1
X199.45Y-58.5
X199.45Y-60.9
X199.45Y-64.5
X199.526Y-71.2
X200.Y-65.724
X200.Y-67.7
X200.55Y-57.1
X200.55Y-58.5
X200.55Y-64.5
X200.55Y-66.9
X201.4Y-71.2
X202.1Y-76.1
X202.1Y-77.3
X202.748Y-76.7
X202.8Y-75.5
X203.159Y-58.109
X203.4Y-64.5
X203.4Y-66.9
X203.952Y-58.5
X204.3Y-47.5
X204.3Y-50.7
X204.5Y-57.1
X205.3Y-50.85
X205.3Y-51.95
X205.3Y-54.9
X205.6Y-67.7
X205.6Y-71.05
X205.6Y-72.15
X205.95Y-77.6
X207.4Y-50.85
X207.4Y-51.95
X207.4Y-55.7
X207.641Y-77.6
X207.7Y-66.9
X207.7Y-71.05
X207.7Y-72.15
X208.73Y-30.8
X209.1Y-50.85
X209.2Y-67.7
X209.2Y-71.05
X209.2Y-72.15
X209.9Y-85.3
X209.9Y-87.3
X210.3Y-50.85
X210.3Y-66.9
X210.3Y-71.05
X210.3Y-72.15
X211.5Y-67.7
X211.5Y-71.05
X211.5Y-72.15
X211.7Y-51.95
X211.7Y-55.7
X212.568Y-37.104
X212.6Y-41.504
X213.Y-50.85
X213.Y-66.9
X213.Y-71.05
X213.Y-72.15
X214.8Y-58.1
X214.8Y-61.3
X214.8Y-64.9
X214.953Y-67.053
X215.Y-71.05
X215.Y-72.15
X215.1Y-37.104
X215.1Y-41.504
X215.4Y-50.85
X215.4Y-51.95
X215.4Y-54.9
X215.646Y-60.1
X215.646Y-63.7
X215.9Y-44.3
X215.9Y-49.1
X219.495Y-68.7
X219.55Y-58.1
X219.55Y-60.1
X219.55Y-61.3
X219.55Y-64.9
X219.6Y-63.7
X219.7Y-49.7
X219.7Y-50.5
X220.65Y-57.3
X220.65Y-58.9
X220.65Y-60.1
X220.65Y-61.3
X220.65Y-63.7
X220.65Y-64.9
X220.65Y-66.5
X222.1Y-50.5
X222.3Y-59.4
X222.7Y-49.7
X225.Y-76.2
X225.1Y-49.7
X225.7Y-50.3
X229.Y-68.9
X229.05Y-30.8
X230.7Y-87.5
X233.Y-76.8
X235.Y-76.8
X235.4Y-39.504
X236.Y-41.3
X236.8Y-45.6
X236.8Y-47.2
X237.6Y-41.3
X237.9Y-39.504
X239.6Y-50.9
X239.6Y-66.7
X239.9Y-86.2
X242.2Y-66.9
X244.1Y-72.9
X247.1Y-87.5
X249.2Y-42.1
X249.37Y-30.8
X249.4Y-76.8
X250.1Y-47.8
X250.1Y-48.7
X250.7Y-41.1
X251.4Y-76.8
X251.9Y-41.1
X252.2Y-70.2
X253.8Y-72.1
X256.3Y-86.2
X259.9Y-73.9
T2
X263.73Y-42.285
X263.73Y-44.825
X263.73Y-47.365
X263.73Y-49.905
X263.73Y-52.445
X266.27Y-43.555
X266.27Y-46.095
X266.27Y-48.635
X266.27Y-51.175
X266.27Y-53.715
T3
X257.Y-64.
X257.Y-66.54
X258.999Y-64.
X258.999Y-66.54
T4
X197.48Y-80.
X197.48Y-82.54
X200.02Y-80.
X200.02Y-82.54
X202.56Y-80.
X202.56Y-82.54
X205.1Y-80.
X205.1Y-82.54
X207.64Y-80.
X207.64Y-82.54
X210.18Y-80.
X210.18Y-82.54
X212.72Y-80.
X212.72Y-82.54
X215.26Y-80.
X215.26Y-82.54
X217.8Y-80.
X217.8Y-82.54
X220.34Y-80.
X220.34Y-82.54
X101.94Y-82.2
X101.94Y-84.74
X104.48Y-82.2
X104.48Y-84.74
X107.02Y-82.2
X107.02Y-84.74
X109.56Y-82.2
X109.56Y-84.74
X112.1Y-82.2
X112.1Y-84.74
X170.63Y-34.
X170.63Y-36.54
X173.17Y-34.
X173.17Y-36.54
X175.71Y-34.
X175.71Y-36.54
X178.25Y-34.
X178.25Y-36.54
X180.79Y-34.
X180.79Y-36.54
X183.33Y-34.
X183.33Y-36.54
X185.87Y-34.
X185.87Y-36.54
X188.41Y-34.
X188.41Y-36.54
X190.95Y-34.
X190.95Y-36.54
X193.49Y-34.
X193.49Y-36.54
X196.03Y-34.
X196.03Y-36.54
X198.57Y-34.
X198.57Y-36.54
X201.11Y-34.
X201.11Y-36.54
X203.65Y-34.
X203.65Y-36.54
X206.19Y-34.
X206.19Y-36.54
X208.73Y-34.
X208.73Y-36.54
X211.27Y-34.
X211.27Y-36.54
X213.81Y-34.
X213.81Y-36.54
X216.35Y-34.
X216.35Y-36.54
X218.89Y-34.
X218.89Y-36.54
X221.43Y-34.
X221.43Y-36.54
X223.97Y-34.
X223.97Y-36.54
X226.51Y-34.
X226.51Y-36.54
X229.05Y-34.
X229.05Y-36.54
X231.59Y-34.
X231.59Y-36.54
X234.13Y-34.
X234.13Y-36.54
X236.67Y-34.
X236.67Y-36.54
X239.21Y-34.
X239.21Y-36.54
X241.75Y-34.
X241.75Y-36.54
X244.29Y-34.
X244.29Y-36.54
X246.83Y-34.
X246.83Y-36.54
X249.37Y-34.
X249.37Y-36.54
X50.63Y-34.
X50.63Y-36.54
X53.17Y-34.
X53.17Y-36.54
X55.71Y-34.
X55.71Y-36.54
X58.25Y-34.
X58.25Y-36.54
X60.79Y-34.
X60.79Y-36.54
X63.33Y-34.
X63.33Y-36.54
X65.87Y-34.
X65.87Y-36.54
X68.41Y-34.
X68.41Y-36.54
X70.95Y-34.
X70.95Y-36.54
X73.49Y-34.
X73.49Y-36.54
X76.03Y-34.
X76.03Y-36.54
X78.57Y-34.
X78.57Y-36.54
X81.11Y-34.
X81.11Y-36.54
X83.65Y-34.
X83.65Y-36.54
X86.19Y-34.
X86.19Y-36.54
X88.73Y-34.
X88.73Y-36.54
X91.27Y-34.
X91.27Y-36.54
X93.81Y-34.
X93.81Y-36.54
X96.35Y-34.
X96.35Y-36.54
X98.89Y-34.
X98.89Y-36.54
X101.43Y-34.
X101.43Y-36.54
X103.97Y-34.
X103.97Y-36.54
X106.51Y-34.
X106.51Y-36.54
X109.05Y-34.
X109.05Y-36.54
X111.59Y-34.
X111.59Y-36.54
X114.13Y-34.
X114.13Y-36.54
X116.67Y-34.
X116.67Y-36.54
X119.21Y-34.
X119.21Y-36.54
X121.75Y-34.
X121.75Y-36.54
X124.29Y-34.
X124.29Y-36.54
X126.83Y-34.
X126.83Y-36.54
X129.37Y-34.
X129.37Y-36.54
X128.46Y-61.86
X128.46Y-64.4
X128.46Y-66.94
X128.46Y-69.48
X131.Y-61.86
X131.Y-64.4
X131.Y-66.94
X131.Y-69.48
X119.3Y-74.3
X119.3Y-76.84
X254.6Y-61.46
X254.6Y-64.
X254.6Y-66.54
X254.6Y-69.08
T5
X263.5Y-79.4
X263.5Y-82.4
X266.5Y-79.4
X266.5Y-82.4
T6
X265.53Y-40.885
T7
X261.699Y-59.271
X261.699Y-71.269
T8
X35.Y-95.
X265.Y-95.
X265.Y-35.
X150.Y-95.
X150.Y-35.
X35.Y-35.
T9
X107.85Y-60.5
X210.Y-61.5
T10
X267.44Y-85.4
X267.5Y-76.4
T0
M30
